<svg width="80" height="24" viewBox="0 0 80 24" fill="none" xmlns="http://www.w3.org/2000/svg"><rect width="80" height="24" rx="12" fill="#A0006E"/><path d="M49.9802 15.5802V8.59984C49.9802 8.19974 49.7605 7.77972 49.1005 7.77972C48.6005 7.77972 48.4002 7.99964 48.1801 8.43978L46.0202 12.9402H45.9997L43.8206 8.43978C43.6002 7.99964 43.3998 7.77972 42.9 7.77972C42.2397 7.77972 42.02 8.19974 42.02 8.59984V15.5802C42.02 15.9601 42.3202 16.1804 42.6801 16.1804C43.0006 16.1804 43.3599 15.9601 43.3599 15.5802V10.3801H43.3801L45.3602 14.42C45.4999 14.6998 45.6799 14.8599 45.9997 14.8599C46.32 14.8599 46.4999 14.6998 46.6398 14.42L48.6206 10.3801H48.6403V15.5802C48.6403 15.9601 48.9998 16.1804 49.3205 16.1804C49.6799 16.1804 49.9802 15.9601 49.9802 15.5802Z" fill="white"/><path fill-rule="evenodd" clip-rule="evenodd" d="M54 12.0404C54 7.59984 50.2802 3.99963 46.0202 3.99963C41.6003 3.99963 38 7.59984 38 12.0404C38 16.4403 41.6003 19.9998 46.0202 19.9998C50.4401 19.9998 54 16.4602 54 12.0404ZM52.9001 12.0404C52.9001 15.8003 49.8006 18.9402 46.0202 18.9402C42.22 18.9402 39.0998 15.8401 39.0998 12.0404C39.0998 8.21937 42.22 5.06019 46.0202 5.06019C49.8006 5.06018 52.9001 8.24027 52.9001 12.0404Z" fill="white"/><path d="M64.0694 13.2465H61.6043L63.4063 10.4184C63.7567 9.86774 64.007 9.32966 64.0445 9.17957H64.0694V13.2465Z" fill="white"/><path fill-rule="evenodd" clip-rule="evenodd" d="M64 20C68.4183 20 72 16.4183 72 12C72 7.58172 68.4183 4 64 4C59.5817 4 56 7.58172 56 12C56 16.4183 59.5817 20 64 20ZM66.8601 13.2465V14.6228H65.7714V16.4623H64.0695V14.6228H60.0903V12.9835L63.5189 7.62769H65.7714V13.2465H66.8601Z" fill="white"/><path d="M33.9641 13.9128L34 14.5624L33.9811 14.9929L33.9282 15.3914L33.8187 15.7917L33.7111 16.1637L33.5109 16.4809L33.3202 16.8133L33.1125 17.1022L32.8198 17.3552L32.5573 17.5931L32.2514 17.7933L31.9153 17.9727L31.5603 18.12L31.2091 18.237L30.8182 18.3164L30.4179 18.3749L30.01 18.3994L29.3661 18.356L28.7335 18.237L28.1538 18.086L27.6931 17.8934L27.3098 17.6857L27.1474 17.5535L27.0378 17.4043L26.9472 17.24L26.9113 17.0512V16.8133L26.9925 16.5338L27.0756 16.2864L27.1832 16.0617L27.289 15.888L27.4457 15.7577L27.6006 15.669L27.7724 15.6369L27.999 15.6595L28.2237 15.735L28.5881 15.888L29.0413 16.0315L29.5304 16.1335L30.01 16.1807L30.3178 16.1769L30.6105 16.1108L30.8805 16.0126L31.1355 15.888L31.3337 15.7048L31.498 15.4971L31.5962 15.229L31.6434 14.9193L31.617 14.6852L31.5603 14.4529L31.4716 14.232L31.3526 14.0318L31.2091 13.8505L31.0259 13.6919L30.5897 13.3936L29.5946 12.8233L29.0508 12.4872L28.607 12.1605L28.2067 11.7809L27.8706 11.3844L27.6081 10.9274L27.4268 10.4365L27.289 9.87188L27.2569 9.2544L27.2625 8.84464L27.3286 8.43866L27.4268 8.07988L27.5628 7.73055L27.7176 7.39632L27.9008 7.11118L28.1349 6.82605L28.388 6.58435L28.6523 6.3502L28.9507 6.1727L29.266 5.99142L29.6022 5.85924L29.9572 5.7535L30.3178 5.66286L30.7106 5.6232L31.0977 5.60999L31.6528 5.64775L32.2231 5.73084L32.7216 5.85924L33.1559 6.05751L33.5109 6.26334L33.6469 6.38985L33.7545 6.51826L33.8187 6.68443L33.8546 6.87892L33.8357 7.09608L33.7829 7.35666L33.7111 7.60403L33.611 7.8023L33.4826 7.98169L33.3561 8.11198L33.1918 8.20829L32.9935 8.23472L32.8028 8.20829L32.5875 8.13087L31.8681 7.85895L31.4716 7.75132L31.0448 7.71355L30.7559 7.73055L30.4651 7.8023L30.2366 7.91182L30.01 8.05722L29.8476 8.23472L29.7287 8.43866L29.6569 8.6747L29.6135 8.93717L29.6305 9.16188L29.7022 9.39414L29.7948 9.58863L29.9458 9.76613L30.1177 9.94552L30.2838 10.1022L30.7106 10.3836L31.6793 10.9048L32.14 11.1956L32.5951 11.526L32.9935 11.9037L33.3372 12.3323L33.611 12.8006L33.8187 13.3256L33.9641 13.9128Z" fill="white"/><path d="M25.8142 6.64477V14.0998L25.7953 14.6304L25.7406 15.1308L25.6518 15.5764L25.514 15.99L25.3516 16.3903L25.1798 16.7415L24.9418 17.0512L24.7077 17.3363L24.4169 17.5931L24.1091 17.7933L23.7824 17.9727L23.4199 18.1389L23.0479 18.237L22.6589 18.3428L22.2227 18.3749L21.7959 18.3994L21.2993 18.3749L20.8197 18.3428L20.4005 18.237L20.0039 18.1389L19.6206 17.9935L19.2769 17.8084L18.9672 17.5931L18.7067 17.3363L18.4423 17.0587L18.2346 16.7415L18.0533 16.3903L17.8909 15.99L17.772 15.5764L17.6908 15.1006L17.6266 14.6172L17.619 14.0677V6.64477L17.6643 6.42573L17.7266 6.22746L17.8362 6.05751L17.991 5.93666L18.1817 5.8328L18.3894 5.7535L18.6236 5.69685H19.1051L19.3241 5.7535L19.5319 5.8328L19.7131 5.93666L19.8944 6.05751L20.0209 6.22746L20.0832 6.42573L20.1191 6.64477V13.8014L20.1399 14.3264L20.2381 14.7909L20.357 15.2158L20.5459 15.5594L20.7536 15.8276L21.0444 16.0315L21.3805 16.1335L21.7959 16.1807L22.1868 16.1335L22.5324 16.0126L22.7948 15.8144L23.0309 15.5406L23.1933 15.2007L23.3028 14.772L23.3745 14.3264L23.384 13.8014V6.64477L23.4199 6.42573L23.5029 6.22746L23.6087 6.05751L23.7749 5.93666L23.9561 5.8328L24.1544 5.7535L24.364 5.69685H24.8172L25.0344 5.7535L25.2232 5.8328L25.4347 5.93666L25.5763 6.05751L25.6953 6.22746L25.7765 6.42573L25.8142 6.64477Z" fill="white"/><path fill-rule="evenodd" clip-rule="evenodd" d="M16.0857 14.2924L16.097 14.6493L16.0857 15.1308L16.0045 15.5406L15.9233 15.939L15.7855 16.3015L15.6401 16.6301L15.4323 16.9247L15.1888 17.1928L14.964 17.4043L14.6903 17.6271L14.3994 17.7933L14.1011 17.9387L13.7744 18.0577L13.4383 18.1389L13.0852 18.2068L12.3884 18.2673H9.20662L8.98003 18.237L8.77043 18.1879L8.56271 18.12L8.38144 18.0256L8.21716 17.8877L8.10008 17.7178L8.01889 17.5365L8 17.3231V6.77507L8.01889 6.57302L8.05477 6.38985L8.13596 6.19913L8.24548 6.05751L8.39844 5.914L8.56271 5.8328L8.76098 5.7535L8.9687 5.73084H12.3337L12.9964 5.79315L13.629 5.914L13.9387 6.02352L14.2389 6.15193L14.5014 6.31621L14.7714 6.49182L15.0056 6.69576L15.2152 6.92047L15.3965 7.17161L15.5608 7.44352L15.7062 7.75132L15.7855 8.07988L15.8421 8.42544L15.8591 8.8031L15.8327 9.34127L15.6967 9.82278L15.4984 10.2571L15.2152 10.614L14.9338 10.9482L14.5807 11.2163L14.2389 11.4637L13.9009 11.6355V11.6884L14.2389 11.7677L14.5713 11.9037L14.9338 12.1473L15.2964 12.4362L15.5985 12.8403L15.7326 13.0669L15.8591 13.3482L15.9497 13.6126L16.0328 13.9412L16.0857 14.2924ZM13.3193 9.79068L13.3571 9.39414L13.3193 8.96549L13.2042 8.62371L13.0134 8.35368L12.7604 8.14975L12.4507 7.98169L12.1146 7.88161L11.7521 7.82307L11.3631 7.8023H10.4208V10.9614H11.3631L11.7351 10.9482L12.0995 10.8765L12.4413 10.7707L12.7491 10.614L12.9964 10.4006L13.2042 10.1306L13.3193 9.79068ZM13.6838 14.8098L13.7197 14.3811L13.6932 14.1413L13.6649 13.9128L13.6101 13.7013L13.5271 13.522L13.4119 13.3539L13.2835 13.2274L13.0134 12.9989L12.6792 12.8535L12.3337 12.7459L11.9692 12.6854L11.6255 12.6722H10.5473V16.1807H11.6255L12.1146 16.1637L12.5414 16.0863L12.9039 15.939L13.2136 15.735L13.4383 15.4971L13.6026 15.1742L13.6838 14.8098Z" fill="white"/><script xmlns=""/></svg>