<svg width="80" height="24" viewBox="0 0 80 24" fill="none" xmlns="http://www.w3.org/2000/svg"><rect width="80" height="24" rx="12" fill="#D2D200"/><path d="M64.0998 8.97229C63.2445 8.97229 62.8041 9.68934 62.8041 10.4569C62.8041 11.2873 63.345 11.8786 64.2006 11.8786C64.7415 11.8786 65.1818 11.6646 65.3579 11.3878C65.4586 11.2369 65.4586 10.8974 65.4586 10.633C65.4586 9.79023 64.9806 8.97229 64.0998 8.97229Z" fill="black"/><path fill-rule="evenodd" clip-rule="evenodd" d="M72 12C72 16.4183 68.4183 20 64 20C59.5817 20 56 16.4183 56 12C56 7.58172 59.5817 4 64 4C68.4183 4 72 7.58172 72 12ZM63.6598 13.275C62.2129 13.275 61.0303 12.3063 61.0303 10.6456C61.0303 8.8716 62.2129 7.57581 64.0373 7.57581C66.4275 7.57581 67.2832 9.24892 67.2832 11.6017C67.2832 14.6839 65.8615 16.7976 63.0685 16.7976C62.5653 16.7976 62.1124 16.7347 61.7475 16.6466L62.0243 15.1369C62.2633 15.2376 62.7162 15.3508 63.2194 15.3508C64.4398 15.3508 65.3581 14.4576 65.4714 12.671C65.1694 12.9354 64.6033 13.275 63.6598 13.275Z" fill="black"/><path d="M34 14.5624L33.9641 13.9128L33.8187 13.3256L33.611 12.8006L33.3372 12.3323L32.9935 11.9037L32.5951 11.526L32.14 11.1956L31.6793 10.9048L30.7106 10.3836L30.2838 10.1022L30.1177 9.94552L29.9458 9.76613L29.7948 9.58863L29.7022 9.39414L29.6305 9.16188L29.6135 8.93717L29.6569 8.6747L29.7287 8.43866L29.8476 8.23472L30.01 8.05722L30.2366 7.91182L30.4651 7.8023L30.7559 7.73055L31.0448 7.71355L31.4716 7.75132L31.8681 7.85895L32.5875 8.13087L32.8028 8.20829L32.9935 8.23472L33.1918 8.20829L33.3561 8.11198L33.4826 7.98169L33.611 7.8023L33.7111 7.60403L33.7829 7.35666L33.8357 7.09608L33.8546 6.87892L33.8187 6.68443L33.7545 6.51826L33.6469 6.38985L33.5109 6.26334L33.1559 6.05751L32.7216 5.85924L32.2231 5.73084L31.6528 5.64775L31.0977 5.60999L30.7106 5.6232L30.3178 5.66286L29.9572 5.7535L29.6022 5.85924L29.266 5.99142L28.9507 6.1727L28.6523 6.3502L28.388 6.58435L28.1349 6.82605L27.9008 7.11118L27.7176 7.39632L27.5628 7.73055L27.4268 8.07988L27.3286 8.43866L27.2625 8.84464L27.2569 9.2544L27.289 9.87188L27.4268 10.4365L27.6081 10.9274L27.8706 11.3844L28.2067 11.7809L28.607 12.1605L29.0508 12.4872L29.5946 12.8233L30.5897 13.3936L31.0259 13.6919L31.2091 13.8505L31.3526 14.0318L31.4716 14.232L31.5603 14.4529L31.617 14.6852L31.6434 14.9193L31.5962 15.229L31.498 15.4971L31.3337 15.7048L31.1355 15.888L30.8805 16.0126L30.6105 16.1108L30.3178 16.1769L30.01 16.1807L29.5304 16.1335L29.0413 16.0315L28.5881 15.888L28.2237 15.735L27.999 15.6595L27.7724 15.6369L27.6006 15.669L27.4457 15.7577L27.289 15.888L27.1832 16.0617L27.0756 16.2864L26.9925 16.5338L26.9113 16.8133V17.0512L26.9472 17.24L27.0378 17.4043L27.1474 17.5535L27.3098 17.6857L27.6931 17.8934L28.1538 18.086L28.7335 18.237L29.3661 18.356L30.01 18.3994L30.4179 18.3749L30.8182 18.3164L31.2091 18.237L31.5603 18.12L31.9153 17.9727L32.2514 17.7933L32.5573 17.5931L32.8198 17.3552L33.1125 17.1022L33.3202 16.8133L33.5109 16.4809L33.7111 16.1637L33.8187 15.7917L33.9282 15.3914L33.9811 14.9929L34 14.5624Z" fill="black"/><path d="M25.8142 14.0998V6.64477L25.7765 6.42573L25.6953 6.22746L25.5763 6.05751L25.4347 5.93666L25.2232 5.8328L25.0344 5.7535L24.8172 5.69685H24.364L24.1544 5.7535L23.9561 5.8328L23.7749 5.93666L23.6087 6.05751L23.5029 6.22746L23.4199 6.42573L23.384 6.64477V13.8014L23.3745 14.3264L23.3028 14.772L23.1933 15.2007L23.0309 15.5406L22.7948 15.8144L22.5324 16.0126L22.1868 16.1335L21.7959 16.1807L21.3805 16.1335L21.0444 16.0315L20.7536 15.8276L20.5459 15.5594L20.357 15.2158L20.2381 14.7909L20.1399 14.3264L20.1191 13.8014V6.64477L20.0832 6.42573L20.0209 6.22746L19.8944 6.05751L19.7131 5.93666L19.5319 5.8328L19.3241 5.7535L19.1051 5.69685H18.6236L18.3894 5.7535L18.1817 5.8328L17.991 5.93666L17.8362 6.05751L17.7266 6.22746L17.6643 6.42573L17.619 6.64477V14.0677L17.6266 14.6172L17.6908 15.1006L17.772 15.5764L17.8909 15.99L18.0533 16.3903L18.2346 16.7415L18.4423 17.0587L18.7067 17.3363L18.9672 17.5931L19.2769 17.8084L19.6206 17.9935L20.0039 18.1389L20.4005 18.237L20.8197 18.3428L21.2993 18.3749L21.7959 18.3994L22.2227 18.3749L22.6589 18.3428L23.0479 18.237L23.4199 18.1389L23.7824 17.9727L24.1091 17.7933L24.4169 17.5931L24.7077 17.3363L24.9418 17.0512L25.1798 16.7415L25.3516 16.3903L25.514 15.99L25.6518 15.5764L25.7406 15.1308L25.7953 14.6304L25.8142 14.0998Z" fill="black"/><path fill-rule="evenodd" clip-rule="evenodd" d="M16.097 14.6493L16.0857 14.2924L16.0328 13.9412L15.9497 13.6126L15.8591 13.3482L15.7326 13.0669L15.5985 12.8403L15.2964 12.4362L14.9338 12.1473L14.5713 11.9037L14.2389 11.7677L13.9009 11.6884V11.6355L14.2389 11.4637L14.5807 11.2163L14.9338 10.9482L15.2152 10.614L15.4984 10.2571L15.6967 9.82278L15.8327 9.34127L15.8591 8.8031L15.8421 8.42544L15.7855 8.07988L15.7062 7.75132L15.5608 7.44352L15.3965 7.17161L15.2152 6.92047L15.0056 6.69576L14.7714 6.49182L14.5014 6.31621L14.2389 6.15193L13.9387 6.02352L13.629 5.914L12.9964 5.79315L12.3337 5.73084H8.9687L8.76098 5.7535L8.56271 5.8328L8.39844 5.914L8.24548 6.05751L8.13596 6.19913L8.05477 6.38985L8.01889 6.57302L8 6.77507V17.3231L8.01889 17.5365L8.10008 17.7178L8.21716 17.8877L8.38144 18.0256L8.56271 18.12L8.77043 18.1879L8.98003 18.237L9.20662 18.2673H12.3884L13.0852 18.2068L13.4383 18.1389L13.7744 18.0577L14.1011 17.9387L14.3994 17.7933L14.6903 17.6271L14.964 17.4043L15.1888 17.1928L15.4323 16.9247L15.6401 16.6301L15.7855 16.3015L15.9233 15.939L16.0045 15.5406L16.0857 15.1308L16.097 14.6493ZM13.3571 9.39414L13.3193 9.79068L13.2042 10.1306L12.9964 10.4006L12.7491 10.614L12.4413 10.7707L12.0995 10.8765L11.7351 10.9482L11.3631 10.9614H10.4208V7.8023H11.3631L11.7521 7.82307L12.1146 7.88161L12.4507 7.98169L12.7604 8.14975L13.0134 8.35368L13.2042 8.62371L13.3193 8.96549L13.3571 9.39414ZM13.7197 14.3811L13.6838 14.8098L13.6026 15.1742L13.4383 15.4971L13.2136 15.735L12.9039 15.939L12.5414 16.0863L12.1146 16.1637L11.6255 16.1807H10.5473V12.6722H11.6255L11.9692 12.6854L12.3337 12.7459L12.6792 12.8535L13.0134 12.9989L13.2835 13.2274L13.4119 13.3539L13.5271 13.522L13.6101 13.7013L13.6649 13.9128L13.6932 14.1413L13.7197 14.3811Z" fill="black"/><path d="M49.9802 15.5806V8.6002C49.9802 8.2001 49.7605 7.78008 49.1005 7.78008C48.6005 7.78008 48.4002 8 48.1801 8.44014L46.0202 12.9405H45.9997L43.8206 8.44014C43.6002 8 43.3998 7.78008 42.9 7.78008C42.2397 7.78008 42.02 8.2001 42.02 8.6002V15.5806C42.02 15.9605 42.3202 16.1808 42.6801 16.1808C43.0006 16.1808 43.3599 15.9605 43.3599 15.5806V10.3805H43.3801L45.3602 14.4203C45.4999 14.7002 45.6799 14.8603 45.9997 14.8603C46.32 14.8603 46.4999 14.7002 46.6398 14.4203L48.6206 10.3805H48.6403V15.5806C48.6403 15.9605 48.9998 16.1808 49.3205 16.1808C49.6799 16.1808 49.9802 15.9605 49.9802 15.5806Z" fill="black"/><path fill-rule="evenodd" clip-rule="evenodd" d="M54 12.0407C54 7.6002 50.2802 4 46.0202 4C41.6003 4 38 7.6002 38 12.0407C38 16.4406 41.6003 20.0002 46.0202 20.0002C50.4401 20.0002 54 16.4606 54 12.0407ZM52.9001 12.0407C52.9001 15.8007 49.8006 18.9405 46.0202 18.9405C42.22 18.9405 39.0998 15.8404 39.0998 12.0407C39.0998 8.21973 42.22 5.06055 46.0202 5.06055C49.8006 5.06055 52.9001 8.24063 52.9001 12.0407Z" fill="black"/><script xmlns=""/></svg>