<svg xmlns="http://www.w3.org/2000/svg" xmlns:xlink="http://www.w3.org/1999/xlink" version="1.2" baseProfile="tiny" id="Calque_1" x="0px" y="0px" viewBox="0 0 120 77" xml:space="preserve"> <g> <rect fill-rule="evenodd" fill="#A0006E" width="120" height="77"/> <rect fill-rule="evenodd" fill="#0A0082" width="120" height="68.75"/> </g> <path fill-rule="evenodd" fill="#FFFFFF" d="M34.3408012,38.7080002V8.5165997h-6.1543007v20.4019012h-0.0848999 c-0.0889015-0.3726006-0.3711014-0.9747009-0.8448009-1.8072014c-0.4745998-0.8319988-1.1201-1.8407993-1.9365005-3.0258999 l-10.697299-15.5688H8.5127001v30.1914005h6.1962996V19.0814991h0.0859003 c0.1239996,0.3604012,0.3993998,0.9541016,0.8233004,1.7803001c0.4237995,0.8257008,1.0194988,1.7720013,1.7861004,2.8383999 l10.8681984,15.0078011H34.3408012z"/> <g> <path fill="#FFFFFF" d="M60.5586014,63.0605011c-12.9844017,0-15.5440025-12.8007011-15.5440025-22.7382011 c0-9.9356003,2.8038025-22.7369003,15.7881012-22.7369003c12.9844017,0,15.545002,12.8013,15.545002,22.7369003 C76.347702,50.2598,73.5429993,63.0605011,60.5586014,63.0605011z M60.6806984,24.8393993 c-6.2178001,0-6.4003983,11.0947018-6.4003983,15.4829006c0,4.3280983,0.3046989,15.544899,6.4003983,15.544899 s6.3398018-11.2773972,6.3398018-15.544899C67.0205002,35.8120003,66.8378983,24.8393993,60.6806984,24.8393993z"/> <path fill="#FFFFFF" d="M91.3516006,61.9023018V28.0702991c-2.6211014,2.0723-6.7666016,4.0840015-9.631897,5.3643017 l-2.9258041-6.5834999c4.5108032-1.8897018,9.9365997-4.7549,14.2032013-7.9859009h7.4979935v43.0371017H91.3516006z"/> </g> <g> </g> </svg>