<?xml version="1.0" encoding="utf-8"?> <!-- Generator: Adobe Illustrator 21.0.2, SVG Export Plug-In . SVG Version: 6.00 Build 0)  --> <svg version="1.2" baseProfile="tiny" id="Calque_1" xmlns="http://www.w3.org/2000/svg" xmlns:xlink="http://www.w3.org/1999/xlink" x="0px" y="0px" viewBox="0 0 120 77" overflow="scroll" xml:space="preserve"> <g> <rect fill-rule="evenodd" fill="#FF1400" width="120" height="77"/> <rect fill-rule="evenodd" fill="#0A0082" width="120" height="68.75"/> </g> <path fill-rule="evenodd" fill="#FFFFFF" d="M34.3408012,38.7080002V8.5165997h-6.1543007v20.4019012h-0.0848999 c-0.0889015-0.3726006-0.3711014-0.9747009-0.8448009-1.8072014c-0.4745998-0.8319988-1.1201-1.8407993-1.9365005-3.0258999 l-10.697299-15.5688H8.5127001v30.1914005h6.1962996V19.0814991h0.0859003 c0.1239996,0.3604012,0.3993998,0.9541016,0.8233004,1.7803001c0.4237995,0.8257008,1.0194988,1.7720013,1.7861004,2.8383999 l10.8681984,15.0078011H34.3408012z"/> <g> <path fill="#FFFFFF" d="M60.8642998,63.0605011c-12.9843979,0-15.5439987-12.8007011-15.5439987-22.7382011 c0-9.9356003,2.8036995-22.7369003,15.7880974-22.7369003s15.544899,12.8013,15.544899,22.7369003 C76.6532974,50.2598,73.8486023,63.0605011,60.8642998,63.0605011z M60.9863014,24.8393993 c-6.217701,0-6.4004021,11.0947018-6.4004021,15.4829006c0,4.3280983,0.3046989,15.544899,6.4004021,15.544899 s6.339901-11.2773972,6.339901-15.544899C67.3262024,35.8120003,67.1436005,24.8393993,60.9863014,24.8393993z"/> <path fill="#FFFFFF" d="M79.4042969,61.9023018v-5.6689034c1.0967026-4.9989967,6.0342026-9.5712967,11.7646027-14.5692978 c2.865303-2.5,5.9737015-5.6084023,5.9737015-9.7535c0-3.7187004-2.4384995-6.8276005-7.1319046-6.8276005 c-3.7792969,0-6.4002991,2.7432003-7.4375,3.9013996L78.0625,23.0107002 c4.1455002-3.5965996,7.9862976-5.3036995,13.777298-5.3036995c7.5586014,0,14.6904984,4.3892002,14.6904984,13.1674995 c0,7.3759995-4.6933975,10.8501015-9.875,15.5443993c-2.194397,2.0117989-6.5224991,5.7910995-7.0712967,8.2901001h17.7391968 v7.1933022H79.4042969z"/> </g> <g> </g> </svg>