<svg xmlns="http://www.w3.org/2000/svg" xmlns:xlink="http://www.w3.org/1999/xlink" version="1.2" baseProfile="tiny" id="Calque_1" x="0px" y="0px" viewBox="0 0 120 77"  xml:space="preserve"> <g> <rect fill-rule="evenodd" fill="#FF5A00" width="120" height="77"/> <rect fill-rule="evenodd" fill="#0A0082" width="120" height="68.75"/> </g> <path fill-rule="evenodd" fill="#FFFFFF" d="M34.3408012,38.7080002V8.5165997h-6.1543007v20.4019012h-0.0848999 c-0.0889015-0.3726006-0.3711014-0.9747009-0.8448009-1.8072014c-0.4745998-0.8319988-1.1201-1.8407993-1.9365005-3.0258999 l-10.697299-15.5688H8.5127001v30.1914005h6.1962996V19.0814991h0.0859003 c0.1239996,0.3604012,0.3993998,0.9541016,0.8233004,1.7803001c0.4237995,0.8257008,1.0194988,1.7720013,1.7861004,2.8383999 l10.8681984,15.0078011H34.3408012z"/> <g> <path fill="#FFFFFF" d="M62.9628983,61.9023018V28.0702991c-2.6210976,2.0723-6.7665977,4.0840015-9.6317978,5.3643017 l-2.9258003-6.5834999c4.5107002-1.8897018,9.9365005-4.7549,14.2030983-7.9859009h7.4980011v43.0371017H62.9628983z"/> <path fill="#FFFFFF" d="M92.0547028,61.9023018V28.0702991c-2.6211014,2.0723-6.7666016,4.0840015-9.6318054,5.3643017 l-2.9257965-6.5834999c4.5106964-1.8897018,9.9365005-4.7549,14.2031021-7.9859009h7.4979935v43.0371017H92.0547028z"/> </g> <g> </g> </svg>