<svg xmlns="http://www.w3.org/2000/svg" xmlns:xlink="http://www.w3.org/1999/xlink" version="1.2" baseProfile="tiny" id="Calque_1" x="0px" y="0px" viewBox="0 0 120 77" xml:space="preserve"> <rect fill-rule="evenodd" fill="#FF1400" width="120" height="77"/> <rect fill-rule="evenodd" fill="#0A0082" width="120" height="68.75"/> <path fill-rule="evenodd" fill="#FFFFFF" d="M34.3408012,38.7080002V8.5160999h-6.1543007v20.4018993h-0.0848999 c-0.0889015-0.3725986-0.3711014-0.9745998-0.8448009-1.8071995c-0.4745998-0.8320007-1.1201-1.8407993-1.9365005-3.0258007 L14.6230001,8.5160999H8.5127001v30.1919003h6.1962996V19.0811005h0.0859003 c0.1239996,0.3603001,0.3993998,0.9540997,0.8233004,1.7801991c0.4237995,0.8257008,1.0194988,1.7720013,1.7861004,2.8383999 l10.8681984,15.0083008H34.3408012z"/> <g> <g> <path fill="#FFFFFF" d="M52.4213982,62.017601V34.9091988c-2.1005974,1.6611023-5.4218979,3.2723999-7.7172966,4.297802 l-2.3446999-5.2754021c3.6141968-1.5135994,7.9613991-3.8089981,11.3802986-6.3978977h6.0079002v34.483902H52.4213982z"/> <path fill="#FFFFFF" d="M74.3018036,62.8476982c-4.9327011,0-7.6690063-1.2206993-9.9639053-2.5888977l2.6865005-5.3241997 c1.4657974,1.0262985,3.8583984,2.2469978,6.7891006,2.2469978c4.0048981,0,6.4961014-2.3446999,6.4961014-5.2753983 c0-3.9560013-3.0282974-5.3241997-6.5449982-5.3241997h-3.5653992v-5.7148018h3.614296 c3.3701019,0,5.4707031-1.7577972,5.4707031-4.3945007c0-2.1992989-1.6612015-4.2011986-5.2754059-4.2011986 c-3.1747971,0-5.2743988,1.5136986-6.3983994,2.4911995L65.1191025,29.6826 c2.9306946-1.9535999,6.1054993-3.0771008,10.4532013-3.0771008c7.0331955,0,11.0380936,4.2011013,11.0380936,8.7919998 c0,3.5653992-1.9052963,6.3983994-5.5673981,7.7666016v0.097599c3.8086014,0.732399,6.6913986,3.6621017,6.6913986,8.4981003 C87.7343979,57.8163986,82.3125,62.8476982,74.3018036,62.8476982z"/> <path fill="#FFFFFF" d="M103.7538986,62.9453011c-10.4042969,0-12.455101-10.2578011-12.455101-18.2187004 c0-7.9610023,2.2461014-18.2188015,12.6503983-18.2188015c10.4024048,0,12.455101,10.2577991,12.455101,18.2188015 C116.4042969,52.6875,114.1562958,62.9453011,103.7538986,62.9453011z M103.8516006,32.3203011 c-4.9824982,0-5.1288986,8.889698-5.1288986,12.4062996c0,3.467701,0.2440948,12.454998,5.1288986,12.454998 c4.8837967,0,5.0790939-9.0360985,5.0790939-12.454998C108.9306946,41.1123009,108.7841949,32.3203011,103.8516006,32.3203011z"/> </g> </g> <g> </g> </svg>