<svg xmlns="http://www.w3.org/2000/svg" xmlns:xlink="http://www.w3.org/1999/xlink" version="1.2" baseProfile="tiny" id="Calque_1" x="0px" y="0px" viewBox="0 0 120 77"  xml:space="preserve"> <rect fill-rule="evenodd" fill="#009641" width="120" height="77"/> <rect fill-rule="evenodd" fill="#0A0082" width="120" height="68.75"/> <path fill-rule="evenodd" fill="#FFFFFF" d="M34.3408012,38.7080002V8.5160999h-6.1543007v20.4018993h-0.0848999 c-0.0889015-0.3725986-0.3711014-0.9745998-0.8448009-1.8071995c-0.4745998-0.8320007-1.1201-1.8407993-1.9365005-3.0258007 L14.6230001,8.5160999H8.5127001v30.1919003h6.1962996V19.0811005h0.0859003 c0.1239996,0.3603001,0.3993998,0.9540997,0.8233004,1.7801991c0.4237995,0.8257008,1.0194988,1.7720013,1.7861004,2.8383999 l10.8681984,15.0083008H34.3408012z"/> <g> <g> <path fill="#FFFFFF" d="M52.9101982,62.017601V34.9091988c-2.1005974,1.6611023-5.4218979,3.2723999-7.7172966,4.297802 l-2.3448029-5.2754021c3.6142998-1.5135994,7.9615021-3.8089981,11.3804016-6.3978977h6.0078011v34.483902H52.9101982z"/> <path fill="#FFFFFF" d="M74.7910004,62.8476982c-4.9336014,0-7.6688995-1.2206993-9.964798-2.5888977l2.6875-5.3241997 c1.464798,1.0262985,3.857399,2.2469978,6.7889938,2.2469978c4.0049057,0,6.4961014-2.3446999,6.4961014-5.2753983 c0-3.9560013-3.0292969-5.3241997-6.544899-5.3241997H70.6875v-5.7148018h3.6151962 c3.3692017,0,5.4707031-1.7577972,5.4707031-4.3945007c0-2.1992989-1.6621017-4.2011986-5.2753983-4.2011986 c-3.1756973,0-5.2752991,1.5136986-6.3983994,2.4911995L65.607399,29.6826 c2.9317017-1.9535999,6.1054993-3.0771008,10.4531021-3.0771008c7.0333023,0,11.0391006,4.2011013,11.0391006,8.7919998 c0,3.5653992-1.905304,6.3983994-5.5682983,7.7666016v0.097599c3.809494,0.732399,6.6913986,3.6621017,6.6913986,8.4981003 C88.222702,57.8163986,82.8007965,62.8476982,74.7910004,62.8476982z"/> <path fill="#FFFFFF" d="M101.9960938,62.8476982c-4.0058975,0-7.0829926-0.8789978-9.7206955-2.4912987l2.7842026-5.3719978 c1.9051971,1.3182983,3.8583984,2.197197,6.544899,2.197197s6.0565948-1.6112976,6.0565948-5.6660004 c0-2.4902-1.6610947-5.910099-8.0106964-6.0077972c-1.9530945,0-4.2490005-0.0488014-5.3721008-0.0488014l1.3672028-17.9252987 h18.1210938v5.7632008h-12.4061966l-0.4882965,6.544899c0.1952972,0,0.634697,0.0487976,0.9764938,0.0487976 c9.4268036,0.4395027,13.2373047,5.7637024,13.2373047,10.9414024 C115.0858994,57.4258003,109.8593979,62.8476982,101.9960938,62.8476982z"/> </g> </g> <g> </g> </svg>