<svg xmlns="http://www.w3.org/2000/svg" baseProfile="tiny" version="1.2" viewBox="0 0 120 77">  <!-- Generator: Adobe Illustrator 28.6.0, SVG Export Plug-In . SVG Version: 1.2.0 Build 709)  -->  <g>    <g id="Calque_1">      <rect width="120" height="77" fill="#009641"/>      <rect width="120" height="68.75" fill="#0a0082"/>      <path d="M34.3408,38.708V8.5161h-6.1543v20.4019h-.0849c-.0889-.3726-.3711-.9746-.8448-1.8072-.4746-.832-1.1201-1.8408-1.9365-3.0258l-10.6973-15.5689h-6.1103v30.1919h6.1963v-19.6269h.0859c.124.3603.3994.9541.8233,1.7802.4238.8257,1.0195,1.772,1.7861,2.8384l10.8682,15.0083h6.0683Z" fill="#fff" fill-rule="evenodd"/>      <g>        <path d="M53.0439453,62.0175781v-27.1923828c-2.1074219,1.6650391-5.4384766,3.2822266-7.7421875,4.3115234l-2.3515625-5.2919922c3.6259766-1.5185547,7.9863281-3.8212891,11.4160156-6.4179688h6.0263672v34.5908203h-7.3486328Z" fill="#fff"/>        <path d="M75.1101593,62.8505859c-4.9482422,0-7.6923828-1.2246094-9.9951172-2.5966797l2.6953125-5.3408203c1.4697266,1.0292969,3.8701172,2.2539062,6.8105469,2.2539062,4.0175781,0,6.5166016-2.3515625,6.5166016-5.2919922,0-3.9677734-3.0380859-5.3398438-6.5664062-5.3398438h-3.5761719v-5.7324219h3.6259766c3.3808594,0,5.4873047-1.7646484,5.4873047-4.4101562,0-2.2050781-1.6660156-4.2138672-5.2919922-4.2138672-3.1845703,0-5.2910156,1.5195312-6.4179688,2.4990234l-2.4990234-5.0957031c2.9394531-1.9599609,6.125-3.0869141,10.4853516-3.0869141,7.0556641,0,11.0732422,4.2138672,11.0732422,8.8193359,0,3.5771484-1.9111328,6.4189453-5.5859375,7.7910156v.0976562c3.8222656.7353516,6.7128906,3.6748047,6.7128906,8.5253906,0,6.0751953-5.4384766,11.1220703-13.4746094,11.1220703Z" fill="#fff"/>        <path d="M99.2509766,62.9482422c-1.9599609,0-3.7236328-.2451172-5.1933594-.5878906l1.0771484-5.8789062c.9316406.3916016,2.7441406.8320312,4.7529297.8320312,4.8505859,0,8.3779297-3.8701172,8.8681641-10.8271484-1.1757812,1.0283203-3.4296875,2.3515625-7.1533203,2.3515625-5.7324219,0-10.3378906-3.7724609-10.3378906-10.2402344,0-6.9082031,4.6054688-12.0039062,11.8564453-12.0039062,9.4570312,0,12.8369141,6.5654297,12.8369141,15.7275391,0,12.0039062-5.6337891,20.6269531-16.7070312,20.6269531ZM103.4150391,32.0322266c-3.4296875,0-5.1933594,2.7929688-5.1933594,5.78125,0,3.2333984,2.15625,5.5859375,5.5859375,5.5859375,2.2050781,0,3.96875-.8330078,4.6542969-1.9111328.3916016-.5878906.3916016-1.9599609.3916016-2.9892578,0-3.2822266-1.9101562-6.4667969-5.4384766-6.4667969Z" fill="#fff"/>      </g>    </g>  </g></svg>