<svg xmlns="http://www.w3.org/2000/svg" xmlns:xlink="http://www.w3.org/1999/xlink" version="1.2" baseProfile="tiny" id="Calque_1" x="0px" y="0px" viewBox="0 0 120 77" overflow="scroll" xml:space="preserve"> <rect fill-rule="evenodd" fill="#009641" width="120" height="77"/> <rect fill-rule="evenodd" fill="#0A0082" width="120" height="68.75"/> <path fill-rule="evenodd" fill="#FFFFFF" d="M34.3408012,38.7080002V8.5160999h-6.1543007v20.4018993h-0.0848999 c-0.0889015-0.3725986-0.3711014-0.9745998-0.8448009-1.8071995c-0.4745998-0.8320007-1.1201-1.8407993-1.9365005-3.0258007 L14.6230001,8.5160999H8.5127001v30.1919003h6.1962996V19.0811005h0.0859003 c0.1239996,0.3603001,0.3993998,0.9540997,0.8233004,1.7801991c0.4237995,0.8257008,1.0194988,1.7720013,1.7861004,2.8383999 l10.8681984,15.0083008H34.3408012z"/> <g> <g> <path fill="#FFFFFF" d="M51.0932999,62.017601V34.9091988c-2.1006012,1.6611023-5.4219017,3.2723999-7.7173004,4.297802 l-2.3446999-5.2754021c3.6142006-1.5135994,7.9613991-3.8089981,11.3802986-6.3978977h6.0078011v34.483902H51.0932999z"/> <path fill="#FFFFFF" d="M85.3906021,54.8368988v7.1807022h-6.8387985v-7.1807022H63.0195007v-6.3983994L76.402298,27.5337009 h8.9883041v21.9311008h4.0527954v5.372097H85.3906021z M78.5518036,33.5898018h-0.097702 c-0.1464996,0.5859985-1.1230011,2.6875-2.4912033,4.8359985l-7.0331955,11.0390015h9.6221008V33.5898018z"/> <path fill="#FFFFFF" d="M113.0830002,54.8368988v7.1807022h-6.8389053v-7.1807022H90.7128983v-6.3983994l13.3827972-20.9047985 h8.9873047v21.9311008h4.0536957v5.372097H113.0830002z M106.2440948,33.5898018h-0.0975952 c-0.1464996,0.5859985-1.1231003,2.6875-2.4902039,4.8359985l-7.0332947,11.0390015h9.6210938V33.5898018z"/> </g> </g> <g> </g> </svg>