<svg xmlns="http://www.w3.org/2000/svg" xmlns:xlink="http://www.w3.org/1999/xlink" version="1.2" baseProfile="tiny" id="Calque_1" x="0px" y="0px" viewBox="0 0 120 77"  xml:space="preserve"> <g> <rect fill-rule="evenodd" fill="#82DC73" width="120" height="77"/> <rect fill-rule="evenodd" fill="#0A0082" width="120" height="68.75"/> </g> <path fill-rule="evenodd" fill="#FFFFFF" d="M34.3408012,38.7080002V8.5165997h-6.1543007v20.4019012h-0.0848999 c-0.0889015-0.3726006-0.3711014-0.9747009-0.8448009-1.8072014c-0.4745998-0.8319988-1.1201-1.8407993-1.9365005-3.0258999 l-10.697299-15.5688H8.5127001v30.1914005h6.1962996V19.0814991h0.0859003 c0.1239996,0.3604012,0.3993998,0.9541016,0.8233004,1.7803001c0.4237995,0.8257008,1.0194988,1.7720013,1.7861004,2.8383999 l10.8681984,15.0078011H34.3408012z"/> <g> <path fill="#FFFFFF" d="M62.1405983,61.9023018V28.0702991c-2.6210976,2.0723-6.7665977,4.0840015-9.6317978,5.3643017 l-2.9258003-6.5834999c4.5107994-1.8897018,9.9365005-4.7549,14.2030983-7.9859009h7.4981041v43.0371017H62.1405983z"/> <path fill="#FFFFFF" d="M105.8936005,52.9413986v8.9609032h-8.5342026v-8.9609032H77.9746017V44.955101L94.6768036,18.8652 h11.2167969v27.3711014h5.059494v6.7050972H105.8936005z M97.3593979,26.4242992h-0.1221008 c-0.1825943,0.7315006-1.402298,3.3526001-3.1093979,6.0347004l-8.777298,13.7773018h12.0087967V26.4242992z"/> </g> <g> </g> </svg>