<?xml version="1.0" encoding="utf-8"?> <!-- Generator: Adobe Illustrator 21.0.2, SVG Export Plug-In . SVG Version: 6.00 Build 0)  --> <svg version="1.2" baseProfile="tiny" id="Calque_1" xmlns="http://www.w3.org/2000/svg" xmlns:xlink="http://www.w3.org/1999/xlink" x="0px" y="0px" viewBox="0 0 120 77" overflow="scroll" xml:space="preserve"> <rect fill-rule="evenodd" fill="#3C91DC" width="120" height="77"/> <rect fill-rule="evenodd" fill="#0A0082" width="120" height="68.75"/> <path fill-rule="evenodd" fill="#FFFFFF" d="M34.3408012,38.7080002V8.5160999h-6.1543007v20.4018993h-0.0848999 c-0.0889015-0.3725986-0.3711014-0.9745998-0.8448009-1.8071995c-0.4745998-0.8320007-1.1201-1.8407993-1.9365005-3.0258007 L14.6230001,8.5160999H8.5127001v30.1919003h6.1962996V19.0811005h0.0859003 c0.1239996,0.3603001,0.3993998,0.9540997,0.8233004,1.7801991c0.4237995,0.8257008,1.0194988,1.7720013,1.7861004,2.8383999 l10.8681984,15.0083008H34.3408012z"/> <g> <g> <path fill="#FFFFFF" d="M51.3373985,62.017601V34.9091988c-2.1005974,1.6611023-5.4218979,3.2723999-7.7173004,4.297802 l-2.3446999-5.2754021c3.6142006-1.5135994,7.9614029-3.8089981,11.3804016-6.3978977h6.0078011v34.483902H51.3373985z"/> <path fill="#FFFFFF" d="M85.6348038,54.8368988v7.1807022h-6.8389053v-7.1807022H63.2636986v-6.3983994l13.3828011-20.9047985 h8.9883041v21.9311008H89.6875v5.372097H85.6348038z M78.7958984,33.5898018h-0.097702 c-0.1463928,0.5859985-1.1229935,2.6875-2.4911957,4.8359985l-7.0332031,11.0390015h9.6221008V33.5898018z"/> <path fill="#FFFFFF" d="M103.7538986,62.9453011c-10.4042969,0-12.455101-10.2578011-12.455101-18.2187004 c0-7.9610023,2.2461014-18.2188015,12.6503983-18.2188015c10.4033051,0,12.455101,10.2577991,12.455101,18.2188015 C116.4042969,52.6875,114.157196,62.9453011,103.7538986,62.9453011z M103.8516006,32.3203011 c-4.9824982,0-5.1288986,8.889698-5.1288986,12.4062996c0,3.467701,0.2440948,12.454998,5.1288986,12.454998 c4.884697,0,5.0799942-9.0360985,5.0799942-12.454998C108.9315948,41.1123009,108.7851944,32.3203011,103.8516006,32.3203011z"/> </g> </g> <g> </g> </svg>