<svg xmlns="http://www.w3.org/2000/svg" xmlns:xlink="http://www.w3.org/1999/xlink" version="1.2" baseProfile="tiny" id="Calque_1" x="0px" y="0px" viewBox="0 0 120 77"  xml:space="preserve"> <rect fill-rule="evenodd" fill="#DC5AB4" width="120" height="77"/> <rect fill-rule="evenodd" fill="#0A0082" width="120" height="68.75"/> <path fill-rule="evenodd" fill="#FFFFFF" d="M34.3408012,38.7080002V8.5160999h-6.1543007v20.4018993h-0.0848999 c-0.0889015-0.3725986-0.3711014-0.9745998-0.8448009-1.8071995c-0.4745998-0.8320007-1.1201-1.8407993-1.9365005-3.0258007 L14.6230001,8.5160999H8.5127001v30.1919003h6.1962996V19.0811005h0.0859003 c0.1239996,0.3603001,0.3993998,0.9540997,0.8233004,1.7801991c0.4237995,0.8257008,1.0194988,1.7720013,1.7861004,2.8383999 l10.8681984,15.0083008H34.3408012z"/> <g> <g> <path fill="#FFFFFF" d="M52.4213982,62.017601V34.9091988c-2.1005974,1.6611023-5.4218979,3.2723999-7.7172966,4.297802 l-2.3446999-5.2754021c3.6141968-1.5135994,7.9613991-3.8089981,11.3802986-6.3978977h6.0079002v34.483902H52.4213982z"/> <path fill="#FFFFFF" d="M85.7313995,54.8368988v7.1807022H78.892601v-7.1807022H63.3613014v-6.3983994l13.3828011-20.9047985 h8.9872971v21.9311008h4.0538025v5.372097H85.7313995z M78.892601,33.5898018h-0.097702 c-0.1464996,0.5859985-1.1230011,2.6875-2.4901962,4.8359985l-7.0332031,11.0390015h9.6211014V33.5898018z"/> <path fill="#FFFFFF" d="M92.6660004,62.017601v-4.5429993c0.8788986-4.0049019,4.8359985-7.6680031,9.426796-11.6738014 c2.2958984-2.0019989,4.7861023-4.4932022,4.7861023-7.8144989c0-2.9794998-1.9531021-5.4707031-5.714798-5.4707031 c-3.0273972,0-5.1279984,2.1983032-5.9589996,3.1260033l-3.6133041-4.7861023c3.3203049-2.8823986,6.3983994-4.25,11.0381012-4.25 c6.0566025,0,11.7714996,3.5171013,11.7714996,10.5507011c0,5.9101982-3.7608032,8.6934013-7.9131012,12.455101 c-1.7577972,1.6113968-5.2266006,4.639698-5.6660004,6.6425972h14.2137985v5.7637024H92.6660004z"/> </g> </g> <g> </g> </svg>