<svg xmlns="http://www.w3.org/2000/svg" xmlns:xlink="http://www.w3.org/1999/xlink" version="1.2" baseProfile="tiny" id="Calque_1" x="0px" y="0px" viewBox="0 0 120 77" xml:space="preserve"> <rect fill-rule="evenodd" fill="#3C91DC" width="120" height="77"/> <rect fill-rule="evenodd" fill="#0A0082" width="120" height="68.75"/> <path fill-rule="evenodd" fill="#FFFFFF" d="M34.3408012,38.7080002V8.5160999h-6.1543007v20.4018993h-0.0848999 c-0.0889015-0.3725986-0.3711014-0.9745998-0.8448009-1.8071995c-0.4745998-0.8320007-1.1201-1.8407993-1.9365005-3.0258007 L14.6230001,8.5160999H8.5127001v30.1919003h6.1962996V19.0811005h0.0859003 c0.1239996,0.3603001,0.3993998,0.9540997,0.8233004,1.7801991c0.4237995,0.8257008,1.0194988,1.7720013,1.7861004,2.8383999 l10.8681984,15.0083008H34.3408012z"/> <g> <g> <path fill="#FFFFFF" d="M51.3373985,62.017601V34.9091988c-2.1005974,1.6611023-5.4218979,3.2723999-7.7173004,4.297802 l-2.3446999-5.2754021c3.6142006-1.5135994,7.9614029-3.8089981,11.3804016-6.3978977h6.0078011v34.483902H51.3373985z"/> <path fill="#FFFFFF" d="M85.6348038,54.8368988v7.1807022h-6.8389053v-7.1807022H63.2636986v-6.3983994l13.3828011-20.9047985 h8.9883041v21.9311008H89.6875v5.372097H85.6348038z M78.7958984,33.5898018h-0.097702 c-0.1463928,0.5859985-1.1229935,2.6875-2.4911957,4.8359985l-7.0332031,11.0390015h9.6221008V33.5898018z"/> <path fill="#FFFFFF" d="M101.6532974,62.8476982c-4.9325943,0-7.6688995-1.2206993-9.9637985-2.5888977l2.6865005-5.3241997 c1.4657974,1.0262985,3.8583984,2.2469978,6.7890015,2.2469978c4.0048981,0,6.4960938-2.3446999,6.4960938-5.2753983 c0-3.9560013-3.0282974-5.3241997-6.544899-5.3241997h-3.5653992v-5.7148018h3.6142044 c3.3701935,0,5.4706955-1.7577972,5.4706955-4.3945007c0-2.1992989-1.6611023-4.2011986-5.2752991-4.2011986 c-3.1748962,0-5.274498,1.5136986-6.3984985,2.4911995L92.4707031,29.6826 c2.9306946-1.9535999,6.1054993-3.0771008,10.4530945-3.0771008c7.0332031,0,11.0381012,4.2011013,11.0381012,8.7919998 c0,3.5653992-1.905304,6.3983994-5.5673981,7.7666016v0.097599c3.8085938,0.732399,6.6913986,3.6621017,6.6913986,8.4981003 C115.0858994,57.8163986,109.6641006,62.8476982,101.6532974,62.8476982z"/> </g> </g> <g> </g> </svg>