<svg xmlns="http://www.w3.org/2000/svg" xmlns:xlink="http://www.w3.org/1999/xlink" version="1.2" baseProfile="tiny" id="Calque_1" x="0px" y="0px" viewBox="0 0 120 77" overflow="scroll" xml:space="preserve"> <rect fill-rule="evenodd" fill="#009641" width="120" height="77"/> <rect fill-rule="evenodd" fill="#0A0082" width="120" height="68.75"/> <path fill-rule="evenodd" fill="#FFFFFF" d="M34.3408012,38.7080002V8.5160999h-6.1543007v20.4018993h-0.0848999 c-0.0889015-0.3725986-0.3711014-0.9745998-0.8448009-1.8071995c-0.4745998-0.8320007-1.1201-1.8407993-1.9365005-3.0258007 L14.6230001,8.5160999H8.5127001v30.1919003h6.1962996V19.0811005h0.0859003 c0.1239996,0.3603001,0.3993998,0.9540997,0.8233004,1.7801991c0.4237995,0.8257008,1.0194988,1.7720013,1.7861004,2.8383999 l10.8681984,15.0083008H34.3408012z"/> <g> <g> <path fill="#FFFFFF" d="M51.0932999,62.017601V34.9091988c-2.1006012,1.6611023-5.4219017,3.2723999-7.7173004,4.297802 l-2.3446999-5.2754021c3.6142006-1.5135994,7.9613991-3.8089981,11.3802986-6.3978977h6.0078011v34.483902H51.0932999z"/> <path fill="#FFFFFF" d="M85.3906021,54.8368988v7.1807022h-6.8387985v-7.1807022H63.0195007v-6.3983994L76.402298,27.5337009 h8.9883041v21.9311008h4.0527954v5.372097H85.3906021z M78.5518036,33.5898018h-0.097702 c-0.1464996,0.5859985-1.1230011,2.6875-2.4912033,4.8359985l-7.0331955,11.0390015h9.6221008V33.5898018z"/> <path fill="#FFFFFF" d="M101.9960938,62.8476982c-4.0058975,0-7.0829926-0.8789978-9.7206955-2.4912987l2.7842026-5.3719978 c1.9051971,1.3182983,3.8583984,2.197197,6.544899,2.197197s6.0565948-1.6112976,6.0565948-5.6660004 c0-2.4902-1.6610947-5.910099-8.0106964-6.0077972c-1.9530945,0-4.2490005-0.0488014-5.3721008-0.0488014l1.3672028-17.9252987 h18.1210938v5.7632008h-12.4061966l-0.4882965,6.544899c0.1952972,0,0.634697,0.0487976,0.9764938,0.0487976 c9.4268036,0.4395027,13.2373047,5.7637024,13.2373047,10.9414024 C115.0858994,57.4258003,109.8593979,62.8476982,101.9960938,62.8476982z"/> </g> </g> <g> </g> </svg>