<svg xmlns="http://www.w3.org/2000/svg" baseProfile="tiny" version="1.2" viewBox="0 0 120 77">  <!-- Generator: Adobe Illustrator 28.6.0, SVG Export Plug-In . SVG Version: 1.2.0 Build 709)  -->  <g>    <g id="Calque_1">      <rect width="120" height="77" fill="#00643c"/>      <rect width="120" height="68.75" fill="#0a0082"/>      <path d="M34.3408,38.708V8.5161h-6.1543v20.4019h-.0849c-.0889-.3726-.3711-.9746-.8448-1.8072-.4746-.832-1.1201-1.8408-1.9365-3.0258l-10.6973-15.5689h-6.1103v30.1919h6.1963v-19.6269h.0859c.124.3603.3994.9541.8233,1.7802.4238.8257,1.0195,1.772,1.7861,2.8384l10.8682,15.0083h6.0683Z" fill="#fff" fill-rule="evenodd"/>      <g>        <path d="M51.2895508,62.0175781v-27.1923828c-2.1074219,1.6650391-5.4389648,3.2822266-7.7416992,4.3115234l-2.3520508-5.2919922c3.6259766-1.5185547,7.9863281-3.8212891,11.4160156-6.4179688h6.0263672v34.5908203h-7.3486328Z" fill="#fff"/>        <path d="M84.9521484,54.8154297v7.2021484h-6.859375v-7.2021484h-15.5810547v-6.4189453l13.4248047-20.9697266h9.015625v21.9990234h4.0664062v5.3896484h-4.0664062ZM78.0927734,33.5019531h-.0986328c-.1464844.5878906-1.1269531,2.6943359-2.4990234,4.8505859l-7.0546875,11.0732422h9.6523438v-15.9238281Z" fill="#fff"/>        <path d="M103.9150391,62.8505859c-9.4560547,0-12.8369141-6.5654297-12.8369141-15.7275391,0-12.0039062,5.6347656-20.6279297,16.7070312-20.6279297,1.9599609,0,3.7246094.2451172,5.1943359.5878906l-1.078125,5.8798828c-.9306641-.3916016-2.7441406-.8330078-4.7529297-.8330078-4.8505859,0-8.3779297,3.8710938-8.8681641,10.828125,1.1757812-1.0283203,3.4296875-2.3515625,7.1533203-2.3515625,5.7324219,0,10.3378906,3.7724609,10.3378906,10.2402344,0,6.9082031-4.6054688,12.0039062-11.8564453,12.0039062ZM103.2285156,46.0449219c-2.2041016,0-3.9677734.8330078-4.6542969,1.9111328-.3916016.5878906-.3916016,1.9599609-.3916016,2.9882812,0,3.2832031,1.9101562,6.4677734,5.4384766,6.4677734,3.4296875,0,5.1933594-2.7929688,5.1933594-5.78125,0-3.234375-2.1552734-5.5859375-5.5859375-5.5859375Z" fill="#fff"/>      </g>    </g>  </g></svg>