<svg xmlns="http://www.w3.org/2000/svg" baseProfile="tiny" version="1.2" viewBox="0 0 120 77">  <!-- Generator: Adobe Illustrator 28.6.0, SVG Export Plug-In . SVG Version: 1.2.0 Build 709)  -->  <g>    <g id="Calque_1">      <rect width="120" height="77" fill="#6e491e"/>      <rect width="120" height="68.75" fill="#0a0082"/>      <path d="M34.3408,38.708V8.5161h-6.1543v20.4019h-.0849c-.0889-.3726-.3711-.9746-.8448-1.8072-.4746-.832-1.1201-1.8408-1.9365-3.0258l-10.6973-15.5689h-6.1103v30.1919h6.1963v-19.6269h.0859c.124.3603.3994.9541.8233,1.7802.4238.8257,1.0195,1.772,1.7861,2.8384l10.8682,15.0083h6.0683Z" fill="#fff" fill-rule="evenodd"/>      <g>        <path d="M51.2895508,62.0175781v-27.1923828c-2.1074219,1.6650391-5.4389648,3.2822266-7.7416992,4.3115234l-2.3520508-5.2919922c3.6259766-1.5185547,7.9863281-3.8212891,11.4160156-6.4179688h6.0263672v34.5908203h-7.3486328Z" fill="#fff"/>        <path d="M84.9521484,54.8154297v7.2021484h-6.859375v-7.2021484h-15.5810547v-6.4189453l13.4248047-20.9697266h9.015625v21.9990234h4.0664062v5.3896484h-4.0664062ZM78.0927734,33.5019531h-.0986328c-.1464844.5878906-1.1269531,2.6943359-2.4990234,4.8505859l-7.0546875,11.0732422h9.6523438v-15.9238281Z" fill="#fff"/>        <path d="M103.0820312,62.0175781h-7.8886719c0-4.5566406,1.2255859-7.4960938,4.2626953-13.1308594l8.4277344-15.6787109h-16.8056641v-5.78125h24.2041016v5.6337891c-7.5947266,13.1806641-12.2001953,23.5185547-12.2001953,28.9570312Z" fill="#fff"/>      </g>    </g>  </g></svg>