<?xml version="1.0" encoding="UTF-8"?><svg id="Calque_1" xmlns="http://www.w3.org/2000/svg" baseProfile="tiny" version="1.2" viewBox="0 0 120 77"><!-- Generator: Adobe Illustrator 29.0.1, SVG Export Plug-In . SVG Version: 2.1.0 Build 192) --><g><rect width="120" height="77" fill="#00b397"/><rect width="120" height="68.75" fill="#0a0082"/></g><g><path d="M30.1494141,53.1513672l-11.6855469-16.1479492c-1.6557617-2.2548828-2.5302734-4.2324219-2.8061523-4.96875h-.0917969v21.1166992h-6.6708984V20.6713867h6.5786133l11.5014648,16.7460938c1.7480469,2.5307617,2.8061523,4.4165039,2.9902344,5.1987305h.0922852v-21.9448242h6.6245117v32.4799805h-6.5327148Z" fill="#fff"/><path d="M50.1572266,53.1513672v-25.5336914c-1.9780273,1.5644531-5.1064453,3.0830078-7.2685547,4.0488281l-2.2084961-4.96875c3.4042969-1.4257812,7.4990234-3.5878906,10.7192383-6.0263672h5.6586914v32.4799805h-6.9008789Z" fill="#fff"/><path d="M83.0947266,46.3886719v6.7626953h-6.4414062v-6.7626953h-14.6289062v-6.0263672l12.6054688-19.690918h8.4648438v20.6567383h3.8183594v5.0605469h-3.8183594ZM76.6533203,26.3754883h-.0917969c-.1376953.5527344-1.0576172,2.5302734-2.3457031,4.5546875l-6.625,10.3979492h9.0625v-14.9526367Z" fill="#fff"/><path d="M101.4472656,54.0253906c-7.2226562,0-11.3173828-4.3242188-11.3173828-9.2470703,0-4.3242188,2.4384766-7.0395508,5.5673828-8.6489258-2.8066406-1.7490234-4.5546875-3.9570312-4.5546875-7.3154297,0-5.3828125,4.8759766-9.109375,10.4433594-9.109375,5.7041016,0,10.4423828,2.8066406,10.4423828,8.3730469,0,3.0371094-1.5634766,5.6132812-4.6005859,7.453125,2.9912109,1.4267578,5.6132812,4.1870117,5.6132812,8.465332,0,6.1650391-4.9228516,10.0292969-11.59375,10.0292969ZM100.8955078,38.3833008c-2.1162109.8286133-4.2324219,3.128418-4.2324219,5.6586914,0,2.6689453,1.7480469,5.1992188,4.8759766,5.1992188,3.0830078,0,4.7851562-2.1621094,4.7851562-4.7392578,0-2.9443359-2.6679688-4.7382812-5.4287109-6.1186523ZM101.6777344,24.3979492c-2.5302734,0-4.140625,1.5634766-4.140625,3.8183594,0,2.6679688,2.6679688,4.3242188,4.7382812,5.1982422,1.7021484-.7822266,3.5429688-2.8984375,3.5429688-4.9228516,0-2.2539062-1.4726562-4.09375-4.140625-4.09375Z" fill="#fff"/></g></svg>