<?xml version="1.0" encoding="utf-8"?> <!-- Generator: Adobe Illustrator 21.0.2, SVG Export Plug-In . SVG Version: 6.00 Build 0)  --> <svg version="1.2" baseProfile="tiny" id="Calque_1" xmlns="http://www.w3.org/2000/svg" xmlns:xlink="http://www.w3.org/1999/xlink" x="0px" y="0px" viewBox="0 0 120 77" overflow="scroll" xml:space="preserve"> <g> <rect fill-rule="evenodd" fill="#FFBE00" width="120" height="77"/> <rect fill-rule="evenodd" fill="#0A0082" width="120" height="68.75"/> </g> <path fill-rule="evenodd" fill="#FFFFFF" d="M34.3408012,38.7080002V8.5165997h-6.1543007v20.4019012h-0.0848999 c-0.0889015-0.3726006-0.3711014-0.9747009-0.8448009-1.8072014c-0.4745998-0.8319988-1.1201-1.8407993-1.9365005-3.0258999 l-10.697299-15.5688H8.5127001v30.1914005h6.1962996V19.0814991h0.0859003 c0.1239996,0.3604012,0.3993998,0.9541016,0.8233004,1.7803001c0.4237995,0.8257008,1.0194988,1.7720013,1.7861004,2.8383999 l10.8681984,15.0078011H34.3408012z"/> <g> <path fill="#FFFFFF" d="M62.8778992,61.9023018V28.0702991c-2.6210976,2.0723-6.7665977,4.0840015-9.6317978,5.3643017 l-2.9258003-6.5834999c4.5107994-1.8897018,9.9365005-4.7549,14.2030983-7.9859009h7.4981003v43.0371017H62.8778992z"/> <path fill="#FFFFFF" d="M92.0557022,62.9384995c-4.9990997,0-8.8389053-1.0966988-12.1309052-3.1083984l3.4746017-6.7061005 c2.3778992,1.6455002,4.8163986,2.7431984,8.1689987,2.7431984c3.3525009,0,7.5586014-2.0116997,7.5586014-7.0702972 c0-3.1094017-2.0722961-7.3770027-9.9971008-7.4981003c-2.4384995,0-5.3036957-0.0615005-6.7061005-0.0615005L84.1308975,18.8652 h22.6162033v7.1933994H91.2637024l-0.610405,8.1685009c0.2442017,0,0.7929993,0.0610008,1.2197037,0.0610008 c11.7646942,0.5482979,16.5195999,7.1923981,16.5195999,13.6553001 C108.392601,56.1719017,101.8700943,62.9384995,92.0557022,62.9384995z"/> </g> <g> </g> </svg>