<svg xmlns="http://www.w3.org/2000/svg" xmlns:xlink="http://www.w3.org/1999/xlink" version="1.2" baseProfile="tiny" id="Calque_1" x="0px" y="0px" viewBox="0 0 120 77"  xml:space="preserve"> <rect fill-rule="evenodd" fill="#FF1400" width="120" height="77"/> <rect fill-rule="evenodd" fill="#0A0082" width="120" height="68.75"/> <path fill-rule="evenodd" fill="#FFFFFF" d="M34.3408012,38.7080002V8.5160999h-6.1543007v20.4018993h-0.0848999 c-0.0889015-0.3725986-0.3711014-0.9745998-0.8448009-1.8071995c-0.4745998-0.8320007-1.1201-1.8407993-1.9365005-3.0258007 L14.6230001,8.5160999H8.5127001v30.1919003h6.1962996V19.0811005h0.0859003 c0.1239996,0.3603001,0.3993998,0.9540997,0.8233004,1.7801991c0.4237995,0.8257008,1.0194988,1.7720013,1.7861004,2.8383999 l10.8681984,15.0083008H34.3408012z"/> <g> <g> <path fill="#FFFFFF" d="M52.4213982,62.017601V34.9091988c-2.1005974,1.6611023-5.4218979,3.2723999-7.7172966,4.297802 l-2.3446999-5.2754021c3.6141968-1.5135994,7.9613991-3.8089981,11.3802986-6.3978977h6.0079002v34.483902H52.4213982z"/> <path fill="#FFFFFF" d="M74.6445007,62.8476982c-4.0057983,0-7.0830002-0.8789978-9.7207031-2.4912987l2.7842026-5.3719978 c1.9052963,1.3182983,3.8583984,2.197197,6.544899,2.197197c2.6865997,0,6.0567017-1.6112976,6.0567017-5.6660004 c0-2.4902-1.6612015-5.910099-8.0108032-6.0077972c-1.9530945,0-4.2490005-0.0488014-5.371994-0.0488014l1.3670959-17.9252987 h18.1211014v5.7632008H74.0087967l-0.4882965,6.544899c0.1952972,0,0.6347961,0.0487976,0.9766006,0.0487976 c9.4266968,0.4395027,13.2372971,5.7637024,13.2372971,10.9414024 C87.7343979,57.4258003,82.5077972,62.8476982,74.6445007,62.8476982z"/> <path fill="#FFFFFF" d="M103.7538986,62.9453011c-10.4042969,0-12.455101-10.2578011-12.455101-18.2187004 c0-7.9610023,2.2461014-18.2188015,12.6503983-18.2188015c10.4024048,0,12.455101,10.2577991,12.455101,18.2188015 C116.4042969,52.6875,114.1562958,62.9453011,103.7538986,62.9453011z M103.8516006,32.3203011 c-4.9824982,0-5.1288986,8.889698-5.1288986,12.4062996c0,3.467701,0.2440948,12.454998,5.1288986,12.454998 c4.8837967,0,5.0790939-9.0360985,5.0790939-12.454998C108.9306946,41.1123009,108.7841949,32.3203011,103.8516006,32.3203011z"/> </g> </g> <g> </g> </svg>