<svg xmlns="http://www.w3.org/2000/svg" xmlns:xlink="http://www.w3.org/1999/xlink" version="1.2" baseProfile="tiny" id="Calque_1" x="0px" y="0px" viewBox="0 0 120 77" xml:space="preserve"> <rect fill-rule="evenodd" fill="#FF1400" width="120" height="77"/> <rect fill-rule="evenodd" fill="#0A0082" width="120" height="68.75"/> <path fill-rule="evenodd" fill="#FFFFFF" d="M34.3408012,38.7080002V8.5160999h-6.1543007v20.4018993h-0.0848999 c-0.0889015-0.3725986-0.3711014-0.9745998-0.8448009-1.8071995c-0.4745998-0.8320007-1.1201-1.8407993-1.9365005-3.0258007 L14.6230001,8.5160999H8.5127001v30.1919003h6.1962996V19.0811005h0.0859003 c0.1239996,0.3603001,0.3993998,0.9540997,0.8233004,1.7801991c0.4237995,0.8257008,1.0194988,1.7720013,1.7861004,2.8383999 l10.8681984,15.0083008H34.3408012z"/> <g> <g> <path fill="#FFFFFF" d="M51.2006989,62.017601V34.9091988c-2.1005974,1.6611023-5.4218979,3.2723999-7.7173004,4.297802 l-2.3446999-5.2754021c3.6142006-1.5135994,7.9614029-3.8089981,11.3803024-6.3978977h6.0079002v34.483902H51.2006989z"/> <path fill="#FFFFFF" d="M74.6445007,62.8476982c-4.0057983,0-7.0820007-0.8789978-9.7207031-2.4912987l2.785202-5.3719978 c1.9042969,1.3182983,3.8583984,2.197197,6.544899,2.197197c2.6856003,0,6.0566025-1.6112976,6.0566025-5.6660004 c0-2.4902-1.6611023-5.910099-8.010704-6.0077972c-1.9540939,0-4.2490005-0.0488014-5.3721008-0.0488014l1.3672028-17.9252987 h18.1211014v5.7632008H74.0098038l-0.4883041,6.544899c0.1952972,0,0.6348038,0.0487976,0.9765015,0.0487976 c9.426796,0.4395027,13.2363968,5.7637024,13.2363968,10.9414024 C87.7343979,57.4258003,82.5077972,62.8476982,74.6445007,62.8476982z"/> <path fill="#FFFFFF" d="M92.6660004,62.017601v-4.5429993c0.8788986-4.0049019,4.8359985-7.6680031,9.4277954-11.6738014 c2.294899-2.0019989,4.7861023-4.4932022,4.7861023-7.8144989c0-2.9794998-1.9541016-5.4707031-5.7148972-5.4707031 c-3.0282974,0-5.1278992,2.1983032-5.9589005,3.1260033l-3.6143036-4.7861023c3.3213043-2.8823986,6.3983994-4.25,11.0391006-4.25 c6.0566025,0,11.7705002,3.5171013,11.7705002,10.5507011c0,5.9101982-3.7608032,8.6934013-7.9131012,12.455101 c-1.7577972,1.6113968-5.2256012,4.639698-5.6651001,6.6425972h14.2138977v5.7637024H92.6660004z"/> </g> </g> <g> </g> </svg>