<svg xmlns="http://www.w3.org/2000/svg" xmlns:xlink="http://www.w3.org/1999/xlink" version="1.2" baseProfile="tiny" id="Calque_1" x="0px" y="0px" viewBox="0 0 120 77" overflow="scroll" xml:space="preserve"> <rect fill-rule="evenodd" fill="#FF1400" width="120" height="77"/> <rect fill-rule="evenodd" fill="#0A0082" width="120" height="68.75"/> <path fill-rule="evenodd" fill="#FFFFFF" d="M34.3408012,38.7080002V8.5160999h-6.1543007v20.4018993h-0.0848999 c-0.0889015-0.3725986-0.3711014-0.9745998-0.8448009-1.8071995c-0.4745998-0.8320007-1.1201-1.8407993-1.9365005-3.0258007 L14.6230001,8.5160999H8.5127001v30.1919003h6.1962996V19.0811005h0.0859003 c0.1239996,0.3603001,0.3993998,0.9540997,0.8233004,1.7801991c0.4237995,0.8257008,1.0194988,1.7720013,1.7861004,2.8383999 l10.8681984,15.0083008H34.3408012z"/> <g> <g> <path fill="#FFFFFF" d="M51.2006989,62.017601V34.9091988c-2.1005974,1.6611023-5.4218979,3.2723999-7.7173004,4.297802 l-2.3446999-5.2754021c3.6142006-1.5135994,7.9614029-3.8089981,11.3803024-6.3978977h6.0079002v34.483902H51.2006989z"/> <path fill="#FFFFFF" d="M74.6445007,62.8476982c-4.0057983,0-7.0820007-0.8789978-9.7207031-2.4912987l2.785202-5.3719978 c1.9042969,1.3182983,3.8583984,2.197197,6.544899,2.197197c2.6856003,0,6.0566025-1.6112976,6.0566025-5.6660004 c0-2.4902-1.6611023-5.910099-8.010704-6.0077972c-1.9540939,0-4.2490005-0.0488014-5.3721008-0.0488014l1.3672028-17.9252987 h18.1211014v5.7632008H74.0098038l-0.4883041,6.544899c0.1952972,0,0.6348038,0.0487976,0.9765015,0.0487976 c9.426796,0.4395027,13.2363968,5.7637024,13.2363968,10.9414024 C87.7343979,57.4258003,82.5077972,62.8476982,74.6445007,62.8476982z"/> <path fill="#FFFFFF" d="M101.6532974,62.8476982c-4.9325943,0-7.6688995-1.2206993-9.9637985-2.5888977l2.6865005-5.3241997 c1.4657974,1.0262985,3.8583984,2.2469978,6.7890015,2.2469978c4.0048981,0,6.4960938-2.3446999,6.4960938-5.2753983 c0-3.9560013-3.0282974-5.3241997-6.544899-5.3241997h-3.5653992v-5.7148018h3.6142044 c3.3701935,0,5.4706955-1.7577972,5.4706955-4.3945007c0-2.1992989-1.6611023-4.2011986-5.2752991-4.2011986 c-3.1748962,0-5.274498,1.5136986-6.3984985,2.4911995L92.4707031,29.6826 c2.9306946-1.9535999,6.1054993-3.0771008,10.4530945-3.0771008c7.0332031,0,11.0381012,4.2011013,11.0381012,8.7919998 c0,3.5653992-1.905304,6.3983994-5.5673981,7.7666016v0.097599c3.8085938,0.732399,6.6913986,3.6621017,6.6913986,8.4981003 C115.0858994,57.8163986,109.6641006,62.8476982,101.6532974,62.8476982z"/> </g> </g> <g> </g> </svg>