<svg xmlns="http://www.w3.org/2000/svg" xmlns:xlink="http://www.w3.org/1999/xlink" version="1.2" baseProfile="tiny" id="Calque_1" x="0px" y="0px" viewBox="0 0 120 77"  xml:space="preserve"> <g> <rect fill-rule="evenodd" fill="#D2D200" width="120" height="77"/> <rect fill-rule="evenodd" fill="#0A0082" width="120" height="68.75"/> </g> <path fill-rule="evenodd" fill="#FFFFFF" d="M34.3408012,38.7080002V8.5165997h-6.1543007v20.4019012h-0.0848999 c-0.0889015-0.3726006-0.3711014-0.9747009-0.8448009-1.8072014c-0.4745998-0.8319988-1.1201-1.8407993-1.9365005-3.0258999 l-10.697299-15.5688H8.5127001v30.1914005h6.1962996V19.0814991h0.0859003 c0.1239996,0.3604012,0.3993998,0.9541016,0.8233004,1.7803001c0.4237995,0.8257008,1.0194988,1.7720013,1.7861004,2.8383999 l10.8681984,15.0078011H34.3408012z"/> <g> <path fill="#FFFFFF" d="M61.7871017,61.9023018V28.0702991c-2.6211014,2.0723-6.7666016,4.0840015-9.6318016,5.3643017 l-2.9258003-6.5834999c4.5107002-1.8897018,9.9365005-4.7549,14.2030983-7.9859009h7.4981041v43.0371017H61.7871017z"/> <path fill="#FFFFFF" d="M95.347702,62.9384995c-11.7657013,0-15.9717026-8.1689987-15.9717026-19.5673981 c0-14.9351006,7.010704-25.6641006,20.7871017-25.6641006c2.4384995,0,4.6327972,0.3046989,6.4618988,0.7314987 l-1.3408051,7.3154011c-1.1581955-0.4878006-3.4141006-1.0366001-5.9130936-1.0366001 c-6.035202,0-10.4237976,4.8158989-11.0342026,13.4721985c1.4628983-1.2803001,4.267601-2.9263,8.9003983-2.9263 c7.1317978,0,12.8622971,4.6938019,12.8622971,12.7406998C110.0995941,56.5996017,104.3690948,62.9384995,95.347702,62.9384995z M94.4941025,42.0293007c-2.743103,0-4.9375,1.0370979-5.7910004,2.3778992 c-0.4873047,0.7314987-0.4873047,2.4384995-0.4873047,3.7178001c0,4.0849991,2.3769989,8.0469017,6.7656021,8.0469017 c4.267601,0,6.461998-3.4746017,6.461998-7.1934013C101.4433975,44.955101,98.7617035,42.0293007,94.4941025,42.0293007z"/> </g> <g> </g> </svg>