<svg xmlns="http://www.w3.org/2000/svg" id="Calque_1" baseProfile="tiny" version="1.2" viewBox="0 0 120 77">  <!-- Generator: Adobe Illustrator 29.0.1, SVG Export Plug-In . SVG Version: 2.1.0 Build 192)  -->  <g>    <rect width="120" height="77" fill="#0aa896"/>    <rect width="120" height="68.75" fill="#0a0082"/>  </g>  <g>    <path d="M33.5761719,53.1513672l-11.6855469-16.1479492c-1.6557617-2.2548828-2.5302734-4.2324219-2.8061523-4.96875h-.0917969v21.1166992h-6.6708984V20.6713867h6.5786133l11.5014648,16.7460938c1.7480469,2.5307617,2.8061523,4.4165039,2.9902344,5.1987305h.0922852v-21.9448242h6.6245117v32.4799805h-6.5327148Z" fill="#fff"/>    <path d="M53.5839844,53.1513672v-25.5336914c-1.9780273,1.5644531-5.1064453,3.0830078-7.2685547,4.0488281l-2.2084961-4.96875c3.4042969-1.4257812,7.4990234-3.5878906,10.7192383-6.0263672h5.6586914v32.4799805h-6.9008789Z" fill="#fff"/>    <path d="M78.3320312,53.9335938c-8.8789062,0-12.0527344-6.1650391-12.0527344-14.7675781,0-11.2719727,5.2900391-19.3686523,15.6875-19.3686523,1.8398438,0,3.4960938.2294922,4.8769531.5517578l-1.0126953,5.5205078c-.8740234-.3681641-2.5761719-.7822266-4.4619141-.7822266-4.5546875,0-7.8671875,3.6347656-8.3271484,10.1669922,1.1035156-.9658203,3.2197266-2.2080078,6.7167969-2.2080078,5.3818359,0,9.7070312,3.5429688,9.7070312,9.6157227,0,6.4863281-4.3251953,11.2714844-11.1337891,11.2714844ZM77.6884766,38.152832c-2.0703125,0-3.7265625.7822266-4.3710938,1.7954102-.3681641.5517578-.3681641,1.8398438-.3681641,2.8056641,0,3.0830078,1.7949219,6.0732422,5.1074219,6.0732422,3.2197266,0,4.8759766-2.6230469,4.8759766-5.4287109,0-3.0361328-2.0244141-5.2456055-5.2441406-5.2456055Z" fill="#fff"/>    <path d="M100.5957031,53.1513672v-25.5336914c-1.9785156,1.5644531-5.1064453,3.0830078-7.2685547,4.0488281l-2.2080078-4.96875c3.4042969-1.4257812,7.4980469-3.5878906,10.71875-6.0263672h5.6582031v32.4799805h-6.9003906Z" fill="#fff"/>  </g></svg>