<svg xmlns="http://www.w3.org/2000/svg" xmlns:xlink="http://www.w3.org/1999/xlink" version="1.2" baseProfile="tiny" id="Calque_1" x="0px" y="0px" viewBox="0 0 120 77" overflow="scroll" xml:space="preserve"> <g> <rect fill-rule="evenodd" fill="#82DC73" width="120" height="77"/> <rect fill-rule="evenodd" fill="#0A0082" width="120" height="68.75"/> </g> <path fill-rule="evenodd" fill="#FFFFFF" d="M34.3408012,38.7080002V8.5165997h-6.1543007v20.4019012h-0.0848999 c-0.0889015-0.3726006-0.3711014-0.9747009-0.8448009-1.8072014c-0.4745998-0.8319988-1.1201-1.8407993-1.9365005-3.0258999 l-10.697299-15.5688H8.5127001v30.1914005h6.1962996V19.0814991h0.0859003 c0.1239996,0.3604012,0.3993998,0.9541016,0.8233004,1.7803001c0.4237995,0.8257008,1.0194988,1.7720013,1.7861004,2.8383999 l10.8681984,15.0078011H34.3408012z"/> <g> <path fill="#FFFFFF" d="M48.0233994,61.9023018v-5.6689034c1.0966988-4.9989967,6.0341988-9.5712967,11.7647018-14.5692978 c2.8652-2.5,5.9736023-5.6084023,5.9736023-9.7535c0-3.7187004-2.4385033-6.8276005-7.1318016-6.8276005 c-3.7793007,0-6.4004021,2.7432003-7.4375,3.9013996l-4.5108032-5.9736996 c4.1455002-3.5965996,7.9864006-5.3036995,13.777401-5.3036995c7.5586014,0,14.6903992,4.3892002,14.6903992,13.1674995 c0,7.3759995-4.6932983,10.8501015-9.875,15.5443993c-2.1942978,2.0117989-6.5223999,5.7910995-7.0713005,8.2901001h17.7392998 v7.1933022H48.0233994z"/> <path fill="#FFFFFF" d="M92.0557022,61.9023018V28.0702991c-2.6211014,2.0723-6.7666016,4.0840015-9.6319046,5.3643017 l-2.9257965-6.5834999c4.5107956-1.8897018,9.9365997-4.7549,14.2032013-7.9859009h7.4979935v43.0371017H92.0557022z"/> </g> <g> </g> </svg>