<svg xmlns="http://www.w3.org/2000/svg" xmlns:xlink="http://www.w3.org/1999/xlink" version="1.2" baseProfile="tiny" id="Calque_1" x="0px" y="0px" viewBox="0 0 120 77" overflow="scroll" xml:space="preserve"> <g> <rect fill-rule="evenodd" fill="#FFBE00" width="120" height="77"/> <rect fill-rule="evenodd" fill="#0A0082" width="120" height="68.75"/> </g> <path fill-rule="evenodd" fill="#FFFFFF" d="M34.3408012,38.7080002V8.5165997h-6.1543007v20.4019012h-0.0848999 c-0.0889015-0.3726006-0.3711014-0.9747009-0.8448009-1.8072014c-0.4745998-0.8319988-1.1201-1.8407993-1.9365005-3.0258999 l-10.697299-15.5688H8.5127001v30.1914005h6.1962996V19.0814991h0.0859003 c0.1239996,0.3604012,0.3993998,0.9541016,0.8233004,1.7803001c0.4237995,0.8257008,1.0194988,1.7720013,1.7861004,2.8383999 l10.8681984,15.0078011H34.3408012z"/> <g> <path fill="#FFFFFF" d="M47.9258003,61.9023018v-5.6689034c1.0966988-4.9989967,6.0341988-9.5712967,11.7645988-14.5692978 c2.8652992-2.5,5.9737015-5.6084023,5.9737015-9.7535c0-3.7187004-2.4384995-6.8276005-7.1319008-6.8276005 c-3.7793007,0-6.4003983,2.7432003-7.4375,3.9013996l-4.5107002-5.9736996 c4.1455002-3.5965996,7.9863014-5.3036995,13.7773018-5.3036995c7.5585976,0,14.6905022,4.3892002,14.6905022,13.1674995 c0,7.3759995-4.6934052,10.8501015-9.875,15.5443993c-2.1944046,2.0117989-6.5225029,5.7910995-7.0713043,8.2901001h17.7392044 v7.1933022H47.9258003z"/> <path fill="#FFFFFF" d="M80.4131012,61.9023018v-5.6689034c1.0967026-4.9989967,6.0342026-9.5712967,11.764595-14.5692978 c2.865303-2.5,5.9737015-5.6084023,5.9737015-9.7535c0-3.7187004-2.4384995-6.8276005-7.131897-6.8276005 c-3.7793045,0-6.4003983,2.7432003-7.4375,3.9013996l-4.510704-5.9736996 c4.1455002-3.5965996,7.9853058-5.3036995,13.7773056-5.3036995c7.5585938,0,14.6904984,4.3892002,14.6904984,13.1674995 c0,7.3759995-4.6934052,10.8501015-9.875,15.5443993c-2.194397,2.0117989-6.5224991,5.7910995-7.0713043,8.2901001h17.7392044 v7.1933022H80.4131012z"/> </g> <g> </g> </svg>