<svg xmlns="http://www.w3.org/2000/svg" xmlns:xlink="http://www.w3.org/1999/xlink" version="1.2" baseProfile="tiny" id="Calque_1" x="0px" y="0px" viewBox="0 0 120 77" overflow="scroll" xml:space="preserve"> <g> <rect fill-rule="evenodd" fill="#FF82B4" width="120" height="77"/> <rect fill-rule="evenodd" fill="#0A0082" width="120" height="68.75"/> </g> <path fill-rule="evenodd" fill="#FFFFFF" d="M34.3408012,38.7080002V8.5165997h-6.1543007v20.4019012h-0.0848999 c-0.0889015-0.3726006-0.3711014-0.9747009-0.8448009-1.8072014c-0.4745998-0.8319988-1.1201-1.8407993-1.9365005-3.0258999 l-10.697299-15.5688H8.5127001v30.1914005h6.1962996V19.0814991h0.0859003 c0.1239996,0.3604012,0.3993998,0.9541016,0.8233004,1.7803001c0.4237995,0.8257008,1.0194988,1.7720013,1.7861004,2.8383999 l10.8681984,15.0078011H34.3408012z"/> <g> <path fill="#FFFFFF" d="M59.3671989,62.9384995c-6.1562996,0-9.5702972-1.5243988-12.4356003-3.2304993l3.3526001-6.6445007 c1.8291016,1.280201,4.8164024,2.8036995,8.4736023,2.8036995c4.9990005,0,8.1073952-2.9258003,8.1073952-6.5839996 c0-4.9375-3.7792969-6.6445007-8.1678963-6.6445007h-4.4501991v-7.1313972h4.5107002 c4.2061005,0,6.827198-2.1948013,6.827198-5.4863014c0-2.7432003-2.0723-5.2427006-6.5830002-5.2427006 c-3.9628983,0-6.5839996,1.8896999-7.9864006,3.1089001l-3.1083984-6.3397999 c3.657299-2.4379997,7.6201019-3.8403988,13.044899-3.8403988c8.7784004,0,13.7764015,5.2426987,13.7764015,10.9727001 c0,4.450201-2.3768997,7.9857998-6.9492035,9.6924v0.1219978c4.7549057,0.9141006,8.3516006,4.5723,8.3516006,10.607502 C76.1308975,56.6601982,69.3643036,62.9384995,59.3671989,62.9384995z"/> <path fill="#FFFFFF" d="M92.0557022,61.9023018V28.0702991c-2.6211014,2.0723-6.7666016,4.0840015-9.6319046,5.3643017 l-2.9257965-6.5834999c4.5107956-1.8897018,9.9365997-4.7549,14.2032013-7.9859009h7.4979935v43.0371017H92.0557022z"/> </g> <g> </g> </svg>