<svg xmlns="http://www.w3.org/2000/svg" xmlns:xlink="http://www.w3.org/1999/xlink" version="1.2" baseProfile="tiny" id="Calque_1" x="0px" y="0px" viewBox="0 0 120 77"  xml:space="preserve"> <g> <rect fill-rule="evenodd" fill="#DC9600" width="120" height="77"/> <rect fill-rule="evenodd" fill="#0A0082" width="120" height="68.75"/> </g> <path fill-rule="evenodd" fill="#FFFFFF" d="M34.3408012,38.7080002V8.5165997h-6.1543007v20.4019012h-0.0848999 c-0.0889015-0.3726006-0.3711014-0.9747009-0.8448009-1.8072014c-0.4745998-0.8319988-1.1201-1.8407993-1.9365005-3.0258999 l-10.697299-15.5688H8.5127001v30.1914005h6.1962996V19.0814991h0.0859003 c0.1239996,0.3604012,0.3993998,0.9541016,0.8233004,1.7803001c0.4237995,0.8257008,1.0194988,1.7720013,1.7861004,2.8383999 l10.8681984,15.0078011H34.3408012z"/> <g> <path fill="#FFFFFF" d="M59.7695007,62.9384995c-6.1562004,0-9.5703011-1.5243988-12.4355011-3.2304993l3.3525009-6.6445007 c1.8290977,1.280201,4.8163986,2.8036995,8.4736977,2.8036995c4.9990044,0,8.1074028-2.9258003,8.1074028-6.5839996 c0-4.9375-3.7793007-6.6445007-8.1679993-6.6445007h-4.4502029v-7.1313972h4.5107994 c4.2060013,0,6.8270988-2.1948013,6.8270988-5.4863014c0-2.7432003-2.0722961-5.2427006-6.5829964-5.2427006 c-3.9629021,0-6.5839996,1.8896999-7.9863014,3.1089001l-3.1083984-6.3397999 c3.6571999-2.4379997,7.6200981-3.8403988,13.044899-3.8403988c8.7782974,0,13.7763977,5.2426987,13.7763977,10.9727001 c0,4.450201-2.3769989,7.9857998-6.949295,9.6924v0.1219978c4.7548981,0.9141006,8.3516006,4.5723,8.3516006,10.607502 C76.5332031,56.6601982,69.7666016,62.9384995,59.7695007,62.9384995z"/> <path fill="#FFFFFF" d="M80.4131012,61.9023018v-5.6689034c1.0967026-4.9989967,6.0342026-9.5712967,11.764595-14.5692978 c2.865303-2.5,5.9737015-5.6084023,5.9737015-9.7535c0-3.7187004-2.4384995-6.8276005-7.131897-6.8276005 c-3.7793045,0-6.4003983,2.7432003-7.4375,3.9013996l-4.510704-5.9736996 c4.1455002-3.5965996,7.9853058-5.3036995,13.7773056-5.3036995c7.5585938,0,14.6904984,4.3892002,14.6904984,13.1674995 c0,7.3759995-4.6934052,10.8501015-9.875,15.5443993c-2.194397,2.0117989-6.5224991,5.7910995-7.0713043,8.2901001h17.7392044 v7.1933022H80.4131012z"/> </g> <g> </g> </svg>