<?xml version="1.0" encoding="utf-8"?> <!-- Generator: Adobe Illustrator 21.0.2, SVG Export Plug-In . SVG Version: 6.00 Build 0)  --> <svg version="1.2" baseProfile="tiny" id="Calque_1" xmlns="http://www.w3.org/2000/svg" xmlns:xlink="http://www.w3.org/1999/xlink" x="0px" y="0px" viewBox="0 0 120 77" overflow="scroll" xml:space="preserve"> <g> <rect fill-rule="evenodd" fill="#FF5A00" width="120" height="77"/> <rect fill-rule="evenodd" fill="#0A0082" width="120" height="68.75"/> </g> <path fill-rule="evenodd" fill="#FFFFFF" d="M34.3408012,38.7080002V8.5165997h-6.1543007v20.4019012h-0.0848999 c-0.0889015-0.3726006-0.3711014-0.9747009-0.8448009-1.8072014c-0.4745998-0.8319988-1.1201-1.8407993-1.9365005-3.0258999 l-10.697299-15.5688H8.5127001v30.1914005h6.1962996V19.0814991h0.0859003 c0.1239996,0.3604012,0.3993998,0.9541016,0.8233004,1.7803001c0.4237995,0.8257008,1.0194988,1.7720013,1.7861004,2.8383999 l10.8681984,15.0078011H34.3408012z"/> <g> <path fill="#FFFFFF" d="M60.1963005,62.9384995c-6.1562996,0-9.5703011-1.5243988-12.4356003-3.2304993l3.3526001-6.6445007 c1.8291016,1.280201,4.8163986,2.8036995,8.4735985,2.8036995c4.9990005,0,8.107399-2.9258003,8.107399-6.5839996 c0-4.9375-3.7792969-6.6445007-8.1688995-6.6445007h-4.4491997v-7.1313972h4.5107002 c4.2061005,0,6.8272018-2.1948013,6.8272018-5.4863014c0-2.7432003-2.0723038-5.2427006-6.5830002-5.2427006 c-3.9629021,0-6.5839996,1.8896999-7.9864006,3.1089001l-3.1083984-6.3397999 c3.657299-2.4379997,7.6200981-3.8403988,13.0449982-3.8403988c8.7783012,0,13.7763023,5.2426987,13.7763023,10.9727001 c0,4.450201-2.3768997,7.9857998-6.9492035,9.6924v0.1219978c4.7548981,0.9141006,8.3516006,4.5723,8.3516006,10.607502 C76.9599991,56.6601982,70.1933975,62.9384995,60.1963005,62.9384995z"/> <path fill="#FFFFFF" d="M91.6288986,62.9384995c-6.1561966,0-9.5702972-1.5243988-12.4355011-3.2304993l3.3525009-6.6445007 c1.8291016,1.280201,4.8163986,2.8036995,8.4736023,2.8036995c4.9990997,0,8.1074982-2.9258003,8.1074982-6.5839996 c0-4.9375-3.7792969-6.6445007-8.1679993-6.6445007h-4.4502029v-7.1313972h4.510704 c4.2061005,0,6.8272018-2.1948013,6.8272018-5.4863014c0-2.7432003-2.0723038-5.2427006-6.5830002-5.2427006 c-3.9629059,0-6.5839996,1.8896999-7.9864044,3.1089001l-3.1083984-6.3397999 c3.6573029-2.4379997,7.6202011-3.8403988,13.0449982-3.8403988c8.7782974,0,13.7762985,5.2426987,13.7762985,10.9727001 c0,4.450201-2.3768997,7.9857998-6.9491959,9.6924v0.1219978c4.7548981,0.9141006,8.3516006,4.5723,8.3516006,10.607502 C108.392601,56.6601982,101.6259995,62.9384995,91.6288986,62.9384995z"/> </g> <g> </g> </svg>