<svg xmlns="http://www.w3.org/2000/svg" xmlns:xlink="http://www.w3.org/1999/xlink" version="1.2" baseProfile="tiny" id="Calque_1" x="0px" y="0px" viewBox="0 0 120 77" xml:space="preserve"> <g> <rect fill-rule="evenodd" fill="#82DC73" width="120" height="77"/> <rect fill-rule="evenodd" fill="#0A0082" width="120" height="68.75"/> </g> <path fill-rule="evenodd" fill="#FFFFFF" d="M34.3408012,38.7080002V8.5165997h-6.1543007v20.4019012h-0.0848999 c-0.0889015-0.3726006-0.3711014-0.9747009-0.8448009-1.8072014c-0.4745998-0.8319988-1.1201-1.8407993-1.9365005-3.0258999 l-10.697299-15.5688H8.5127001v30.1914005h6.1962996V19.0814991h0.0859003 c0.1239996,0.3604012,0.3993998,0.9541016,0.8233004,1.7803001c0.4237995,0.8257008,1.0194988,1.7720013,1.7861004,2.8383999 l10.8681984,15.0078011H34.3408012z"/> <g> <path fill="#FFFFFF" d="M72.4188995,52.9413986v8.9609032H63.8848v-8.9609032H44.5V44.955101l16.7020988-26.0904007h11.2168007 v27.3707008h5.0596008v6.7059975H72.4188995z M63.8848,26.4237995h-0.1221008 c-0.1825981,0.7315006-1.402298,3.3526001-3.1093979,6.0347004l-8.7773018,13.7769012H63.8848V26.4237995z"/> <path fill="#FFFFFF" d="M107.642601,52.9413986v8.9609032h-8.5342026v-8.9609032H79.7236023V44.955101l16.7021942-26.0904007 h11.2168045v27.3707008h5.059494v6.7059975H107.642601z M99.1083984,26.4237995h-0.1221008 c-0.1825943,0.7315006-1.402298,3.3526001-3.1092987,6.0347004l-8.7773972,13.7769012h12.0087967V26.4237995z"/> </g> <g> </g> </svg>