<svg xmlns="http://www.w3.org/2000/svg" xmlns:xlink="http://www.w3.org/1999/xlink" version="1.2" baseProfile="tiny" id="Calque_1" x="0px" y="0px" viewBox="0 0 120 77" xml:space="preserve"> <g> <rect fill-rule="evenodd" fill="#FFBE00" width="120" height="77"/> <rect fill-rule="evenodd" fill="#0A0082" width="120" height="68.75"/> </g> <path fill-rule="evenodd" fill="#FFFFFF" d="M34.3408012,38.7080002V8.5165997h-6.1543007v20.4019012h-0.0848999 c-0.0889015-0.3726006-0.3711014-0.9747009-0.8448009-1.8072014c-0.4745998-0.8319988-1.1201-1.8407993-1.9365005-3.0258999 l-10.697299-15.5688H8.5127001v30.1914005h6.1962996V19.0814991h0.0859003 c0.1239996,0.3604012,0.3993998,0.9541016,0.8233004,1.7803001c0.4237995,0.8257008,1.0194988,1.7720013,1.7861004,2.8383999 l10.8681984,15.0078011H34.3408012z"/> <g> <path fill="#FFFFFF" d="M73.3388977,52.9413986v8.9609032h-8.5341949v-8.9609032H45.419899V44.955101L62.1221008,18.8652 h11.2167969v27.3711014h5.0595016v6.7050972H73.3388977z M64.8047028,26.4242992h-0.1221008 C64.5,27.1557999,63.2803001,29.7768993,61.5732002,32.4589996l-8.7773018,13.7773018h12.0088043V26.4242992z"/> <path fill="#FFFFFF" d="M92.0547028,62.9384995c-4.9981003,0-8.8389053-1.0966988-12.1309052-3.1083984l3.4746017-6.7061005 c2.3779984,1.6455002,4.8163986,2.7431984,8.1689987,2.7431984c3.3525009,0,7.5586014-2.0116997,7.5586014-7.0702972 c0-3.1094017-2.0722961-7.3770027-9.9971008-7.4981003c-2.4384995,0-5.3036957-0.0615005-6.7060013-0.0615005L84.1298981,18.8652 h22.6161957v7.1933994H91.2627029l-0.610405,8.1685009c0.2442017,0,0.7929993,0.0610008,1.2198029,0.0610008 c11.764595,0.5482979,16.5194931,7.1923981,16.5194931,13.6553001 C108.3915939,56.1719017,101.8690948,62.9384995,92.0547028,62.9384995z"/> </g> <g> </g> </svg>