<svg xmlns="http://www.w3.org/2000/svg" xmlns:xlink="http://www.w3.org/1999/xlink" version="1.2" baseProfile="tiny" id="Calque_1" x="0px" y="0px" viewBox="0 0 120 77" xml:space="preserve"> <g> <rect fill-rule="evenodd" fill="#FFBE00" width="120" height="77"/> <rect fill-rule="evenodd" fill="#0A0082" width="120" height="68.75"/> </g> <path fill-rule="evenodd" fill="#FFFFFF" d="M34.3408012,38.7080002V8.5165997h-6.1543007v20.4019012h-0.0848999 c-0.0889015-0.3726006-0.3711014-0.9747009-0.8448009-1.8072014c-0.4745998-0.8319988-1.1201-1.8407993-1.9365005-3.0258999 l-10.697299-15.5688H8.5127001v30.1914005h6.1962996V19.0814991h0.0859003 c0.1239996,0.3604012,0.3993998,0.9541016,0.8233004,1.7803001c0.4237995,0.8257008,1.0194988,1.7720013,1.7861004,2.8383999 l10.8681984,15.0078011H34.3408012z"/> <g> <path fill="#FFFFFF" d="M59.9950981,62.9384995c-4.9989967,0-8.8387985-1.0966988-12.1307983-3.1083984l3.4746017-6.7061005 c2.3778992,1.6455002,4.8163986,2.7431984,8.1688995,2.7431984c3.3526001,0,7.5585976-2.0116997,7.5585976-7.0702972 c0-3.1094017-2.0722961-7.3770027-9.997097-7.4981003c-2.4384003,0-5.3037033-0.0615005-6.7060013-0.0615005L52.0703011,18.8652 h22.6161995v7.1933994H59.2030983l-0.6102982,8.1685009c0.2440987,0,0.7929001,0.0610008,1.2196999,0.0610008 c11.7646027,0.5482979,16.5195007,7.1923981,16.5195007,13.6553001 C76.3320007,56.1719017,69.8096008,62.9384995,59.9950981,62.9384995z"/> <path fill="#FFFFFF" d="M92.0557022,61.9023018V28.0702991c-2.6211014,2.0723-6.7666016,4.0840015-9.6319046,5.3643017 l-2.9257965-6.5834999c4.5107956-1.8897018,9.9365997-4.7549,14.2032013-7.9859009h7.4979935v43.0371017H92.0557022z"/> </g> <g> </g> </svg>