<svg xmlns="http://www.w3.org/2000/svg" xmlns:xlink="http://www.w3.org/1999/xlink" version="1.2" baseProfile="tiny" id="Calque_1" x="0px" y="0px" viewBox="0 0 120 77" xml:space="preserve"> <g> <rect fill-rule="evenodd" fill="#D2D200" width="120" height="77"/> <rect fill-rule="evenodd" fill="#0A0082" width="120" height="68.75"/> </g> <path fill-rule="evenodd" fill="#FFFFFF" d="M34.3408012,38.7080002V8.5165997h-6.1543007v20.4019012h-0.0848999 c-0.0889015-0.3726006-0.3711014-0.9747009-0.8448009-1.8072014c-0.4745998-0.8319988-1.1201-1.8407993-1.9365005-3.0258999 l-10.697299-15.5688H8.5127001v30.1914005h6.1962996V19.0814991h0.0859003 c0.1239996,0.3604012,0.3993998,0.9541016,0.8233004,1.7803001c0.4237995,0.8257008,1.0194988,1.7720013,1.7861004,2.8383999 l10.8681984,15.0078011H34.3408012z"/> <g> <path fill="#FFFFFF" d="M59.7020988,62.9384995c-4.9990005,0-8.8387985-1.0966988-12.1307983-3.1083984l3.4745979-6.7061005 c2.377903,1.6455002,4.8164024,2.7431984,8.1689034,2.7431984c3.3526001,0,7.5585976-2.0116997,7.5585976-7.0702972 c0-3.1094017-2.072197-7.3770027-9.9969978-7.4981003c-2.4385033,0-5.3037033-0.0615005-6.7061005-0.0615005L51.7773018,18.8652 h22.6162987v7.1933994H58.9101982l-0.6103973,8.1685009c0.2440987,0,0.7929993,0.0610008,1.2196999,0.0610008 c11.7647018,0.5482979,16.5195999,7.1923981,16.5195999,13.6553001 C76.0391006,56.1719017,69.5166016,62.9384995,59.7020988,62.9384995z"/> <path fill="#FFFFFF" d="M80.4121017,61.9023018v-5.6689034c1.0966949-4.9989967,6.0341949-9.5712967,11.7647018-14.5692978 c2.8651962-2.5,5.9735947-5.6084023,5.9735947-9.7535c0-3.7187004-2.4384995-6.8276005-7.1317978-6.8276005 c-3.7792969,0-6.4003983,2.7432003-7.4375,3.9013996l-4.5108032-5.9736996 c4.1455002-3.5965996,7.9863052-5.3036995,13.7774048-5.3036995c7.5585938,0,14.6903915,4.3892002,14.6903915,13.1674995 c0,7.3759995-4.6933975,10.8501015-9.8749924,15.5443993c-2.1942978,2.0117989-6.5224991,5.7910995-7.0713043,8.2901001h17.7393036 v7.1933022H80.4121017z"/> </g> <g> </g> </svg>