<?xml version="1.0" encoding="utf-8"?> <!-- Generator: Adobe Illustrator 21.0.2, SVG Export Plug-In . SVG Version: 6.00 Build 0)  --> <svg version="1.2" baseProfile="tiny" id="Calque_1" xmlns="http://www.w3.org/2000/svg" xmlns:xlink="http://www.w3.org/1999/xlink" x="0px" y="0px" viewBox="0 0 120 77" overflow="scroll" xml:space="preserve"> <g> <rect fill-rule="evenodd" fill="#82DC73" width="120" height="77"/> <rect fill-rule="evenodd" fill="#0A0082" width="120" height="68.75"/> </g> <path fill-rule="evenodd" fill="#FFFFFF" d="M34.3408012,38.7080002V8.5165997h-6.1543007v20.4019012h-0.0848999 c-0.0889015-0.3726006-0.3711014-0.9747009-0.8448009-1.8072014c-0.4745998-0.8319988-1.1201-1.8407993-1.9365005-3.0258999 l-10.697299-15.5688H8.5127001v30.1914005h6.1962996V19.0814991h0.0859003 c0.1239996,0.3604012,0.3993998,0.9541016,0.8233004,1.7803001c0.4237995,0.8257008,1.0194988,1.7720013,1.7861004,2.8383999 l10.8681984,15.0078011H34.3408012z"/> <g> <path fill="#FFFFFF" d="M62.0429993,62.9375c-4.9981003,0-8.8388977-1.0966988-12.1308975-3.1083984l3.4745979-6.705101 c2.3778992,1.6455002,4.8163986,2.7431984,8.1689987,2.7431984c3.3525047,0,7.5586052-2.0116997,7.5586052-7.0713005 c0-3.1083984-2.0723038-7.3759995-9.9971046-7.4979973c-2.4384995,0-5.3036995-0.0615997-6.7061005-0.0615997l1.7070999-22.3716011 h22.6161995v7.1933994H61.2509995l-0.6104012,8.1685009c0.2442017,0,0.7930031,0.0610008,1.2198029,0.0610008 C73.625,34.8358994,78.3798981,41.4804993,78.3798981,47.9424019C78.3798981,56.1719017,71.857399,62.9375,62.0429993,62.9375z"/> <path fill="#FFFFFF" d="M93.3778992,62.9375c-6.1561966,0-9.5702972-1.5233994-12.4355011-3.2304993L84.294899,53.0625 c1.8291016,1.2803001,4.8163986,2.8046989,8.4737015,2.8046989c4.9990005,0,8.107399-2.9258003,8.107399-6.5839996 c0-4.9375-3.7792969-6.6445007-8.1689987-6.6445007h-4.4492035v-7.131897h4.5108032 c4.2060013,0,6.8271027-2.1948013,6.8271027-5.4863014c0-2.7432003-2.0723038-5.2427006-6.5830002-5.2427006 c-3.9629059,0-6.5839996,1.8896999-7.9863052,3.1089001l-3.1083984-6.3397999 c3.6572037-2.4379997,7.6201019-3.8404007,13.044899-3.8404007c8.7782974,0,13.7763977,5.2427006,13.7763977,10.9727001 c0,4.4501991-2.3769989,7.9858017-6.949295,9.6924019v0.122097c4.7548981,0.9145012,8.351593,4.571701,8.351593,10.6069031 C110.1415939,56.6591988,103.375,62.9375,93.3778992,62.9375z"/> </g> <g> </g> </svg>