<?xml version="1.0" encoding="utf-8"?> <!-- Generator: Adobe Illustrator 21.0.2, SVG Export Plug-In . SVG Version: 6.00 Build 0)  --> <svg version="1.2" baseProfile="tiny" id="Calque_1" xmlns="http://www.w3.org/2000/svg" xmlns:xlink="http://www.w3.org/1999/xlink" x="0px" y="0px" viewBox="0 0 120 77" overflow="scroll" xml:space="preserve"> <g> <rect fill-rule="evenodd" fill="#DC9600" width="120" height="77"/> <rect fill-rule="evenodd" fill="#0A0082" width="120" height="68.75"/> </g> <path fill-rule="evenodd" fill="#FFFFFF" d="M34.3408012,38.7080002V8.5165997h-6.1543007v20.4019012h-0.0848999 c-0.0889015-0.3726006-0.3711014-0.9747009-0.8448009-1.8072014c-0.4745998-0.8319988-1.1201-1.8407993-1.9365005-3.0258999 l-10.697299-15.5688H8.5127001v30.1914005h6.1962996V19.0814991h0.0859003 c0.1239996,0.3604012,0.3993998,0.9541016,0.8233004,1.7803001c0.4237995,0.8257008,1.0194988,1.7720013,1.7861004,2.8383999 l10.8681984,15.0078011H34.3408012z"/> <g> <path fill="#FFFFFF" d="M64.0791016,62.9384995c-11.7656021,0-15.9717026-8.1689987-15.9717026-19.5673981 c0-14.9351006,7.0107994-25.6641006,20.7871017-25.6641006c2.4384995,0,4.6327972,0.3046989,6.4618988,0.7314987 l-1.3407974,7.3154011c-1.1582031-0.4878006-3.4140015-1.0366001-5.9131012-1.0366001 c-6.035099,0-10.4238014,4.8158989-11.0340996,13.4721985c1.4628983-1.2803001,4.267498-2.9263,8.9004021-2.9263 c7.1317978,0,12.8622971,4.6938019,12.8622971,12.7406998C78.8311005,56.5996017,73.1006012,62.9384995,64.0791016,62.9384995z M63.2256012,42.0293007c-2.7432022,0-4.9375,1.0370979-5.7910004,2.3778992C56.9473,45.1386986,56.9473,46.8456993,56.9473,48.125 c0,4.0849991,2.3768997,8.0469017,6.7655983,8.0469017c4.267601,0,6.4618988-3.4746017,6.4618988-7.1934013 C70.1747971,44.955101,67.4922028,42.0293007,63.2256012,42.0293007z"/> <path fill="#FFFFFF" d="M92.0547028,61.9023018V28.0702991c-2.6211014,2.0723-6.7666016,4.0840015-9.6318054,5.3643017 l-2.9257965-6.5834999c4.5106964-1.8897018,9.9365005-4.7549,14.2031021-7.9859009h7.4979935v43.0371017H92.0547028z"/> </g> <g> </g> </svg>