<?xml version="1.0" encoding="utf-8"?> <!-- Generator: Adobe Illustrator 21.0.2, SVG Export Plug-In . SVG Version: 6.00 Build 0)  --> <svg version="1.2" baseProfile="tiny" id="Calque_1" xmlns="http://www.w3.org/2000/svg" xmlns:xlink="http://www.w3.org/1999/xlink" x="0px" y="0px" viewBox="0 0 120 77" overflow="scroll" xml:space="preserve"> <g> <rect fill-rule="evenodd" fill="#D2D200" width="120" height="77"/> <rect fill-rule="evenodd" fill="#0A0082" width="120" height="68.75"/> </g> <path fill-rule="evenodd" fill="#FFFFFF" d="M34.3408012,38.7080002V8.5165997h-6.1543007v20.4019012h-0.0848999 c-0.0889015-0.3726006-0.3711014-0.9747009-0.8448009-1.8072014c-0.4745998-0.8319988-1.1201-1.8407993-1.9365005-3.0258999 l-10.697299-15.5688H8.5127001v30.1914005h6.1962996V19.0814991h0.0859003 c0.1239996,0.3604012,0.3993998,0.9541016,0.8233004,1.7803001c0.4237995,0.8257008,1.0194988,1.7720013,1.7861004,2.8383999 l10.8681984,15.0078011H34.3408012z"/> <g> <path fill="#FFFFFF" d="M62.9940987,62.9384995c-11.7655983,0-15.9715996-8.1689987-15.9715996-19.5673981 c0-14.9351006,7.0107002-25.6641006,20.7871017-25.6641006c2.4384003,0,4.6327972,0.3046989,6.4618988,0.7314987 l-1.3407974,7.3154011c-1.1582031-0.4878006-3.4141006-1.0366001-5.9131012-1.0366001 c-6.035202,0-10.4238014,4.8158989-11.0342026,13.4721985c1.4629021-1.2803001,4.267601-2.9263,8.9003983-2.9263 c7.1318054,0,12.8623047,4.6938019,12.8623047,12.7406998C77.7461014,56.5996017,72.0156021,62.9384995,62.9940987,62.9384995z M62.1405983,42.0293007c-2.7430992,0-4.9375,1.0370979-5.7909966,2.3778992 c-0.4873009,0.7314987-0.4873009,2.4384995-0.4873009,3.7178001c0,4.0849991,2.3769989,8.0469017,6.7655983,8.0469017 c4.267601,0,6.4618988-3.4746017,6.4618988-7.1934013C69.089798,44.955101,66.4082031,42.0293007,62.1405983,42.0293007z"/> <path fill="#FFFFFF" d="M91.6278992,62.9384995c-6.1561966,0-9.5702972-1.5243988-12.4355011-3.2304993l3.3525009-6.6445007 c1.8291016,1.280201,4.8163986,2.8036995,8.4737015,2.8036995c4.9990005,0,8.107399-2.9258003,8.107399-6.5839996 c0-4.9375-3.7792969-6.6445007-8.1689987-6.6445007h-4.4492035v-7.1313972h4.5108032 c4.2060013,0,6.8271027-2.1948013,6.8271027-5.4863014c0-2.7432003-2.0723038-5.2427006-6.5830002-5.2427006 c-3.9629059,0-6.5839996,1.8896999-7.9863052,3.1089001l-3.1083984-6.3397999 c3.6572037-2.4379997,7.6201019-3.8403988,13.044899-3.8403988c8.7782974,0,13.7763977,5.2426987,13.7763977,10.9727001 c0,4.450201-2.3769989,7.9857998-6.949295,9.6924v0.1219978c4.7548981,0.9141006,8.351593,4.5723,8.351593,10.607502 C108.3915939,56.6601982,101.625,62.9384995,91.6278992,62.9384995z"/> </g> <g> </g> </svg>