<svg xmlns="http://www.w3.org/2000/svg" xmlns:xlink="http://www.w3.org/1999/xlink" version="1.2" baseProfile="tiny" id="Calque_1" x="0px" y="0px" viewBox="0 0 120 77" overflow="scroll" xml:space="preserve"> <g> <rect fill-rule="evenodd" fill="#FF1400" width="120" height="77"/> <rect fill-rule="evenodd" fill="#0A0082" width="120" height="68.75"/> </g> <path fill-rule="evenodd" fill="#FFFFFF" d="M34.3408012,38.7080002V8.5165997h-6.1543007v20.4019012h-0.0848999 c-0.0889015-0.3726006-0.3711014-0.9747009-0.8448009-1.8072014c-0.4745998-0.8319988-1.1201-1.8407993-1.9365005-3.0258999 l-10.697299-15.5688H8.5127001v30.1914005h6.1962996V19.0814991h0.0859003 c0.1239996,0.3604012,0.3993998,0.9541016,0.8233004,1.7803001c0.4237995,0.8257008,1.0194988,1.7720013,1.7861004,2.8383999 l10.8681984,15.0078011H34.3408012z"/> <g> <g> <path fill="#FFFFFF" d="M61.4258003,62.9375c-11.7656021,0-15.9716988-8.1679993-15.9716988-19.5674019 c0-14.9354973,7.0107002-25.6639977,20.7871017-25.6639977c2.4384995,0,4.6327972,0.3045998,6.4618988,0.7313995 l-1.3408051,7.3153992c-1.1581955-0.4882984-3.4141006-1.0360985-5.9130936-1.0360985 c-6.0351028,0-10.4238052,4.8153992-11.0342026,13.4716988c1.4628983-1.2803001,4.2675972-2.9258003,8.9003983-2.9258003 c7.1319046,0,12.8622971,4.6934013,12.8622971,12.7402C76.1776962,56.5976982,70.4473038,62.9375,61.4258003,62.9375z M60.5723,42.0283012c-2.7431984,0-4.9375,1.0370979-5.7910004,2.3778992 c-0.4874001,0.7314987-0.4874001,2.4384995-0.4874001,3.7187996c0,4.0839996,2.3769989,8.0458984,6.7657013,8.0458984 c4.2675018,0,6.4618988-3.4745979,6.4618988-7.1923981C67.5214996,44.955101,64.8388977,42.0283012,60.5723,42.0283012z"/> <path fill="#FFFFFF" d="M95.5586014,62.9375c-11.7656021,0-15.9717026-8.1679993-15.9717026-19.5674019 c0-14.9354973,7.0108032-25.6639977,20.7871017-25.6639977c2.4384995,0,4.6327972,0.3045998,6.4618988,0.7313995 l-1.3408051,7.3153992c-1.1581955-0.4882984-3.4139938-1.0360985-5.9130936-1.0360985 c-6.0351028,0-10.4237976,4.8153992-11.0341034,13.4716988c1.4627991-1.2803001,4.2675018-2.9258003,8.9002991-2.9258003 c7.1319046,0,12.8622971,4.6934013,12.8622971,12.7402C110.3104935,56.5976982,104.580101,62.9375,95.5586014,62.9375z M94.705101,42.0283012c-2.7432022,0-4.9375,1.0370979-5.7910004,2.3778992 c-0.4872971,0.7314987-0.4872971,2.4384995-0.4872971,3.7187996c0,4.0839996,2.3768997,8.0458984,6.7655945,8.0458984 c4.267601,0,6.4618988-3.4745979,6.4618988-7.1923981C101.6542969,44.955101,98.9717026,42.0283012,94.705101,42.0283012z"/> </g> </g> <g> </g> </svg>