<svg xmlns="http://www.w3.org/2000/svg" xmlns:xlink="http://www.w3.org/1999/xlink" version="1.2" baseProfile="tiny" id="Calque_1" x="0px" y="0px" viewBox="0 0 120 77" xml:space="preserve"> <rect fill-rule="evenodd" fill="#FF1400" width="120" height="77"/> <g> <g> <path fill="#FFFFFF" d="M72.2461014,7.3857002c-4.6992035,0-8.9844017,1.7617998-12.2441025,4.6562996 c-3.2563972-2.8964996-7.5458984-4.6562996-12.245697-4.6562996c-10.190403,0-18.4536018,8.2579002-18.4536018,18.4501991 c0,10.1905022,8.2631989,18.4501991,18.4536018,18.4501991c4.6997986,0,8.9892998-1.7607002,12.245697-4.6551971 c3.2597008,2.892498,7.544899,4.6551971,12.2441025,4.6551971c10.1893997,0,18.4512024-8.259697,18.4512024-18.4501991 C90.6973038,15.6436005,82.4355011,7.3857002,72.2461014,7.3857002z M47.7563019,42.0996017 c-8.985302,0-16.2666016-7.2803001-16.2666016-16.2637024c0-8.9842987,7.2812996-16.2645988,16.2666016-16.2645988 c8.9838982,0,16.2631989,7.2803011,16.2631989,16.2645988C64.0195007,34.8193016,56.7402,42.0996017,47.7563019,42.0996017z M77.8047028,37.9043007c0,0-1.1524048-3.4834023-4.5-3.4854012c-3.347702,0.0019989-4.5059052,3.4854012-4.5059052,3.4854012 h-4.1132965c0,0,3.3516006-4.0088005,5.267601-8.7607002c2.2695999-5.6202011,2.3437958-10.7227001,2.3437958-13.5420008 c0-0.3702002-0.0077972-0.6475-0.1523972-0.8223c-0.2207031-0.2646999-0.2108994-0.7627001-0.2108994-0.7627001V12.8701 l0.652298-0.6562004c0.2364044-0.2460995,0.3848038-0.5801001,0.3848038-0.9452991v-1.0606003 c0,0,0.0487976-0.1309004,0.2343979-0.1318007h0.1913986c0.1875,0.0009003,0.2362976,0.1318007,0.2362976,0.1318007v1.0606003 c0,0.3651991,0.1464996,0.6991997,0.3828049,0.9452991L74.669899,12.8701v1.1464996c0,0,0.0077972,0.4980001-0.2128983,0.7627001 c-0.1445007,0.1747999-0.152298,0.4520998-0.152298,0.8223c0,2.8193007,0.0761948,7.9217997,2.3436966,13.5420008 c1.9160995,4.7518997,5.2657013,8.7607002,5.2657013,8.7607002H77.8047028z M55.0014992,20.0352001 c-1.0284004,0.7586994-2.6479988,1.9755001-4.3101006,3.2479992l-11.0923004-1.5546989 c-0.2079964-0.0293007-0.5223999,0.0478992-0.6879997,0.1807003l-1.2367973,0.924799l7.8681984,4.4306011 c-1.5102997,1.1767998-2.9160004,2.2832985-4.0043983,3.1504002c-0.2041016,0.1669998-0.5488014,0.2675991-0.7901001,0.2460995 l-4.4682007-0.5741997c-0.3277016-0.0449009-0.607399,0.0819988-0.7998009,0.2294998l-0.8106003,0.6035004l4.1514015,2.9013996 c0.8003006,0.5546989,6.6278992-2.517601,8.9301987-4.0586014c1.9608994-1.3144989,8.5453987-6.2753983,9.9608994-7.4960995 c1.4209023-1.2129002,2.5508003-2.7147999,2.1196022-3.2870998C59.4902,18.5293007,56.5761986,18.8778992,55.0014992,20.0352001z M73.8223038,28.0205002h-1.0293045c-0.1913986,0-0.3183975,0.0781002-0.375,0.3398991 c-0.0058975,0.025301-0.5312958,2.4560013-0.9491959,3.9051991h3.6795959 c-0.4179001-1.4491978-0.9432983-3.8798981-0.9491959-3.9051991 C74.142601,28.0986004,74.0156021,28.0205002,73.8223038,28.0205002z"/> </g> <g> <path fill="#FFFFFF" d="M35.4799995,57.1553001c0,1.5088005-0.2240982,2.7793007-0.669899,3.8153992 c-0.4458008,1.0381012-1.0152016,1.8818016-1.7094994,2.5303001c-0.6929016,0.6512985-1.4673004,1.1172028-2.3233013,1.4032974 c-0.8535004,0.2842026-1.6972008,0.4287033-2.5317001,0.4287033c-0.9629002,0-1.8803997-0.1406021-2.7504997-0.4150009 c-0.8672009-0.2802963-1.6317997-0.7411957-2.2894993-1.3838005c-0.6582012-0.6415977-1.1792011-1.4862976-1.566-2.5312996 c-0.3875999-1.0438995-0.5805016-2.3260994-0.5805016-3.847599c0-1.5009995,0.2222004-2.7724991,0.6680012-3.8106003 c0.4466991-1.0381012,1.0156002-1.8818016,1.7083988-2.530201c0.6944008-0.6513977,1.4698009-1.1191978,2.3243008-1.4043007 c0.8554001-0.2831993,1.6987-0.4257965,2.5317001-0.4257965c0.9647999,0,1.8789005,0.1366997,2.7504997,0.4179001 c0.8672009,0.274498,1.6318016,0.7343979,2.2891006,1.3798981c0.6562004,0.6416016,1.1805992,1.4833984,1.5672989,2.5303001 C35.2851982,54.3563995,35.4799995,55.6376991,35.4799995,57.1553001 M31.9722004,57.1553001 c0-0.7139015-0.0629997-1.4003983-0.1870003-2.0586014c-0.1254997-0.6562996-0.3306007-1.2285004-0.6166992-1.7196999 c-0.2867012-0.4883003-0.6651001-0.8798981-1.1372013-1.1728973c-0.469799-0.2910004-1.0566998-0.4375-1.7623005-0.4375 c-0.7054996,0-1.2977982,0.1464996-1.7733994,0.4375c-0.4794998,0.2929993-0.8612995,0.684597-1.1469994,1.1728973 c-0.2870998,0.4911995-0.4897003,1.0634003-0.6074009,1.7196999c-0.1176987,0.6582031-0.1763,1.3446999-0.1763,2.0586014 c0,0.7333984,0.0629997,1.4238014,0.1879997,2.0722008c0.1231003,0.652401,0.3316002,1.2226982,0.6167011,1.711998 c0.2870998,0.4873009,0.6660004,0.877903,1.1352997,1.1709023c0.4717007,0.2919006,1.0585995,0.4384003,1.7640991,0.4384003 c0.7056007,0,1.2974014-0.1464996,1.7754002-0.4384003c0.4761009-0.2929993,0.8579006-0.6836014,1.1455002-1.1709023 c0.2862015-0.4892998,0.4883003-1.059597,0.6055012-1.711998C31.9136009,58.5791016,31.9722004,57.8886986,31.9722004,57.1553001"/> <path fill="#FFFFFF" d="M43.9146004,56.2139015c-0.1171989-0.0567017-0.2719994-0.1221008-0.4702988-0.1953011 c-0.1972008-0.0742989-0.3979034-0.1104012-0.6030006-0.1104012c-0.3358994,0-0.5986023,0.0429993-0.7886009,0.1318016 c-0.1908989,0.086998-0.3592987,0.1963005-0.5028992,0.3300972c-0.2060013,0.190403-0.3306007,0.4033012-0.3745003,0.6445007 c-0.0415001,0.240303-0.0644989,0.5245018-0.0644989,0.8437996v7.0596008h-3.0683022v-8.7460976 c0-0.2490005-0.0053978-0.517601-0.0116997-0.8115005c-0.0083008-0.2910995-0.017601-0.5723-0.032299-0.8437996 c-0.0146027-0.2705002-0.0293007-0.5215034-0.0438995-0.7549019c-0.0147018-0.2333984-0.0220032-0.4169998-0.0220032-0.5488014 h2.7378006v1.7539024c0.1865005-0.2793007,0.375-0.5419998,0.5669022-0.7891006 c0.1918983-0.2490005,0.402298-0.4637985,0.6293983-0.6464996c0.2256012-0.1845016,0.482399-0.3281021,0.7656021-0.4384003 c0.2861977-0.1104012,0.6117973-0.1641006,0.9755974-0.1641006c0.2192001,0,0.4317017,0.0243988,0.6366997,0.0772018 c0.2046013,0.0497971,0.3642998,0.097599,0.4815025,0.142498L43.9146004,56.2139015z"/> <rect x="46.6333008" y="48.6982002" fill="#FFFFFF" width="3.0674" height="16.2198009"/> <path fill="#FFFFFF" d="M58.269001,65.5712967c-0.1748009,0.5703049-0.3994026,1.0889053-0.6674004,1.5576096 c-0.2714996,0.4667969-0.6104012,0.8789063-1.0200996,1.2373047c-0.4085999,0.3583984-0.9033012,0.646492-1.4794006,0.8662109 c-0.5767021,0.21875-1.2588005,0.3574219-2.0484009,0.4160156l-0.2846985-2.3652344 c0.2460976,0,0.5131989-0.0273438,0.7994003-0.0771561c0.2831993-0.0517502,0.5502968-0.1425705,0.7992973-0.2744446 c0.2504997-0.130806,0.4731026-0.3027039,0.6683998-0.5166016c0.1977997-0.2098999,0.339901-0.4842987,0.4283028-0.8202972 l-3.9888-12.3828049h3.3745003l1.6205978,6.6416016c0.1333008,0.5264015,0.2466011,1.0391006,0.3408012,1.5341988 c0.0951996,0.4951019,0.1562996,0.8320007,0.1865005,1.0078011h0.043499 c0.0718002-0.3065987,0.1543007-0.6806984,0.2426987-1.1190987c0.0879021-0.4365997,0.1948013-0.9131012,0.3266029-1.4229012 l1.6894989-6.6416016h2.891098L58.269001,65.5712967z"/> <path fill="#FFFFFF" d="M76.1718979,60.1161995c0,0.9794998-0.1933975,1.777401-0.580101,2.3993988 c-0.3847961,0.6201019-0.8847961,1.1114006-1.4960938,1.4678001c-0.6133041,0.357399-1.2949066,0.6025009-2.0469055,0.7333984 c-0.75,0.1328049-1.4901962,0.2012024-2.2206955,0.2012024h-5.6191025V49.4434013h5.8711014 c0.6288986,0,1.2753983,0.0467987,1.9393997,0.1444969c0.6660004,0.0946999,1.267601,0.2803001,1.8086014,0.5557022 c0.5410004,0.2793007,0.9843979,0.6786995,1.3359985,1.1953011c0.3515015,0.5184975,0.5253983,1.1932983,0.5253983,2.0262985 c0,0.3964996-0.0743027,0.7666016-0.2187958,1.1192017c-0.1445007,0.3505974-0.3358994,0.6571999-0.5684052,0.919899 c-0.2342987,0.2626991-0.4980011,0.4775009-0.7890015,0.6455002c-0.2929993,0.1669998-0.5917969,0.2831993-0.8984985,0.3407974 v0.0430031c0.4063034,0.0585976,0.7872009,0.1815987,1.1407013,0.3622971 c0.357399,0.1836014,0.6660004,0.4287033,0.9355011,0.7334023c0.2695007,0.3065987,0.482399,0.6786995,0.6406021,1.1190987 C76.0917969,59.0878983,76.1718979,59.5761986,76.1718979,60.1161995 M72.3378983,53.8261986 c0-0.452198-0.1054993-0.8027992-0.3183975-1.0527992c-0.2128983-0.2460976-0.4707031-0.4237976-0.777298-0.5370979 c-0.3086014-0.1084023-0.6367035-0.1688995-0.9863052-0.1855011c-0.3495941-0.0136986-0.6660995-0.0214996-0.9433975-0.0214996 H67.625v3.5498009h1.732399c0.2929993,0,0.6114044-0.0078011,0.9531021-0.0205002 c0.3417969-0.0156021,0.6660995-0.0781021,0.9628983-0.1875c0.3008041-0.1084023,0.552803-0.2842026,0.7598038-0.5254021 C72.2343979,54.6054993,72.3378983,54.2645988,72.3378983,53.8261986 M72.6660004,60.0283012 c0-0.4834023-0.1133041-0.8563995-0.339798-1.127903c-0.2266006-0.2714996-0.5038986-0.4678001-0.8320999-0.5907974 c-0.3300018-0.1240997-0.6796036-0.2012024-1.0527039-0.2315025c-0.3730011-0.0282974-0.6972961-0.0438995-0.9746017-0.0438995 H67.625v4.3174019h2.017601c0.3945007,0,0.7753983-0.0254021,1.1387024-0.0762024 c0.3670959-0.0507965,0.6875-0.1610985,0.964798-0.3300972c0.277298-0.1669998,0.5018997-0.4004021,0.6679993-0.7002029 C72.5820007,60.9453011,72.6660004,60.5381012,72.6660004,60.0283012"/> <path fill="#FFFFFF" d="M85.3769989,64.9179993v-1.4501991c-0.3945999,0.5555992-0.847702,0.9979973-1.3593979,1.3280983 c-0.5098038,0.330101-1.1387024,0.4912033-1.8827972,0.4912033c-0.6289063,0-1.1719055-0.1016006-1.6211014-0.3066025 c-0.455101-0.205101-0.8242035-0.489296-1.107399-0.8544998c-0.2872009-0.3652992-0.4981003-0.7910004-0.6368027-1.282299 C78.6308975,62.3554993,78.5625,61.8251991,78.5625,61.2568016v-8.0449028h3.0683975v7.4081993 c0,0.5986023,0.1211014,1.0860023,0.3711014,1.4570007c0.25,0.3721008,0.6660004,0.5596008,1.2480011,0.5596008 c0.2929993,0,0.5507965-0.0508003,0.777298-0.1553001c0.2266006-0.0995979,0.4122009-0.232399,0.5606003-0.392498 c0.2637024-0.2764015,0.4238052-0.5284004,0.482399-0.7461014c0.0586014-0.2187996,0.0860062-0.5253983,0.0860062-0.919899 v-7.2110023h3.0702972v11.7061005H85.3769989z"/> <path fill="#FFFFFF" d="M98.9413986,61.4091988c0,0.5703011-0.1132965,1.0928001-0.339798,1.5664024 c-0.2266006,0.4764977-0.5489044,0.8838005-0.9628983,1.2275009c-0.4160004,0.3437958-0.9317017,0.6113968-1.5469055,0.7978973 c-0.6132965,0.1913986-1.3007965,0.2851028-2.0604935,0.2851028c-0.7442017,0-1.4200058-0.0976028-2.0254059-0.2929001 c-0.6054993-0.1973038-1.0782013-0.3984985-1.4141006-0.6035995l0.9434052-2.2558022 c0.3788986,0.2616997,0.8125,0.4745979,1.3006973,0.6357002c0.4922028,0.1601982,0.9688034,0.2392998,1.4375,0.2392998 c0.205101,0,0.4121017-0.017601,0.6269989-0.0546989c0.2089996-0.0391006,0.402298-0.1016006,0.5781021-0.1973 c0.177803-0.0937004,0.3183975-0.2196999,0.427803-0.3720016c0.1112976-0.1543007,0.1639938-0.3466988,0.1639938-0.5811005 c0-0.2187004-0.0604935-0.4043007-0.1854935-0.5586014c-0.125-0.1542969-0.2754059-0.2860985-0.4493027-0.3944969 c-0.1777039-0.1104012-0.3631973-0.2022018-0.5585022-0.2735023c-0.1993027-0.072197-0.375-0.1395988-0.5372009-0.197197 L93.375,60.0078011c-0.7598038-0.2938995-1.3691025-0.6855011-1.8281021-1.1748009 c-0.4628983-0.4892998-0.6894989-1.1641006-0.6894989-2.0273018c0-0.5536995,0.1054993-1.0712967,0.3281021-1.5536995 c0.2187958-0.4814987,0.5312958-0.9023972,0.9394989-1.2598c0.410202-0.3583984,0.8945007-0.639698,1.4589996-0.8437996 c0.5625-0.2059975,1.1855011-0.3075981,1.8730011-0.3075981c0.7442017,0,1.3788986,0.0878983,1.9062958,0.2626991 c0.5273056,0.1748009,0.943306,0.3437996,1.25,0.5038986l-0.9452972,2.2569008 c-0.3339996-0.2187996-0.7167969-0.389698-1.1484985-0.514698c-0.4336014-0.1240005-0.8358994-0.1855011-1.2168045-0.1855011 c-0.6288986,0-1.0546951,0.1268997-1.2811966,0.3828011c-0.2266006,0.2557983-0.3398972,0.5135994-0.3398972,0.777298 c0,0.1767998,0.0449982,0.330101,0.1308975,0.4609985c0.0878983,0.1328011,0.2012024,0.2490005,0.339798,0.350502 c0.1407013,0.1026001,0.2891006,0.1904984,0.4493027,0.2636986c0.1601028,0.0713005,0.3143997,0.1299019,0.4608994,0.1729012 l1.0292969,0.375c0.410202,0.1610985,0.7891006,0.3358994,1.1406021,0.5253983 c0.3496017,0.1914024,0.6543045,0.4218025,0.910202,0.7021027c0.2538986,0.2763977,0.4512024,0.5976982,0.5917969,0.9638977 C98.8730011,60.5049019,98.9413986,60.9258003,98.9413986,61.4091988"/> </g> </g> <g> </g> </svg>