<svg width="80" height="24" viewBox="0 0 80 24" fill="none" xmlns="http://www.w3.org/2000/svg"><rect width="80" height="24" rx="12" fill="#FF5A00"/><path fill-rule="evenodd" clip-rule="evenodd" d="M48.4841 15.0688C48.4588 15.0938 48.4247 15.118 48.3896 15.142L49.9406 16.8674C50.0672 17.0073 50.0672 17.2354 49.9406 17.3743C49.8151 17.514 49.6104 17.514 49.4853 17.3743L48.95 16.7796H43.0502L42.5146 17.3743C42.3887 17.514 42.1847 17.514 42.0592 17.3743C41.9327 17.2354 41.9327 17.0073 42.0592 16.8674L43.6109 15.141C43.5754 15.1167 43.5431 15.0924 43.5158 15.0688C43.2277 14.8367 42.9595 14.4798 42.7656 13.9259C42.4917 13.1484 42.2984 12.4566 42.2457 11.6062C42.1726 10.5555 42.605 8.92186 42.8917 8.16121L42.9916 7.89136C43.0526 7.72033 43.2874 7.35638 43.7057 6.92159C44.0646 6.54815 44.4093 6.52083 44.9345 6.52083H47.0653C47.5902 6.52083 47.9353 6.54815 48.2942 6.92159C48.7118 7.35706 48.9469 7.72066 49.0086 7.89136L49.1082 8.15987C49.3949 8.92186 49.8273 10.5555 49.7538 11.6059C49.7001 12.4572 49.5075 13.1501 49.2349 13.9259C49.04 14.4795 48.7715 14.8367 48.4841 15.0688ZM47.3352 13.9796C47.3352 14.2744 47.5743 14.5126 47.8688 14.5126C48.164 14.5126 48.4024 14.2744 48.4024 13.9796C48.4024 13.6854 48.164 13.4476 47.8688 13.4476C47.5743 13.4476 47.3352 13.6854 47.3352 13.9796ZM43.4634 8.23572C43.23 8.23572 42.7183 11.0952 43.0442 11.0952H48.928C49.3267 11.0952 48.7317 8.23572 48.4784 8.23572H43.4634ZM44.1202 13.4476C43.8254 13.4476 43.5873 13.6854 43.5873 13.9796C43.5873 14.2744 43.8254 14.5126 44.1202 14.5126C44.4157 14.5126 44.6532 14.2744 44.6532 13.9796C44.6532 13.6854 44.4157 13.4476 44.1202 13.4476ZM44.2669 15.4263L43.6952 16.0618H48.305L47.7329 15.4263C47.4543 15.4907 47.1976 15.4907 47.0107 15.4907H44.9888C44.8019 15.4907 44.5456 15.4907 44.2669 15.4263Z" fill="black"/><path fill-rule="evenodd" clip-rule="evenodd" d="M41.68 20H50.3199C52.3492 20 54 18.3492 54 16.32V7.68001C54 5.65083 52.3492 4 50.3199 4H41.68C39.6508 4 38 5.65083 38 7.68001V16.32C38 18.3492 39.6508 20 41.68 20ZM39.04 7.68001C39.04 6.2243 40.2243 5.03999 41.68 5.03999H50.3199C51.7756 5.03999 52.9599 6.2243 52.9599 7.68001V16.32C52.9599 17.7757 51.7756 18.9599 50.3199 18.9599H41.68C40.2243 18.9599 39.04 17.7757 39.04 16.32V7.68001Z" fill="black"/><path d="M64.1054 9.20807H63.2651V11.8128H64.1295C64.8255 11.8128 65.738 11.5966 65.738 10.5044C65.738 9.35214 64.7298 9.20807 64.1054 9.20807Z" fill="black"/><path fill-rule="evenodd" clip-rule="evenodd" d="M68.4 20H59.6C57.6118 20 56 18.3882 56 16.4V7.6C56 5.61178 57.6118 4 59.6 4H68.4C70.3882 4 72 5.61177 72 7.6V16.4C72 18.3882 70.3882 20 68.4 20ZM63.2651 13.253H64.1295C65.5817 13.253 67.6342 12.8448 67.6342 10.3844C67.6342 8.28378 65.954 7.75562 63.9972 7.75562H61.3929V16.2298H63.2651V13.253Z" fill="black"/><path d="M33.9641 13.9128L34 14.5624L33.9811 14.9929L33.9282 15.3914L33.8187 15.7917L33.7111 16.1637L33.5109 16.4809L33.3202 16.8133L33.1125 17.1022L32.8198 17.3552L32.5573 17.5931L32.2514 17.7933L31.9153 17.9727L31.5603 18.12L31.2091 18.237L30.8182 18.3164L30.4179 18.3749L30.01 18.3994L29.3661 18.356L28.7335 18.237L28.1538 18.086L27.6931 17.8934L27.3098 17.6857L27.1474 17.5535L27.0378 17.4043L26.9472 17.24L26.9113 17.0512V16.8133L26.9925 16.5338L27.0756 16.2864L27.1832 16.0617L27.289 15.888L27.4457 15.7577L27.6006 15.669L27.7724 15.6369L27.999 15.6595L28.2237 15.735L28.5881 15.888L29.0413 16.0315L29.5304 16.1335L30.01 16.1807L30.3178 16.1769L30.6105 16.1108L30.8805 16.0126L31.1355 15.888L31.3337 15.7048L31.498 15.4971L31.5962 15.229L31.6434 14.9193L31.617 14.6852L31.5603 14.4529L31.4716 14.232L31.3526 14.0318L31.2091 13.8505L31.0259 13.6919L30.5897 13.3936L29.5946 12.8233L29.0508 12.4872L28.607 12.1605L28.2067 11.7809L27.8706 11.3844L27.6081 10.9274L27.4268 10.4365L27.289 9.87188L27.2569 9.2544L27.2625 8.84464L27.3286 8.43866L27.4268 8.07988L27.5628 7.73055L27.7176 7.39632L27.9008 7.11118L28.1349 6.82605L28.388 6.58435L28.6523 6.3502L28.9507 6.1727L29.266 5.99142L29.6022 5.85924L29.9572 5.7535L30.3178 5.66286L30.7106 5.6232L31.0977 5.60999L31.6528 5.64775L32.2231 5.73084L32.7216 5.85924L33.1559 6.05751L33.5109 6.26334L33.6469 6.38985L33.7545 6.51826L33.8187 6.68443L33.8546 6.87892L33.8357 7.09608L33.7829 7.35666L33.7111 7.60403L33.611 7.8023L33.4826 7.98169L33.3561 8.11198L33.1918 8.20829L32.9935 8.23472L32.8028 8.20829L32.5875 8.13087L31.8681 7.85895L31.4716 7.75132L31.0448 7.71355L30.7559 7.73055L30.4651 7.8023L30.2366 7.91182L30.01 8.05722L29.8476 8.23472L29.7287 8.43866L29.6569 8.6747L29.6135 8.93717L29.6305 9.16188L29.7022 9.39414L29.7948 9.58863L29.9458 9.76613L30.1177 9.94552L30.2838 10.1022L30.7106 10.3836L31.6793 10.9048L32.14 11.1956L32.5951 11.526L32.9935 11.9037L33.3372 12.3323L33.611 12.8006L33.8187 13.3256L33.9641 13.9128Z" fill="black"/><path d="M25.8142 6.64477V14.0998L25.7953 14.6304L25.7406 15.1308L25.6518 15.5764L25.514 15.99L25.3516 16.3903L25.1798 16.7415L24.9418 17.0512L24.7077 17.3363L24.4169 17.5931L24.1091 17.7933L23.7824 17.9727L23.4199 18.1389L23.0479 18.237L22.6589 18.3428L22.2227 18.3749L21.7959 18.3994L21.2993 18.3749L20.8197 18.3428L20.4005 18.237L20.0039 18.1389L19.6206 17.9935L19.2769 17.8084L18.9672 17.5931L18.7067 17.3363L18.4423 17.0587L18.2346 16.7415L18.0533 16.3903L17.8909 15.99L17.772 15.5764L17.6908 15.1006L17.6266 14.6172L17.619 14.0677V6.64477L17.6643 6.42573L17.7266 6.22746L17.8362 6.05751L17.991 5.93666L18.1817 5.8328L18.3894 5.7535L18.6236 5.69685H19.1051L19.3241 5.7535L19.5319 5.8328L19.7131 5.93666L19.8944 6.05751L20.0209 6.22746L20.0832 6.42573L20.1191 6.64477V13.8014L20.1399 14.3264L20.2381 14.7909L20.357 15.2158L20.5459 15.5594L20.7536 15.8276L21.0444 16.0315L21.3805 16.1335L21.7959 16.1807L22.1868 16.1335L22.5324 16.0126L22.7948 15.8144L23.0309 15.5406L23.1933 15.2007L23.3028 14.772L23.3745 14.3264L23.384 13.8014V6.64477L23.4199 6.42573L23.5029 6.22746L23.6087 6.05751L23.7749 5.93666L23.9561 5.8328L24.1544 5.7535L24.364 5.69685H24.8172L25.0344 5.7535L25.2232 5.8328L25.4347 5.93666L25.5763 6.05751L25.6953 6.22746L25.7765 6.42573L25.8142 6.64477Z" fill="black"/><path fill-rule="evenodd" clip-rule="evenodd" d="M16.0857 14.2924L16.097 14.6493L16.0857 15.1308L16.0045 15.5406L15.9233 15.939L15.7855 16.3015L15.6401 16.6301L15.4323 16.9247L15.1888 17.1928L14.964 17.4043L14.6903 17.6271L14.3994 17.7933L14.1011 17.9387L13.7744 18.0577L13.4383 18.1389L13.0852 18.2068L12.3884 18.2673H9.20662L8.98003 18.237L8.77043 18.1879L8.56271 18.12L8.38144 18.0256L8.21716 17.8877L8.10008 17.7178L8.01889 17.5365L8 17.3231V6.77507L8.01889 6.57302L8.05477 6.38985L8.13596 6.19913L8.24548 6.05751L8.39844 5.914L8.56271 5.8328L8.76098 5.7535L8.9687 5.73084H12.3337L12.9964 5.79315L13.629 5.914L13.9387 6.02352L14.2389 6.15193L14.5014 6.31621L14.7714 6.49182L15.0056 6.69576L15.2152 6.92047L15.3965 7.17161L15.5608 7.44352L15.7062 7.75132L15.7855 8.07988L15.8421 8.42544L15.8591 8.8031L15.8327 9.34127L15.6967 9.82278L15.4984 10.2571L15.2152 10.614L14.9338 10.9482L14.5807 11.2163L14.2389 11.4637L13.9009 11.6355V11.6884L14.2389 11.7677L14.5713 11.9037L14.9338 12.1473L15.2964 12.4362L15.5985 12.8403L15.7326 13.0669L15.8591 13.3482L15.9497 13.6126L16.0328 13.9412L16.0857 14.2924ZM13.3193 9.79068L13.3571 9.39414L13.3193 8.96549L13.2042 8.62371L13.0134 8.35368L12.7604 8.14975L12.4507 7.98169L12.1146 7.88161L11.7521 7.82307L11.3631 7.8023H10.4208V10.9614H11.3631L11.7351 10.9482L12.0995 10.8765L12.4413 10.7707L12.7491 10.614L12.9964 10.4006L13.2042 10.1306L13.3193 9.79068ZM13.6838 14.8098L13.7197 14.3811L13.6932 14.1413L13.6649 13.9128L13.6101 13.7013L13.5271 13.522L13.4119 13.3539L13.2835 13.2274L13.0134 12.9989L12.6792 12.8535L12.3337 12.7459L11.9692 12.6854L11.6255 12.6722H10.5473V16.1807H11.6255L12.1146 16.1637L12.5414 16.0863L12.9039 15.939L13.2136 15.735L13.4383 15.4971L13.6026 15.1742L13.6838 14.8098Z" fill="black"/></svg>