<svg width="80" height="24" viewBox="0 0 80 24" fill="none" xmlns="http://www.w3.org/2000/svg"><rect width="80" height="24" rx="12" fill="#A0006E"/><path d="M38.52 5.03998H53.48C53.7672 5.03998 54 4.80715 54 4.52004C54 4.23283 53.7672 4 53.48 4H38.52C38.2328 4 38 4.23283 38 4.52004C38 4.80715 38.2328 5.03998 38.52 5.03998Z" fill="white"/><path d="M38.52 19.9999H53.48C53.7672 19.9999 54 19.7671 54 19.4799C54 19.1927 53.7672 18.96 53.48 18.96H38.52C38.2328 18.96 38 19.1927 38 19.4799C38 19.7671 38.2328 19.9999 38.52 19.9999Z" fill="white"/><path d="M52.1762 17.312H39.5999V16.64H52.1762C52.2999 16.64 52.4002 16.7403 52.4002 16.864V17.088C52.4002 17.2117 52.2999 17.312 52.1762 17.312Z" fill="white"/><path fill-rule="evenodd" clip-rule="evenodd" d="M50.7725 10.1068C51.6898 11.109 52.2529 12.3513 52.4007 13.6995C52.418 13.8575 52.4032 14.0811 52.3665 14.2248C52.0999 15.27 51.1596 16 50.0801 16H39.6001V13.6L41.9678 13.6C42.0296 13.6 42.0798 13.5499 42.0798 13.488V10.432C42.0798 10.3702 42.0296 10.32 41.9678 10.32L39.5996 10.32V9.59995H43.4011L44.8254 8.42935L43.0333 6.95704C42.9562 6.89366 42.945 6.77969 43.0084 6.70253L43.1239 6.56198C43.1875 6.48462 43.3017 6.47343 43.3791 6.53698L45.4265 8.21911C45.4893 8.2708 45.5258 8.34791 45.5259 8.42929C45.5259 8.51062 45.4894 8.58779 45.4265 8.63942L44.2578 9.59995H49.6216C50.0581 9.59995 50.4777 9.7847 50.7725 10.1068ZM44.368 15.28C44.4298 15.28 44.4799 15.2299 44.4799 15.168V10.432C44.4799 10.3702 44.4298 10.32 44.368 10.32H42.9118C42.8499 10.32 42.7998 10.3702 42.7998 10.432V15.168C42.7998 15.2299 42.8499 15.28 42.9118 15.28H44.368ZM46.768 15.28C46.8299 15.28 46.8801 15.2299 46.8801 15.168V10.432C46.8801 10.3702 46.8299 10.32 46.768 10.32H45.3119C45.2501 10.32 45.1999 10.3702 45.1999 10.432V15.168C45.1999 15.2299 45.2501 15.28 45.3119 15.28H46.768ZM47.7121 13.6L50.9748 13.6C51.3437 13.6 51.6134 13.2489 51.5157 12.8931C51.281 12.0385 50.8474 11.2534 50.2369 10.5881C50.0791 10.4161 49.855 10.32 49.6216 10.32L47.7121 10.32C47.6502 10.32 47.6 10.3702 47.6 10.432V13.488C47.6 13.5499 47.6502 13.6 47.7121 13.6Z" fill="white"/><path d="M56.8 6.4H71.2C71.6418 6.4 72 6.04183 72 5.6V4.8C72 4.35817 71.6418 4 71.2 4H56.8C56.3582 4 56 4.35817 56 4.8V5.6C56 6.04183 56.3582 6.4 56.8 6.4Z" fill="white"/><path d="M72 19.2V18.4C72 17.9582 71.6418 17.6 71.2 17.6H56.8C56.3582 17.6 56 17.9582 56 18.4V19.2C56 19.6418 56.3582 20 56.8 20H71.2C71.6418 20 72 19.6418 72 19.2Z" fill="white"/><path d="M61.9801 15.1176V10.063H63.8742V8.95403H58.7234V10.063H60.6181V15.1176H61.9801Z" fill="white"/><path d="M65.2783 15.1176V14.3058C65.4352 13.5898 66.1422 12.9353 66.9631 12.2192C67.3735 11.8614 67.8184 11.416 67.8184 10.8222C67.8184 10.29 67.4692 9.8445 66.7972 9.8445C66.256 9.8445 65.8807 10.2374 65.7318 10.4032L65.0859 9.54784C65.6797 9.03271 66.2294 8.78817 67.0593 8.78817C68.1417 8.78817 69.1629 9.41705 69.1629 10.6738C69.1629 11.6369 68.6044 12.1355 67.9434 12.7256C67.8793 12.7828 67.8143 12.8408 67.7488 12.9002L67.6724 12.9699C67.3437 13.2694 66.8088 13.7567 66.7361 14.0874H69.2767V15.1176H65.2783Z" fill="white"/><path d="M33.9641 13.9128L34 14.5624L33.9811 14.9929L33.9282 15.3914L33.8187 15.7917L33.7111 16.1637L33.5109 16.4809L33.3202 16.8133L33.1125 17.1022L32.8198 17.3552L32.5573 17.5931L32.2514 17.7933L31.9153 17.9727L31.5603 18.12L31.2091 18.237L30.8182 18.3164L30.4179 18.3749L30.01 18.3994L29.3661 18.356L28.7335 18.237L28.1538 18.086L27.6931 17.8934L27.3098 17.6857L27.1474 17.5535L27.0378 17.4043L26.9472 17.24L26.9113 17.0512V16.8133L26.9925 16.5338L27.0756 16.2864L27.1832 16.0617L27.289 15.888L27.4457 15.7577L27.6006 15.669L27.7724 15.6369L27.999 15.6595L28.2237 15.735L28.5881 15.888L29.0413 16.0315L29.5304 16.1335L30.01 16.1807L30.3178 16.1769L30.6105 16.1108L30.8805 16.0126L31.1355 15.888L31.3337 15.7048L31.498 15.4971L31.5962 15.229L31.6434 14.9193L31.617 14.6852L31.5603 14.4529L31.4716 14.232L31.3526 14.0318L31.2091 13.8505L31.0259 13.6919L30.5897 13.3936L29.5946 12.8233L29.0508 12.4872L28.607 12.1605L28.2067 11.7809L27.8706 11.3844L27.6081 10.9274L27.4268 10.4365L27.289 9.87188L27.2569 9.2544L27.2625 8.84464L27.3286 8.43866L27.4268 8.07988L27.5628 7.73055L27.7176 7.39632L27.9008 7.11118L28.1349 6.82605L28.388 6.58435L28.6523 6.3502L28.9507 6.1727L29.266 5.99142L29.6022 5.85924L29.9572 5.7535L30.3178 5.66286L30.7106 5.6232L31.0977 5.60999L31.6528 5.64775L32.2231 5.73084L32.7216 5.85924L33.1559 6.05751L33.5109 6.26334L33.6469 6.38985L33.7545 6.51826L33.8187 6.68443L33.8546 6.87892L33.8357 7.09608L33.7829 7.35666L33.7111 7.60403L33.611 7.8023L33.4826 7.98169L33.3561 8.11198L33.1918 8.20829L32.9935 8.23472L32.8028 8.20829L32.5875 8.13087L31.8681 7.85895L31.4716 7.75132L31.0448 7.71355L30.7559 7.73055L30.4651 7.8023L30.2366 7.91182L30.01 8.05722L29.8476 8.23472L29.7287 8.43866L29.6569 8.6747L29.6135 8.93717L29.6305 9.16188L29.7022 9.39414L29.7948 9.58863L29.9458 9.76613L30.1177 9.94552L30.2838 10.1022L30.7106 10.3836L31.6793 10.9048L32.14 11.1956L32.5951 11.526L32.9935 11.9037L33.3372 12.3323L33.611 12.8006L33.8187 13.3256L33.9641 13.9128Z" fill="white"/><path d="M25.8142 6.64477V14.0998L25.7953 14.6304L25.7406 15.1308L25.6518 15.5764L25.514 15.99L25.3516 16.3903L25.1798 16.7415L24.9418 17.0512L24.7077 17.3363L24.4169 17.5931L24.1091 17.7933L23.7824 17.9727L23.4199 18.1389L23.0479 18.237L22.6589 18.3428L22.2227 18.3749L21.7959 18.3994L21.2993 18.3749L20.8197 18.3428L20.4005 18.237L20.0039 18.1389L19.6206 17.9935L19.2769 17.8084L18.9672 17.5931L18.7067 17.3363L18.4423 17.0587L18.2346 16.7415L18.0533 16.3903L17.8909 15.99L17.772 15.5764L17.6908 15.1006L17.6266 14.6172L17.619 14.0677V6.64477L17.6643 6.42573L17.7266 6.22746L17.8362 6.05751L17.991 5.93666L18.1817 5.8328L18.3894 5.7535L18.6236 5.69685H19.1051L19.3241 5.7535L19.5319 5.8328L19.7131 5.93666L19.8944 6.05751L20.0209 6.22746L20.0832 6.42573L20.1191 6.64477V13.8014L20.1399 14.3264L20.2381 14.7909L20.357 15.2158L20.5459 15.5594L20.7536 15.8276L21.0444 16.0315L21.3805 16.1335L21.7959 16.1807L22.1868 16.1335L22.5324 16.0126L22.7948 15.8144L23.0309 15.5406L23.1933 15.2007L23.3028 14.772L23.3745 14.3264L23.384 13.8014V6.64477L23.4199 6.42573L23.5029 6.22746L23.6087 6.05751L23.7749 5.93666L23.9561 5.8328L24.1544 5.7535L24.364 5.69685H24.8172L25.0344 5.7535L25.2232 5.8328L25.4347 5.93666L25.5763 6.05751L25.6953 6.22746L25.7765 6.42573L25.8142 6.64477Z" fill="white"/><path fill-rule="evenodd" clip-rule="evenodd" d="M16.0857 14.2924L16.097 14.6493L16.0857 15.1308L16.0045 15.5406L15.9233 15.939L15.7855 16.3015L15.6401 16.6301L15.4323 16.9247L15.1888 17.1928L14.964 17.4043L14.6903 17.6271L14.3994 17.7933L14.1011 17.9387L13.7744 18.0577L13.4383 18.1389L13.0852 18.2068L12.3884 18.2673H9.20662L8.98003 18.237L8.77043 18.1879L8.56271 18.12L8.38144 18.0256L8.21716 17.8877L8.10008 17.7178L8.01889 17.5365L8 17.3231V6.77507L8.01889 6.57302L8.05477 6.38985L8.13596 6.19913L8.24548 6.05751L8.39844 5.914L8.56271 5.8328L8.76098 5.7535L8.9687 5.73084H12.3337L12.9964 5.79315L13.629 5.914L13.9387 6.02352L14.2389 6.15193L14.5014 6.31621L14.7714 6.49182L15.0056 6.69576L15.2152 6.92047L15.3965 7.17161L15.5608 7.44352L15.7062 7.75132L15.7855 8.07988L15.8421 8.42544L15.8591 8.8031L15.8327 9.34127L15.6967 9.82278L15.4984 10.2571L15.2152 10.614L14.9338 10.9482L14.5807 11.2163L14.2389 11.4637L13.9009 11.6355V11.6884L14.2389 11.7677L14.5713 11.9037L14.9338 12.1473L15.2964 12.4362L15.5985 12.8403L15.7326 13.0669L15.8591 13.3482L15.9497 13.6126L16.0328 13.9412L16.0857 14.2924ZM13.3193 9.79068L13.3571 9.39414L13.3193 8.96549L13.2042 8.62371L13.0134 8.35368L12.7604 8.14975L12.4507 7.98169L12.1146 7.88161L11.7521 7.82307L11.3631 7.8023H10.4208V10.9614H11.3631L11.7351 10.9482L12.0995 10.8765L12.4413 10.7707L12.7491 10.614L12.9964 10.4006L13.2042 10.1306L13.3193 9.79068ZM13.6838 14.8098L13.7197 14.3811L13.6932 14.1413L13.6649 13.9128L13.6101 13.7013L13.5271 13.522L13.4119 13.3539L13.2835 13.2274L13.0134 12.9989L12.6792 12.8535L12.3337 12.7459L11.9692 12.6854L11.6255 12.6722H10.5473V16.1807H11.6255L12.1146 16.1637L12.5414 16.0863L12.9039 15.939L13.2136 15.735L13.4383 15.4971L13.6026 15.1742L13.6838 14.8098Z" fill="white"/><script xmlns=""/></svg>