<svg width="80" height="24" viewBox="0 0 80 24" fill="none" xmlns="http://www.w3.org/2000/svg"><rect width="80" height="24" rx="12" fill="#FF5A00"/><path d="M38.52 5.03998H53.48C53.7672 5.03998 54 4.80715 54 4.52004C54 4.23283 53.7672 4 53.48 4H38.52C38.2328 4 38 4.23283 38 4.52004C38 4.80715 38.2328 5.03998 38.52 5.03998Z" fill="black"/><path d="M38.52 19.9999H53.48C53.7672 19.9999 54 19.7671 54 19.4799C54 19.1927 53.7672 18.96 53.48 18.96H38.52C38.2328 18.96 38 19.1927 38 19.4799C38 19.7671 38.2328 19.9999 38.52 19.9999Z" fill="black"/><path d="M52.1762 17.312H39.5999V16.64H52.1762C52.2999 16.64 52.4002 16.7403 52.4002 16.864V17.088C52.4002 17.2117 52.2999 17.312 52.1762 17.312Z" fill="black"/><path fill-rule="evenodd" clip-rule="evenodd" d="M50.7725 10.1068C51.6898 11.109 52.2529 12.3513 52.4007 13.6995C52.418 13.8575 52.4032 14.0811 52.3665 14.2248C52.0999 15.27 51.1596 16 50.0801 16H39.6001V13.6L41.9678 13.6C42.0296 13.6 42.0798 13.5499 42.0798 13.488V10.432C42.0798 10.3702 42.0296 10.32 41.9678 10.32L39.5996 10.32V9.59995H43.4011L44.8254 8.42935L43.0333 6.95704C42.9562 6.89366 42.945 6.77969 43.0084 6.70253L43.1239 6.56198C43.1875 6.48462 43.3017 6.47343 43.3791 6.53698L45.4265 8.21911C45.4893 8.2708 45.5258 8.34791 45.5259 8.42929C45.5259 8.51062 45.4894 8.58779 45.4265 8.63942L44.2578 9.59995H49.6216C50.0581 9.59995 50.4777 9.7847 50.7725 10.1068ZM44.368 15.28C44.4298 15.28 44.4799 15.2299 44.4799 15.168V10.432C44.4799 10.3702 44.4298 10.32 44.368 10.32H42.9118C42.8499 10.32 42.7998 10.3702 42.7998 10.432V15.168C42.7998 15.2299 42.8499 15.28 42.9118 15.28H44.368ZM46.768 15.28C46.8299 15.28 46.8801 15.2299 46.8801 15.168V10.432C46.8801 10.3702 46.8299 10.32 46.768 10.32H45.3119C45.2501 10.32 45.1999 10.3702 45.1999 10.432V15.168C45.1999 15.2299 45.2501 15.28 45.3119 15.28H46.768ZM47.7121 13.6L50.9748 13.6C51.3437 13.6 51.6134 13.2489 51.5157 12.8931C51.281 12.0385 50.8474 11.2534 50.2369 10.5881C50.0791 10.4161 49.855 10.32 49.6216 10.32L47.7121 10.32C47.6502 10.32 47.6 10.3702 47.6 10.432V13.488C47.6 13.5499 47.6502 13.6 47.7121 13.6Z" fill="black"/><path d="M56.8 6.4H71.2C71.6418 6.4 72 6.04183 72 5.6V4.8C72 4.35817 71.6418 4 71.2 4H56.8C56.3582 4 56 4.35817 56 4.8V5.6C56 6.04183 56.3582 6.4 56.8 6.4Z" fill="black"/><path d="M72 19.2V18.4C72 17.9582 71.6418 17.6 71.2 17.6H56.8C56.3582 17.6 56 17.9582 56 18.4V19.2C56 19.6418 56.3582 20 56.8 20H71.2C71.6418 20 72 19.6418 72 19.2Z" fill="black"/><path d="M64.8514 15.2735C63.9695 15.2735 63.4806 15.0555 63.0704 14.8111L63.5504 13.8592C63.8123 14.0425 64.2403 14.2609 64.7641 14.2609C65.4801 14.2609 65.9253 13.8418 65.9253 13.3177C65.9253 12.6105 65.3841 12.3661 64.7554 12.3661H64.1181V11.3446H64.7641C65.3665 11.3446 65.742 11.0301 65.742 10.5587C65.742 10.166 65.4453 9.80785 64.7991 9.80785C64.2314 9.80785 63.856 10.0786 63.6553 10.2533L63.2101 9.34507C63.7338 8.99602 64.3015 8.79492 65.0785 8.79492C66.3358 8.79492 67.0518 9.54576 67.0518 10.3667C67.0518 11.0042 66.7112 11.5106 66.0564 11.755V11.7723C66.7374 11.9034 67.2525 12.4271 67.2525 13.2917C67.2525 14.3743 66.2835 15.2735 64.8514 15.2735Z" fill="black"/><path fill-rule="evenodd" clip-rule="evenodd" d="M70.5966 13.9144C70.2674 13.9144 70.103 13.7104 70.0502 13.4343C69.7609 13.7763 69.491 13.9473 69.0105 13.9473C68.3919 13.9473 67.9708 13.4998 67.9708 12.901C67.9708 11.947 68.9711 11.7628 69.7477 11.7628C69.8924 11.7628 69.9781 11.7562 69.9781 11.6376V11.4072C69.9781 11.1575 69.8203 10.9205 69.3332 10.9205C68.925 10.9205 68.6157 11.1113 68.4643 11.2428L68.142 10.5847C68.5302 10.3345 68.958 10.2228 69.5635 10.2228C70.0568 10.2228 70.8534 10.4004 70.8534 11.4138V13.0329C70.8534 13.1578 70.8666 13.2633 70.9782 13.2633C71.0178 13.2633 71.0903 13.2435 71.1295 13.2303L71.1822 13.8291C71.0442 13.862 70.8138 13.9144 70.5966 13.9144ZM69.9715 12.3352C69.8726 12.3286 69.7741 12.3286 69.695 12.3286C69.3727 12.3286 68.8854 12.4078 68.8854 12.8289C68.8854 13.0852 69.0698 13.2699 69.3266 13.2699C69.5306 13.2699 69.7016 13.2039 69.8203 13.0786C69.9253 12.967 69.9715 12.8355 69.9715 12.6641V12.3352Z" fill="black"/><path d="M59.947 10.0697V15.1244H58.585V10.0697H56.6903V8.96079H61.8411V10.0697H59.947Z" fill="black"/><path d="M33.9641 14.3029L34 14.9524L33.9811 15.383L33.9282 15.7814L33.8187 16.1817L33.7111 16.5537L33.5109 16.8709L33.3202 17.2033L33.1125 17.4922L32.8198 17.7452L32.5573 17.9831L32.2514 18.1833L31.9153 18.3627L31.5603 18.51L31.2091 18.6271L30.8182 18.7064L30.4179 18.7649L30.01 18.7895L29.3661 18.746L28.7335 18.6271L28.1538 18.476L27.6931 18.2834L27.3098 18.0757L27.1474 17.9435L27.0378 17.7943L26.9472 17.63L26.9113 17.4412V17.2033L26.9925 16.9238L27.0756 16.6764L27.1832 16.4517L27.289 16.278L27.4457 16.1477L27.6006 16.059L27.7724 16.0269L27.999 16.0495L28.2237 16.1251L28.5881 16.278L29.0413 16.4215L29.5304 16.5235L30.01 16.5707L30.3178 16.5669L30.6105 16.5008L30.8805 16.4026L31.1355 16.278L31.3337 16.0948L31.498 15.8871L31.5962 15.619L31.6434 15.3093L31.617 15.0752L31.5603 14.8429L31.4716 14.622L31.3526 14.4218L31.2091 14.2405L31.0259 14.0819L30.5897 13.7836L29.5946 13.2133L29.0508 12.8772L28.607 12.5505L28.2067 12.171L27.8706 11.7744L27.6081 11.3175L27.4268 10.8265L27.289 10.2619L27.2569 9.64442L27.2625 9.23466L27.3286 8.82867L27.4268 8.4699L27.5628 8.12056L27.7176 7.78633L27.9008 7.5012L28.1349 7.21606L28.388 6.97436L28.6523 6.74021L28.9507 6.56271L29.266 6.38144L29.6022 6.24926L29.9572 6.14351L30.3178 6.05287L30.7106 6.01322L31.0977 6L31.6528 6.03777L32.2231 6.12085L32.7216 6.24926L33.1559 6.44753L33.5109 6.65335L33.6469 6.77987L33.7545 6.90827L33.8187 7.07444L33.8546 7.26894L33.8357 7.48609L33.7829 7.74668L33.7111 7.99404L33.611 8.19232L33.4826 8.3717L33.3561 8.502L33.1918 8.5983L32.9935 8.62474L32.8028 8.5983L32.5875 8.52088L31.8681 8.24897L31.4716 8.14133L31.0448 8.10357L30.7559 8.12056L30.4651 8.19232L30.2366 8.30184L30.01 8.44724L29.8476 8.62474L29.7287 8.82867L29.6569 9.06471L29.6135 9.32718L29.6305 9.55189L29.7022 9.78415L29.7948 9.97865L29.9458 10.1561L30.1177 10.3355L30.2838 10.4923L30.7106 10.7736L31.6793 11.2948L32.14 11.5856L32.5951 11.916L32.9935 12.2937L33.3372 12.7223L33.611 13.1906L33.8187 13.7156L33.9641 14.3029Z" fill="black"/><path d="M25.8142 7.03479V14.4898L25.7953 15.0204L25.7406 15.5208L25.6518 15.9664L25.514 16.38L25.3516 16.7803L25.1798 17.1315L24.9418 17.4412L24.7077 17.7263L24.4169 17.9831L24.1091 18.1833L23.7824 18.3627L23.4199 18.5289L23.0479 18.6271L22.6589 18.7328L22.2227 18.7649L21.7959 18.7895L21.2993 18.7649L20.8197 18.7328L20.4005 18.6271L20.0039 18.5289L19.6206 18.3835L19.2769 18.1984L18.9672 17.9831L18.7067 17.7263L18.4423 17.4488L18.2346 17.1315L18.0533 16.7803L17.8909 16.38L17.772 15.9664L17.6908 15.4906L17.6266 15.0072L17.619 14.4577V7.03479L17.6643 6.81575L17.7266 6.61747L17.8362 6.44753L17.991 6.32668L18.1817 6.22282L18.3894 6.14351L18.6236 6.08686H19.1051L19.3241 6.14351L19.5319 6.22282L19.7131 6.32668L19.8944 6.44753L20.0209 6.61747L20.0832 6.81575L20.1191 7.03479V14.1914L20.1399 14.7164L20.2381 15.1809L20.357 15.6058L20.5459 15.9494L20.7536 16.2176L21.0444 16.4215L21.3805 16.5235L21.7959 16.5707L22.1868 16.5235L22.5324 16.4026L22.7948 16.2044L23.0309 15.9306L23.1933 15.5907L23.3028 15.162L23.3745 14.7164L23.384 14.1914V7.03479L23.4199 6.81575L23.5029 6.61747L23.6087 6.44753L23.7749 6.32668L23.9561 6.22282L24.1544 6.14351L24.364 6.08686H24.8172L25.0344 6.14351L25.2232 6.22282L25.4347 6.32668L25.5763 6.44753L25.6953 6.61747L25.7765 6.81575L25.8142 7.03479Z" fill="black"/><path fill-rule="evenodd" clip-rule="evenodd" d="M16.097 15.0393L16.0857 14.6824L16.0328 14.3312L15.9497 14.0026L15.8591 13.7383L15.7326 13.4569L15.5985 13.2303L15.2964 12.8262L14.9338 12.5373L14.5713 12.2937L14.2389 12.1577L13.9009 12.0784V12.0256L14.2389 11.8537L14.5807 11.6064L14.9338 11.3382L15.2152 11.004L15.4984 10.6471L15.6967 10.2128L15.8327 9.73128L15.8591 9.19311L15.8421 8.81545L15.7855 8.4699L15.7062 8.14133L15.5608 7.83354L15.3965 7.56162L15.2152 7.31048L15.0056 7.08577L14.7714 6.88184L14.5014 6.70622L14.2389 6.54194L13.9387 6.41354L13.629 6.30402L12.9964 6.18317L12.3337 6.12085H8.9687L8.76098 6.14351L8.56271 6.22282L8.39844 6.30402L8.24548 6.44753L8.13596 6.58915L8.05477 6.77987L8.01889 6.96303L8 7.16508V17.7131L8.01889 17.9265L8.10008 18.1078L8.21716 18.2777L8.38144 18.4156L8.56271 18.51L8.77043 18.578L8.98003 18.6271L9.20662 18.6573H12.3884L13.0852 18.5968L13.4383 18.5289L13.7744 18.4477L14.1011 18.3287L14.3994 18.1833L14.6903 18.0171L14.964 17.7943L15.1888 17.5828L15.4323 17.3147L15.6401 17.0201L15.7855 16.6916L15.9233 16.329L16.0045 15.9306L16.0857 15.5208L16.097 15.0393ZM13.3571 9.78415L13.3193 10.1807L13.2042 10.5206L12.9964 10.7906L12.7491 11.004L12.4413 11.1607L12.0995 11.2665L11.7351 11.3382L11.3631 11.3514H10.4208V8.19232H11.3631L11.7521 8.21309L12.1146 8.27162L12.4507 8.3717L12.7604 8.53976L13.0134 8.7437L13.2042 9.01373L13.3193 9.35551L13.3571 9.78415ZM13.7197 14.7712L13.6838 15.1998L13.6026 15.5642L13.4383 15.8871L13.2136 16.1251L12.9039 16.329L12.5414 16.4763L12.1146 16.5537L11.6255 16.5707H10.5473V13.0622H11.6255L11.9692 13.0755L12.3337 13.1359L12.6792 13.2435L13.0134 13.3889L13.2835 13.6174L13.4119 13.7439L13.5271 13.912L13.6101 14.0914L13.6649 14.3029L13.6932 14.5313L13.7197 14.7712Z" fill="black"/><script xmlns=""/></svg>