<?xml version="1.0" encoding="utf-8"?> <!-- Generator: Adobe Illustrator 21.0.2, SVG Export Plug-In . SVG Version: 6.00 Build 0)  --> <svg version="1.2" baseProfile="tiny" id="Calque_1" xmlns="http://www.w3.org/2000/svg" xmlns:xlink="http://www.w3.org/1999/xlink" x="0px" y="0px" viewBox="0 0 120 77" xml:space="preserve"> <g> <rect fill-rule="evenodd" fill="#0055C8" width="120" height="77"/> <g> <g> <path fill="#FFCE00" d="M39.5996017,18.4218998v6.4453011H28.3925991v33.7226028H20.5V24.8672009H8.8710899v-6.4453011 H39.5996017z"/> <path fill="#82C8E6" d="M44.9208984,31.0653992l5.9453011,20.160202L56.8125,31.0653992h7.7871017l-9.8916016,27.5244026 h-7.7344017l-9.839798-27.5244026H44.9208984z"/> <path fill="#82C8E6" d="M71.4901962,58.5898018V31.0653992h7.3662033v4.1133003h0.1044998 c2.3154984-3.25,4.4208984-5.1288986,8.7353973-4.5702991c3.6299057,0.4569988,4.6299057,1.6757984,6.7344055,4.0116978 c1.7890015-2.4375,3.9990005-4.6718979,9.996994-4.0116978c5.6827011,0.8125,7.2618027,4.4686985,7.2618027,8.8866978v19.0947037 h-7.3663025V39.6474991c-0.1054001-2.0312996-1.947197-2.7929993-3.6836014-2.8945999 c-3.9461975-0.2538986-5.3661957,3.097702-5.3661957,4.9766006v16.860302h-7.3670959V39.6474991 c-0.4209061-1.9296989-1.7364044-2.8428001-4.0518036-2.8945999c-2.5781021-0.0508003-4.9981003,1.5741997-4.9981003,4.9766006 v16.860302H71.4901962z"/> </g> </g> </g> <g> </g> </svg>