<svg xmlns="http://www.w3.org/2000/svg" xmlns:xlink="http://www.w3.org/1999/xlink" version="1.2" baseProfile="tiny" id="Calque_1" x="0px" y="0px" viewBox="0 0 173.1 175.8" xml:space="preserve"> <g id="ROND"> <g> <path fill="#FFFFFF" d="M156.5,82.1c0,40.8-33.1,73.8-73.8,73.8c-40.8,0-73.8-33.1-73.8-73.8C8.9,41.3,42,8.3,82.7,8.3 C123.5,8.2,156.5,41.3,156.5,82.1z"/> <path fill="#70AFDB" d="M82.7,158.4c-42.1,0-76.4-34.3-76.4-76.4S40.6,5.6,82.7,5.6s76.4,34.3,76.4,76.4 C159.1,124.2,124.8,158.4,82.7,158.4z M82.7,10.8c-39.3,0-71.3,32-71.3,71.3s32,71.3,71.3,71.3s71.3-32,71.3-71.3 S122,10.8,82.7,10.8z"/> </g> </g> <g> <g> <path fill="#C0BFB3" d="M75,64.2c2.7,0,4.1,1,4.2,4.1S79.6,97,79.6,97c-1.1,3.3-5.2,5.6-6.2,2.3c0,0-5.5-10.2-8-14.7 s-3.9-5.8-8.1-7.7c-4.2-2-14.3-7.2-14.3-7.2c-3.4-0.9-1.1-4.9,2.3-5.9C45.4,63.8,72.2,64.2,75,64.2z"/> <path fill="#FFCD0D" d="M108.6,28.5c5.3-1.6,8.3,1.2,6.6,6.4l-10.8,55.9c-1.7,5.1-4.4,5.1-6,0l-8.4-27 c-1.6-5.2-7.3-10.6-12.7-12.1L51,44.5c-5.4-1.5-5.4-4-0.1-5.6L108.6,28.5z"/> </g> <g> <path fill="#4F7F9C" d="M129.4,124.9v-19.5c0,0,3.2-0.6,3.2,2.5s0,17,0,17H129.4z"/> <path fill="#4F7F9C" d="M56,113.4c-0.8,0-1.6,0.7-1.6,1.3c0,0,0,8.7,0,10.2H51c0-1.4,0-9.1,0-9.1c0-3.2,1.4-5.2,4.8-5.2h4.8 c0,0.7-0.1,2.8-1.8,2.8C58.8,113.4,56,113.4,56,113.4z"/> <path fill="#4F7F9C" d="M62.5,124.9v-19.5c0,0,3.2-0.6,3.2,2.5s0,17,0,17H62.5z"/> <path fill="#4F7F9C" d="M83.1,130.4h-7c0,0-0.1-2.8,2-2.8s4.3,0,4.3,0c1.2,0,1.5-0.4,1.5-1V125h-11c-3.4,0-4.8-2-4.8-5.2V114 c0-2,0-1.9,0-3.3c0,0,3.2-0.6,3.2,3.4c0,2.9,0,6.9,0,6.9c0,0.9,0.3,1.2,1.2,1.2h10.6c0.7,0,0.8-0.1,0.8-1.2v-7.6 c0-1.8,0-1.1,0-2.7h3.2v15.5C87.2,128.9,85.7,130.4,83.1,130.4z"/> <path fill="#4F7F9C" d="M45.1,121c0,0.8-0.2,1.2-1.1,1.2H33.2c-0.8,0-1-0.3-1-1.2v-6.4c0-0.8,0.2-1.2,1-1.2h10.9 c0.9,0,1.1,0.3,1.1,1.2L45.1,121L45.1,121z M48.4,120.6V115c0-3-0.9-4.3-4.1-4.3H33c-3.2,0-4.1,1.3-4.1,4.3v5.7 c0,3,0.9,4.3,4.1,4.3h11.2C47.5,125,48.4,123.6,48.4,120.6z"/> <path fill="#4F7F9C" d="M102.4,123.8c0,0-0.7,1.2-1.6,1.2s-0.6,0-1.5,0c-1.1,0-1.8-1.2-1.8-1.2l-7.6-13.2c0,0,0.4,0,1.5,0 s2.1,0.2,3.3,2.2c1.2,2,5.4,9.3,5.4,9.3l6.6-11.5h3.5L102.4,123.8z"/> <path fill="#4F7F9C" d="M123,120.8c0,1.3-0.2,1.4-1.2,1.4h-9.5c-1.1,0-1.5-0.2-1.5-1.2v-1.5c0-1,0.4-1.2,1.5-1.2H123V120.8z M126.2,125c0-1.1,0-3.2,0-4.7V116c0-3.9-1.2-5.4-4.7-5.4h-6.2c0,0-0.7,2.8,3.1,2.8c3.8,0,3.5,0,3.5,0c1,0,1.2,0.3,1.2,0.9 c0,0.7,0,0.7,0,1.1h-11.3c-3.2,0-4.1,2-4.1,4.3v0.8c0,3,0.9,4.3,4.1,4.3h14.4V125z"/> </g> </g> </svg>