<?xml version="1.0" encoding="utf-8"?> <!-- Generator: Adobe Illustrator 21.0.2, SVG Export Plug-In . SVG Version: 6.00 Build 0)  --> <svg version="1.2" baseProfile="tiny" id="Premier_plan" xmlns="http://www.w3.org/2000/svg" xmlns:xlink="http://www.w3.org/1999/xlink" x="0px" y="0px" viewBox="0 0 92 92" overflow="scroll" xml:space="preserve"> <g> <g> <circle fill-rule="evenodd" fill="#DC9600" cx="46" cy="46" r="46"/> <path fill-rule="evenodd" d="M78.9297028,46.3964996c0-11.7285004-3.0214996-26.5508003-18.347702-26.5508003 c-15.3265991,0-18.6362,14.8223-18.6362,26.5508003s3.0219994,26.5508041,18.3480988,26.5508041 C75.6201019,72.9473038,78.9297028,58.125,78.9297028,46.3964996z M67.9208984,46.3964996 c0,5.0371017-0.2881012,18.0605011-7.4833984,18.0605011s-7.5546989-12.9520988-7.5546989-18.0605011 c0-5.1806984,0.2157974-17.9883003,7.5546989-17.9883003C67.705101,28.4081993,67.9208984,41.0723,67.9208984,46.3964996z"/> <path fill-rule="evenodd" d="M35.5121994,71.652298V20.8535004h-8.8505993 c-2.3022003,1.7987995-7.7709999,5.1807003-13.6709003,7.9862995l-3.09373,1.4395008l3.4536304,7.7705002l2.6620989-1.3672028 c1.8711014-0.9354973,6.9795017-3.597599,8.706501-4.964798V71.652298H35.5121994z"/> </g> </g> </svg>