<?xml version="1.0" encoding="utf-8"?> <!-- Generator: Adobe Illustrator 21.0.2, SVG Export Plug-In . SVG Version: 6.00 Build 0)  --> <svg version="1.2" baseProfile="tiny" id="Premier_plan" xmlns="http://www.w3.org/2000/svg" xmlns:xlink="http://www.w3.org/1999/xlink" x="0px" y="0px" viewBox="0 0 92 92" overflow="scroll" xml:space="preserve"> <g> <g> <circle fill-rule="evenodd" fill="#00643C" cx="46" cy="46" r="46"/> <path fill-rule="evenodd" fill="#FFFFFF" d="M36.1395988,71.652298V20.8535004h-8.8504982 c-2.3023014,1.7987995-7.7705002,5.1807003-13.6709003,7.9862995l-3.0938005,1.4395008l3.4535999,7.7705002l2.6626005-1.3672028 c1.8705997-0.9354973,6.9790001-3.597599,8.7061005-4.964798V71.652298H36.1395988z"/> <path fill-rule="evenodd" fill="#FFFFFF" d="M77.5429993,71.652298v-8.4911995H56.6044998 c0.6474991-2.9491997,5.7559013-7.1952972,8.3467026-9.5692978c6.1151962-5.5400009,11.6561966-9.4981003,11.6561966-18.2041016 c0-10.3612995-8.4188995-15.3974991-17.3407974-15.3974991c-6.8350029,0-11.3682022,2.0146999-16.2612,6.2598l5.3246994,7.0508003 c1.222599-1.3672009,4.3163986-4.6044998,8.777298-4.6044998c5.5410004,0,8.4189987,3.5253983,8.4189987,7.9141006 c0,4.8934975-3.6689987,8.4188995-7.051796,11.3690987c-6.7637024,5.9004021-12.591301,11.0810013-13.8862,16.9804993v6.6922989 H77.5429993z"/> </g> </g> </svg>