<?xml version="1.0" encoding="utf-8"?> <!-- Generator: Adobe Illustrator 21.0.2, SVG Export Plug-In . SVG Version: 6.00 Build 0)  --> <svg version="1.2" baseProfile="tiny" id="Premier_plan" xmlns="http://www.w3.org/2000/svg" xmlns:xlink="http://www.w3.org/1999/xlink" x="0px" y="0px" viewBox="0 0 92 92" overflow="scroll" xml:space="preserve"> <g> <g> <circle fill-rule="evenodd" fill="#82C8E6" cx="46" cy="46" r="46"/> <path fill-rule="evenodd" d="M35.7349014,71.652298V20.8535004H26.8848 c-2.3027992,1.7987995-7.7709999,5.1807003-13.6714001,7.9862995l-3.0937996,1.4395008l3.4535999,7.7705002l2.6625996-1.3672028 c1.8705997-0.9354973,6.9790001-3.597599,8.7061005-4.964798V71.652298H35.7349014z"/> <path fill-rule="evenodd" d="M77.2099991,56.6142998c0-7.1240997-4.2452011-11.2968979-9.8583984-12.3759995v-0.1445999 c5.3973999-2.0145988,8.2031021-6.0438995,8.2031021-11.2957993c0-6.7637005-5.9004059-12.8077011-16.2617035-12.8077011 c-5.9716988,0-10.8642998,1.6543007-15.2533989,4.532299l3.5257988,7.4834023 c1.6553001-1.4395008,4.7490997-3.670002,9.4258003-3.670002c5.3241997,0,7.770504,2.8066998,7.770504,6.0440025 c0,3.8856964-3.0937042,6.3319969-8.0586052,6.3319969h-5.3241997v8.4190025h5.2520027 c5.1815987,0,9.642498,1.8710976,9.642498,7.6982002c0,4.3183975-3.669899,7.4833984-9.5703011,7.4833984 c-4.3163986,0-7.8426971-1.6543007-10.0018997-3.3096008l-3.8848,7.842804 c4.1016006,2.3026962,8.0586014,3.8134995,14.6065025,3.8134995 C69.222702,72.6592026,77.2099991,65.5361023,77.2099991,56.6142998z"/> </g> </g> </svg>