<?xml version="1.0" encoding="utf-8"?> <!-- Generator: Adobe Illustrator 21.0.2, SVG Export Plug-In . SVG Version: 6.00 Build 0)  --> <svg version="1.2" baseProfile="tiny" id="Premier_plan" xmlns="http://www.w3.org/2000/svg" xmlns:xlink="http://www.w3.org/1999/xlink" x="0px" y="0px" viewBox="0 0 92 92" overflow="scroll" xml:space="preserve"> <g> <g> <circle fill-rule="evenodd" fill="#0055C8" cx="46" cy="46" r="46"/> <path fill-rule="evenodd" fill="#FFFFFF" d="M62.6083984,71.6582031v-8.4902039H41.669899 c0.6480026-2.9501991,5.7559013-7.1953011,8.3467026-9.5703011c6.1161995-5.5401001,11.6562996-9.497097,11.6562996-18.2040977 c0-10.3614006-8.4190025-15.397501-17.3404007-15.397501c-6.8358994,0-11.3690987,2.0146008-16.2616997,6.2598 l5.3246994,7.0516987c1.2231979-1.3671989,4.3168983-4.6054974,8.7783012-4.6054974 c5.5401001,0,8.4179993,3.5254002,8.4179993,7.9150982c0,4.892601-3.669899,8.4188995-7.0508003,11.3682022 c-6.7636986,5.9002991-12.5918007,11.0809975-13.8872013,16.9813957v6.6914063H62.6083984z"/> </g> </g> </svg>