<?xml version="1.0" encoding="utf-8"?> <!-- Generator: Adobe Illustrator 21.0.2, SVG Export Plug-In . SVG Version: 6.00 Build 0)  --> <svg version="1.2" baseProfile="tiny" id="Premier_plan" xmlns="http://www.w3.org/2000/svg" xmlns:xlink="http://www.w3.org/1999/xlink" x="0px" y="0px" viewBox="0 0 92 92" overflow="scroll" xml:space="preserve"> <g> <g> <circle fill-rule="evenodd" fill="#6E6E00" cx="46" cy="46" r="46"/> <path fill-rule="evenodd" fill="#FFFFFF" d="M62.8905983,56.6200981c0-7.1229973-4.2440987-11.2968979-9.857399-12.3759995 v-0.1434975c5.3964996-2.0147018,8.2031021-6.0440025,8.2031021-11.2969017c0-6.7636986-5.9004021-12.8076-16.2616997-12.8076 c-5.9717026,0-10.8647003,1.6543007-15.2534008,4.5332012l3.5254002,7.482399 c1.6548004-1.4384995,4.7490005-3.6688995,9.4258003-3.6688995c5.3246994,0,7.7709999,2.8055992,7.7709999,6.0438995 c0,3.8857994-3.0937996,6.3320007-8.0586014,6.3320007h-5.3246994v8.4179993H42.3125 c5.1806984,0,9.642601,1.8711014,9.642601,7.6991997c0,4.3174019-3.6699028,7.4833984-9.5703011,7.4833984 c-4.3173981,0-7.8428001-1.6551971-10.0014992-3.3104973l-3.8857002,7.8437004 c4.1014977,2.301796,8.0589981,3.8134995,14.6063995,3.8134995 C54.9043007,72.6660004,62.8905983,65.5419998,62.8905983,56.6200981z"/> </g> </g> </svg>