<?xml version="1.0" encoding="utf-8"?> <!-- Generator: Adobe Illustrator 21.0.2, SVG Export Plug-In . SVG Version: 6.00 Build 0)  --> <svg version="1.2" baseProfile="tiny" id="Premier_plan" xmlns="http://www.w3.org/2000/svg" xmlns:xlink="http://www.w3.org/1999/xlink" x="0px" y="0px" viewBox="0 0 92 92" overflow="scroll" xml:space="preserve"> <g> <circle fill-rule="evenodd" fill="#82C8E6" cx="46" cy="46" r="46"/> <path fill-rule="evenodd" d="M63.205101,53.107399c0-3.5370979-1.589901-7.5410004-5.4297028-7.5410004 c-1.8642998,0-2.9882965,0.9873009-3.9755974,2.4131012v-7.6503983h-3.8661995v20.2919998h3.7285004v-0.767601 c0.7402,0.6856003,2.0292969,1.1240005,3.1269989,1.1240005C61.4775009,60.9775009,63.205101,56.3983994,63.205101,53.107399z M59.1738014,53.6562004c0,2.0009995-0.547802,4.5792007-3.0156021,4.5792007 c-1.7558975,0-2.3583984-0.9053001-2.3583984-1.9190025V51.517601c0-0.8506012,0.0820007-1.2616997,0.7402-1.892601 c0.4111977-0.4110985,1.014698-0.7402,1.782299-0.7402C58.7626991,48.8848,59.1738014,51.6815987,59.1738014,53.6562004z"/> <path fill-rule="evenodd" d="M70.7412033,42.0839996c0-1.1786995-0.823204-2.0293007-2.1387024-2.0293007 c-1.3163986,0-2.1660004,0.8506012-2.1660004,2.0293007c0,1.1796989,0.8496017,2.0293007,2.1660004,2.0293007 C69.9179993,44.1133003,70.7412033,43.2636986,70.7412033,42.0839996z M70.5214996,60.6211014v-14.642601h-3.8651962v14.642601 H70.5214996z"/> <path fill-rule="evenodd" d="M84.2987976,56.2333984c0-2.2206993-1.2889938-3.4277-3.2626953-4.1679993l-1.7822037-0.6581993 c-0.9326019-0.3291016-1.5350952-0.6855011-1.5350952-1.4530983c0-0.877903,0.7401962-1.3984032,2.0282974-1.3984032 c0.9326019,0,2.1122971,0.3291016,2.9618988,0.877903l1.1787033-2.8252029 c-0.767601-0.3837967-2.110405-0.9589996-3.948204-0.9589996c-3.4277954,0-5.7587967,2.1660004-5.7587967,4.9356003 c0,1.7275009,0.8506012,3.0712013,2.934494,3.8661995l1.7266006,0.6582031 c0.7686005,0.3016968,1.8652039,0.6034966,1.8652039,1.6180992c0,1.1513977-1.2342987,1.4804993-2.2480011,1.4804993 c-1.1523972,0-2.4961014-0.4384995-3.4276962-1.0966988L73.8516006,59.9902 c0.822197,0.4931984,2.4686966,1.1240997,4.3047028,1.1240997C81.9961014,61.1142998,84.2987976,59.0849991,84.2987976,56.2333984z "/> <path fill-rule="evenodd" d="M43.4405785,56.1273994c0-6.5450058-3.8997116-10.3802147-9.0575218-11.3717499v-0.131855 c4.9586029-1.8512192,7.5374603-5.5535622,7.5374603-10.3802147c0-6.214859-5.4216118-11.7683258-14.9421425-11.7683258 c-5.4871273,0-9.9830837,1.5200615-14.0156631,4.1653519l3.2393303,6.8752403 c1.5205212-1.3217735,4.3636436-3.3711853,8.660944-3.3711853c4.8926277,0,7.1404209,2.5779381,7.1404209,5.5534668 c0,3.570488-2.8427525,5.8181915-7.4046841,5.8181915h-4.8926258v7.7349205h4.8261929 c4.760313,0,8.8601513,1.7192688,8.8601513,7.0744476c0,3.9670639-3.3721066,6.8761597-8.7937183,6.8761597 c-3.9670639,0-7.2063961-1.5208893-9.1899281-3.0418701l-3.5703945,7.2072258 c3.7686834,2.1150208,7.4050522,3.5040512,13.4211636,3.5040512C36.1023293,70.871254,43.4405785,64.3253326,43.4405785,56.1273994 z"/> </g> </svg>