<?xml version="1.0" encoding="utf-8"?> <!-- Generator: Adobe Illustrator 21.0.2, SVG Export Plug-In . SVG Version: 6.00 Build 0)  --> <svg version="1.2" baseProfile="tiny" id="Premier_plan" xmlns="http://www.w3.org/2000/svg" xmlns:xlink="http://www.w3.org/1999/xlink" x="0px" y="0px" viewBox="0 0 92 92" overflow="scroll" xml:space="preserve"> <g> <g> <circle fill-rule="evenodd" fill="#82DC73" cx="46" cy="46.0001259" r="45.9998741"/> <path fill-rule="evenodd" d="M63.4520988,55.5898018c0-9.4961014-6.7635994-15.0376015-15.0379982-15.0376015 c-5.3959999,0-8.6343002,1.9434013-10.3609009,3.453701c0.6479988-10.2173004,5.9004021-15.3257008,12.8793983-15.3257008 c2.8789024,0,5.4688034,0.6473999,6.8360023,1.222599l1.5830002-8.6338005 c-2.0870018-0.5038986-4.6767998-0.8631992-7.5557022-0.8631992c-15.9730988,0-24.1039982,12.0878983-24.1039982,29.7172012 c0,13.4550972,4.8925991,23.0234985,18.5640011,23.0234985C56.6884995,73.1464996,63.4520988,65.7362976,63.4520988,55.5898018z M53.3075981,56.669899c0,4.3887024-2.5184975,8.490303-7.4115982,8.490303c-5.0365982,0-7.7709999-4.677803-7.7709999-9.4981003 c0-1.5098,0-3.4531021,0.5761986-4.3164024c1.0068016-1.5839996,3.5254021-2.8065987,6.6191025-2.8065987 C50.2128983,48.5391006,53.3075981,51.919899,53.3075981,56.669899z"/> </g> </g> </svg>