<?xml version="1.0" encoding="utf-8"?> <!-- Generator: Adobe Illustrator 21.0.2, SVG Export Plug-In . SVG Version: 6.00 Build 0)  --> <svg version="1.2" baseProfile="tiny" id="Premier_plan" xmlns="http://www.w3.org/2000/svg" xmlns:xlink="http://www.w3.org/1999/xlink" x="0px" y="0px" viewBox="0 0 92 92" overflow="scroll" xml:space="preserve"> <g> <g> <circle fill-rule="evenodd" fill="#82DC73" cx="46" cy="46" r="46"/> <path fill-rule="evenodd" d="M63.5303001,53.107399c0-3.5370979-1.5908012-7.5410004-5.4286995-7.5410004 c-1.8652992,0-2.9902992,0.9873009-3.9766006,2.4131012v-7.6503983h-3.8671989v20.2919998h3.7304993v-0.767601 c0.7402,0.6856003,2.0293007,1.1240005,3.125,1.1240005C61.8027,60.9775009,63.5303001,56.3983994,63.5303001,53.107399z M59.4990005,53.6562004c0,2.0009995-0.547802,4.5792007-3.0166016,4.5792007c-1.7538986,0-2.357399-0.9053001-2.357399-1.9190025 V51.517601c0-0.8506012,0.0820007-1.2616997,0.7402-1.892601c0.4112015-0.4110985,1.0147018-0.7402,1.782299-0.7402 C59.0878983,48.8848,59.4990005,51.6815987,59.4990005,53.6562004z"/> <path fill-rule="evenodd" d="M71.0663986,42.0839996c0-1.1786995-0.8222961-2.0293007-2.1387024-2.0293007 c-1.3163986,0-2.1659927,0.8506012-2.1659927,2.0293007c0,1.1796989,0.8495941,2.0293007,2.1659927,2.0293007 C70.2441025,44.1133003,71.0663986,43.2636986,71.0663986,42.0839996z M70.847702,60.6211014v-14.642601h-3.8672028v14.642601 H70.847702z"/> <path fill-rule="evenodd" d="M45.3203011,30.8721008C34.3456993,49.9570007,28.8584003,62.9813995,28.8584003,69.9452972 H18.2138996c0-2.9091949,0.4409008-5.6854935,1.3227005-8.3300972c0.7490005-2.2041016,2.2255993-5.3330002,4.4291992-9.3885994 l11.3715992-21.1563015H12.6605997v-7.8007984h32.6597023V30.8721008z"/> <path fill-rule="evenodd" d="M84.6240005,56.2333984c0-2.2206993-1.2881012-3.4277-3.2627029-4.1679993l-1.7831955-0.6581993 c-0.9316025-0.3291016-1.5351028-0.6855011-1.5351028-1.4530983c0-0.877903,0.7402039-1.3984032,2.0293045-1.3984032 c0.9325943,0,2.1112976,0.3291016,2.9608994,0.877903l1.1796951-2.8252029 c-0.767601-0.3837967-2.1112976-0.9589996-3.9491959-0.9589996c-3.427803,0-5.7578049,2.1660004-5.7578049,4.9356003 c0,1.7275009,0.8496017,3.0712013,2.9336014,3.8661995l1.7285004,0.6582031 c0.7675018,0.3016968,1.8642044,0.6034966,1.8642044,1.6180992c0,1.1513977-1.2343063,1.4804993-2.2490005,1.4804993 c-1.1514053,0-2.4951019-0.4384995-3.4277039-1.0966988L74.1768036,59.9902 C75,60.4833984,76.6445007,61.1142998,78.482399,61.1142998C82.3202972,61.1142998,84.6240005,59.0849991,84.6240005,56.2333984z" /> </g> </g> </svg>