<?xml version="1.0" encoding="utf-8"?> <!-- Generator: Adobe Illustrator 21.0.2, SVG Export Plug-In . SVG Version: 6.00 Build 0)  --> <svg version="1.2" baseProfile="tiny" id="Premier_plan" xmlns="http://www.w3.org/2000/svg" xmlns:xlink="http://www.w3.org/1999/xlink" x="0px" y="0px" viewBox="0 0 92 92" overflow="scroll" xml:space="preserve"> <g> <g> <circle fill-rule="evenodd" fill="#D282BE" cx="46" cy="46" r="46"/> <path fill-rule="evenodd" d="M63.7080002,57.4608994c0-6.6913986-4.1016006-10.7206993-8.7773018-12.9510994 C59.6786995,41.6309013,62.125,37.9618988,62.125,33.2128983c0-8.7069988-7.4110985-13.0956974-16.3330002-13.0956974 c-8.7070007,0-16.3339996,5.8280983-16.3339996,14.2470989c0,5.2518997,2.7344017,8.3465996,7.1240005,11.0800018 c-4.8924999,2.5185966-8.706501,6.4755974-8.706501,13.2392998c0,7.6991959,6.403801,14.4628983,17.7006989,14.4628983 C56.0088005,73.1464996,63.7080002,67.1025009,63.7080002,57.4608994z M52.4110985,33.8604012 c0,3.1660004-2.8768997,6.1161995-5.5389977,7.3387985c-3.2383003-1.3671989-7.4121017-3.597599-7.4121017-7.7705002 c0-3.5263996,2.5185013-5.972599,6.4765015-5.972599C50.1094017,27.4561005,52.4110985,30.3349991,52.4110985,33.8604012z M53.2030983,58.2519989c0,4.0292015-2.6620979,7.4121017-7.4833984,7.4121017 c-4.892601,0-7.6268997-3.9580002-7.6268997-8.1319008c0-3.9570007,3.3105011-7.2666016,6.6200981-8.5615005 C49.0303001,51.1288986,53.2030983,53.6474991,53.2030983,58.2519989z"/> </g> </g> </svg>