<?xml version="1.0" encoding="utf-8"?> <!-- Generator: Adobe Illustrator 21.0.2, SVG Export Plug-In . SVG Version: 6.00 Build 0)  --> <svg version="1.2" baseProfile="tiny" id="Premier_plan" xmlns="http://www.w3.org/2000/svg" xmlns:xlink="http://www.w3.org/1999/xlink" x="0px" y="0px" viewBox="0 0 92 92" overflow="scroll" xml:space="preserve"> <g> <g> <circle fill-rule="evenodd" fill="#D2D200" cx="46" cy="46" r="46"/> <path fill-rule="evenodd" d="M27.7758999,37.6738014c0,9.4981003,6.7637005,15.0380974,15.038599,15.0380974 c5.3964005,0,8.6337013-1.9423981,10.3613014-3.4540977c-0.6484985,10.2178001-5.9004021,15.3261986-12.8804016,15.3261986 c-2.8778992,0-5.4678001-0.6474991-6.8353996-1.2226982l-1.5829983,8.6338005 c2.0869007,0.5038986,4.6771984,0.864296,7.5550976,0.864296c15.9742012,0,24.1050034-12.0888977,24.1050034-29.7167969 c0-13.4561005-4.8935013-23.0254002-18.5644035-23.0254002C34.5396004,20.1172009,27.7758999,27.5282993,27.7758999,37.6738014z M37.9213982,36.5946999c0-4.3895988,2.5185013-8.4911995,7.4111023-8.4911995c5.0365982,0,7.7709999,4.6777,7.7709999,9.4981003 c0,1.5116997,0,3.4540977-0.5761986,4.3172989c-1.0068016,1.5830994-3.5253029,2.8067017-6.6191025,2.8067017 C41.0150986,44.7256012,37.9213982,41.3437004,37.9213982,36.5946999z"/> </g> </g> </svg>