<svg xmlns="http://www.w3.org/2000/svg" baseProfile="tiny" version="1.2" viewBox="0 0 120 77">  <!-- Generator: Adobe Illustrator 28.6.0, SVG Export Plug-In . SVG Version: 1.2.0 Build 709)  -->  <g>    <g id="Calque_1">      <rect width="120" height="77" fill="#a50034"/>      <rect width="120" height="68.75" fill="#0a0082"/>      <path d="M34.3408,38.708V8.5161h-6.1543v20.4019h-.0849c-.0889-.3726-.3711-.9746-.8448-1.8072-.4746-.832-1.1201-1.8408-1.9365-3.0258l-10.6973-15.5689h-6.1103v30.1919h6.1963v-19.6269h.0859c.124.3603.3994.9541.8233,1.7802.4238.8257,1.0195,1.772,1.7861,2.8384l10.8682,15.0083h6.0683Z" fill="#fff" fill-rule="evenodd"/>      <g>        <path d="M52.6567383,62.0175781v-27.1923828c-2.1074219,1.6650391-5.4389648,3.2822266-7.7416992,4.3115234l-2.3520508-5.2919922c3.6259766-1.5185547,7.9863281-3.8212891,11.4160156-6.4179688h6.0263672v34.5908203h-7.3486328Z" fill="#fff"/>        <path d="M65.8388672,62.0175781v-4.5566406c.8818359-4.0175781,4.8505859-7.6923828,9.4560547-11.7099609,2.3027344-2.0087891,4.8017578-4.5078125,4.8017578-7.8398438,0-2.9882812-1.9599609-5.4873047-5.7324219-5.4873047-3.0380859,0-5.1445312,2.2050781-5.9775391,3.1357422l-3.6259766-4.8017578c3.3320312-2.890625,6.4179688-4.2626953,11.0732422-4.2626953,6.0751953,0,11.8076172,3.5283203,11.8076172,10.5839844,0,5.9277344-3.7724609,8.7207031-7.9375,12.4931641-1.7636719,1.6171875-5.2421875,4.6552734-5.6835938,6.6640625h14.2578125v5.78125h-22.4394531Z" fill="#fff"/>        <path d="M101.3134766,62.8505859c-4.9482422,0-7.6923828-1.2246094-9.9951172-2.5966797l2.6953125-5.3408203c1.4697266,1.0292969,3.8701172,2.2539062,6.8105469,2.2539062,4.0175781,0,6.5166016-2.3515625,6.5166016-5.2919922,0-3.96875-3.0380859-5.3398438-6.5664062-5.3398438h-3.5761719v-5.7324219h3.6259766c3.3808594,0,5.4873047-1.7646484,5.4873047-4.4101562,0-2.2050781-1.6660156-4.2138672-5.2919922-4.2138672-3.1845703,0-5.2910156,1.5195312-6.4179688,2.4990234l-2.4990234-5.0957031c2.9394531-1.9599609,6.125-3.0869141,10.4853516-3.0869141,7.0556641,0,11.0732422,4.2138672,11.0732422,8.8193359,0,3.5771484-1.9111328,6.4189453-5.5859375,7.7910156v.0976562c3.8222656.7353516,6.7128906,3.6748047,6.7128906,8.5253906,0,6.0751953-5.4384766,11.1220703-13.4746094,11.1220703Z" fill="#fff"/>      </g>    </g>  </g></svg>