<svg xmlns="http://www.w3.org/2000/svg" id="Calque_1" baseProfile="tiny" version="1.2" viewBox="0 0 120 77">  <!-- Generator: Adobe Illustrator 29.0.1, SVG Export Plug-In . SVG Version: 2.1.0 Build 192)  -->  <g>    <rect width="120" height="77" fill="#ff582a"/>    <rect width="120" height="68.75" fill="#0a0082"/>  </g>  <g>    <path d="M31.3911133,53.1513672l-11.6855469-16.1479492c-1.6557617-2.2548828-2.5302734-4.2324219-2.8061523-4.96875h-.0917969v21.1166992h-6.6708984V20.6713867h6.5786133l11.5014648,16.7460938c1.7480469,2.5307617,2.8061523,4.4165039,2.9902344,5.1987305h.0922852v-21.9448242h6.6245117v32.4799805h-6.5327148Z" fill="#fff"/>    <path d="M51.3989258,53.1513672v-25.5336914c-1.9780273,1.5644531-5.1064453,3.0830078-7.2685547,4.0488281l-2.2084961-4.96875c3.4042969-1.4257812,7.4990234-3.5878906,10.7192383-6.0263672h5.6586914v32.4799805h-6.9008789Z" fill="#fff"/>    <path d="M72.0986328,53.9335938c-4.6464844,0-7.2226562-1.1503906-9.3847656-2.4384766l2.5302734-5.0146484c1.3798828.9658203,3.6347656,2.1162109,6.3945312,2.1162109,3.7724609,0,6.1191406-2.2080078,6.1191406-4.96875,0-3.7265625-2.8525391-5.0151367-6.1650391-5.0151367h-3.3583984v-5.3818359h3.4042969c3.1748047,0,5.1523438-1.65625,5.1523438-4.140625,0-2.0703125-1.5634766-3.9570312-4.9677734-3.9570312-2.9912109,0-4.96875,1.4267578-6.0273438,2.3466797l-2.3457031-4.7841797c2.7597656-1.8408203,5.75-2.8984375,9.8447266-2.8984375,6.625,0,10.3974609,3.9560547,10.3974609,8.2802734,0,3.3583984-1.7949219,6.0273438-5.2451172,7.3154297v.0917969c3.5888672.6904297,6.3027344,3.4501953,6.3027344,8.0053711,0,5.7050781-5.1064453,10.4433594-12.6513672,10.4433594Z" fill="#fff"/>    <path d="M99.8828125,54.0253906c-9.7988281,0-11.7314453-9.6611328-11.7314453-17.1606445,0-7.4990234,2.1162109-17.1601562,11.9160156-17.1601562,9.7988281,0,11.7314453,9.6611328,11.7314453,17.1601562,0,7.4995117-2.1162109,17.1606445-11.9160156,17.1606445ZM99.9746094,25.1801758c-4.6923828,0-4.8300781,8.3720703-4.8300781,11.6845703,0,3.2670898.2304688,11.7319336,4.8300781,11.7319336,4.6005859,0,4.7851562-8.5107422,4.7851562-11.7319336,0-3.4042969-.1376953-11.6845703-4.7851562-11.6845703Z" fill="#fff"/>  </g></svg>