<svg xmlns="http://www.w3.org/2000/svg" xmlns:xlink="http://www.w3.org/1999/xlink" version="1.2" baseProfile="tiny" id="Calque_1" x="0px" y="0px" viewBox="0 0 120 77"  xml:space="preserve"> <rect fill-rule="evenodd" fill="#6E6E00" width="120" height="77"/> <rect fill-rule="evenodd" fill="#0A0082" width="120" height="68.75"/> <path fill-rule="evenodd" fill="#FFFFFF" d="M34.3408012,38.7080002V8.5160999h-6.1543007v20.4018993h-0.0848999 c-0.0889015-0.3725986-0.3711014-0.9745998-0.8448009-1.8071995c-0.4745998-0.8320007-1.1201-1.8407993-1.9365005-3.0258007 L14.6230001,8.5160999H8.5127001v30.1919003h6.1962996V19.0811005h0.0859003 c0.1239996,0.3603001,0.3993998,0.9540997,0.8233004,1.7801991c0.4237995,0.8257008,1.0194988,1.7720013,1.7861004,2.8383999 l10.8681984,15.0083008H34.3408012z"/> <g> <g> <path fill="#FFFFFF" d="M53.642601,62.017601V34.9091988c-2.1006012,1.6611023-5.4219017,3.2723999-7.7173004,4.297802 l-2.3446999-5.2754021c3.6142006-1.5135994,7.9613991-3.8089981,11.3802986-6.3978977h6.0079002v34.483902H53.642601z"/> <path fill="#FFFFFF" d="M75.5233994,62.8476982c-4.9336014,0-7.6688995-1.2206993-9.964798-2.5888977l2.6875-5.3241997 c1.464798,1.0262985,3.857399,2.2469978,6.7891006,2.2469978c4.0047989,0,6.4961014-2.3446999,6.4961014-5.2753983 c0-3.9560013-3.0293045-5.3241997-6.5450058-5.3241997H71.419899v-5.7148018h3.615303 c3.3690948,0,5.4706955-1.7577972,5.4706955-4.3945007c0-2.1992989-1.6620941-4.2011986-5.2753983-4.2011986 c-3.1757965,0-5.2753983,1.5136986-6.3984985,2.4911995L66.339798,29.6826 c2.9317017-1.9535999,6.1054993-3.0771008,10.4532013-3.0771008c7.0332031,0,11.0390015,4.2011013,11.0390015,8.7919998 c0,3.5653992-1.9051971,6.3983994-5.5682983,7.7666016v0.097599c3.809494,0.732399,6.6913986,3.6621017,6.6913986,8.4981003 C88.955101,57.8163986,83.5332031,62.8476982,75.5233994,62.8476982z"/> <path fill="#FFFFFF" d="M101.652298,62.8476982c-4.9325943,0-7.6679001-1.2206993-9.9627991-2.5888977L94.375,54.9346008 c1.4657974,1.0262985,3.8593979,2.2469978,6.7891006,2.2469978c4.0057983,0,6.4960938-2.3446999,6.4960938-5.2753983 c0-3.9560013-3.0273972-5.3241997-6.5449982-5.3241997h-3.5643997v-5.7148018h3.6133041 c3.3710938,0,5.4706955-1.7577972,5.4706955-4.3945007c0-2.1992989-1.660202-4.2011986-5.2753983-4.2011986 c-3.1738968,0-5.2743988,1.5136986-6.3984985,2.4911995L92.4707031,29.6826 c2.9296951-1.9535999,6.1054993-3.0771008,10.4521942-3.0771008c7.0341034,0,11.038002,4.2011013,11.038002,8.7919998 c0,3.5653992-1.9043045,6.3983994-5.5672989,7.7666016v0.097599c3.809494,0.732399,6.6913986,3.6621017,6.6913986,8.4981003 C115.0849991,57.8163986,109.6630936,62.8476982,101.652298,62.8476982z"/> </g> </g> <g> </g> </svg>