<svg xmlns="http://www.w3.org/2000/svg" id="Calque_1" baseProfile="tiny" version="1.2" viewBox="0 0 120 77">  <!-- Generator: Adobe Illustrator 29.0.1, SVG Export Plug-In . SVG Version: 2.1.0 Build 192)  -->  <g>    <rect width="120" height="77" fill="#5191cd"/>    <rect width="120" height="68.75" fill="#0a0082"/>  </g>  <g>    <path d="M29.78125,53.1513672l-11.6855469-16.1479492c-1.6557617-2.2548828-2.5302734-4.2324219-2.8061523-4.96875h-.0917969v21.1166992h-6.6708984V20.6713867h6.5786133l11.5014648,16.7460938c1.7480469,2.5307617,2.8061523,4.4165039,2.9902344,5.1987305h.0922852v-21.9448242h6.6245117v32.4799805h-6.5327148Z" fill="#fff"/>    <path d="M49.7890625,53.1513672v-25.5336914c-1.9780273,1.5644531-5.1064453,3.0830078-7.2685547,4.0488281l-2.2084961-4.96875c3.4042969-1.4257812,7.4990234-3.5878906,10.7192383-6.0263672h5.6586914v32.4799805h-6.9008789Z" fill="#fff"/>    <path d="M82.7265625,46.3886719v6.7626953h-6.4414062v-6.7626953h-14.6289062v-6.0263672l12.6054688-19.690918h8.4648438v20.6567383h3.8183594v5.0605469h-3.8183594ZM76.2851562,26.3754883h-.0917969c-.1376953.5527344-1.0576172,2.5302734-2.3457031,4.5546875l-6.625,10.3979492h9.0625v-14.9526367Z" fill="#fff"/>    <path d="M101.4931641,54.0253906c-9.7998047,0-11.7314453-9.6611328-11.7314453-17.1606445,0-7.4990234,2.1162109-17.1601562,11.9150391-17.1601562,9.7998047,0,11.7314453,9.6611328,11.7314453,17.1601562,0,7.4995117-2.1162109,17.1606445-11.9150391,17.1606445ZM101.5849609,25.1801758c-4.6923828,0-4.8310547,8.3720703-4.8310547,11.6845703,0,3.2670898.2304688,11.7319336,4.8310547,11.7319336s4.7841797-8.5107422,4.7841797-11.7319336c0-3.4042969-.1376953-11.6845703-4.7841797-11.6845703Z" fill="#fff"/>  </g></svg>