<svg xmlns="http://www.w3.org/2000/svg" baseProfile="tiny" version="1.2" viewBox="0 0 120 77">  <!-- Generator: Adobe Illustrator 28.6.0, SVG Export Plug-In . SVG Version: 1.2.0 Build 709)  -->  <g>    <g id="Calque_1">      <rect width="120" height="77" fill="#640082"/>      <rect width="120" height="68.75" fill="#0a0082"/>      <path d="M34.3408,38.708V8.5161h-6.1543v20.4019h-.0849c-.0889-.3726-.3711-.9746-.8448-1.8072-.4746-.832-1.1201-1.8408-1.9365-3.0258l-10.6973-15.5689h-6.1103v30.1919h6.1963v-19.6269h.0859c.124.3603.3994.9541.8233,1.7802.4238.8257,1.0195,1.772,1.7861,2.8384l10.8682,15.0083h6.0683Z" fill="#fff" fill-rule="evenodd"/>      <g>        <path d="M51.2895508,62.0175781v-27.1923828c-2.1074219,1.6650391-5.4389648,3.2822266-7.7416992,4.3115234l-2.3520508-5.2919922c3.6259766-1.5185547,7.9863281-3.8212891,11.4160156-6.4179688h6.0263672v34.5908203h-7.3486328Z" fill="#fff"/>        <path d="M73.8300781,62.8505859c-4.0185547,0-7.1044922-.8818359-9.7509766-2.4990234l2.7929688-5.3896484c1.9111328,1.3232422,3.8710938,2.2050781,6.5654297,2.2050781,2.6953125,0,6.0761719-1.6171875,6.0761719-5.6835938,0-2.4990234-1.6660156-5.9287109-8.0361328-6.0263672-1.9599609,0-4.2626953-.0488281-5.3896484-.0488281l1.3720703-17.9814453h18.1777344v5.78125h-12.4453125l-.4892578,6.5654297c.1953125,0,.6367188.0488281.9794922.0488281,9.4560547.4414062,13.2783203,5.78125,13.2783203,10.9755859,0,6.6142578-5.2431641,12.0527344-13.1308594,12.0527344Z" fill="#fff"/>        <path d="M100.2900391,62.8505859c-4.0175781,0-7.1044922-.8818359-9.7509766-2.4990234l2.7929688-5.3896484c1.9111328,1.3232422,3.8710938,2.2050781,6.5654297,2.2050781,2.6953125,0,6.0761719-1.6171875,6.0761719-5.6835938,0-2.4990234-1.6660156-5.9287109-8.0361328-6.0263672-1.9599609,0-4.2626953-.0488281-5.3896484-.0488281l1.3720703-17.9814453h18.1777344v5.78125h-12.4453125l-.4892578,6.5654297c.1953125,0,.6367188.0488281.9794922.0488281,9.4560547.4414062,13.2783203,5.78125,13.2783203,10.9755859,0,6.6142578-5.2431641,12.0527344-13.1308594,12.0527344Z" fill="#fff"/>      </g>    </g>  </g></svg>