<svg xmlns="http://www.w3.org/2000/svg" xmlns:xlink="http://www.w3.org/1999/xlink" version="1.2" baseProfile="tiny" id="Calque_1" x="0px" y="0px" viewBox="0 0 120 77"  xml:space="preserve"> <g> <rect fill-rule="evenodd" fill="#DC9600" width="120" height="77"/> <rect fill-rule="evenodd" fill="#0A0082" width="120" height="68.75"/> </g> <path fill-rule="evenodd" fill="#FFFFFF" d="M34.3408012,38.7080002V8.5165997h-6.1543007v20.4019012h-0.0848999 c-0.0889015-0.3726006-0.3711014-0.9747009-0.8448009-1.8072014c-0.4745998-0.8319988-1.1201-1.8407993-1.9365005-3.0258999 l-10.697299-15.5688H8.5127001v30.1914005h6.1962996V19.0814991h0.0859003 c0.1239996,0.3604012,0.3993998,0.9541016,0.8233004,1.7803001c0.4237995,0.8257008,1.0194988,1.7720013,1.7861004,2.8383999 l10.8681984,15.0078011H34.3408012z"/> <g> <path fill="#FFFFFF" d="M72.3877029,52.9413986v8.9609032h-8.5342026v-8.9609032H44.4687996V44.955101L61.1708984,18.8652 h11.2168045v27.3711014h5.0596008v6.7050972H72.3877029z M63.8535004,26.4242992h-0.1221008 c-0.1825981,0.7315006-1.402298,3.3526001-3.1092987,6.0347004l-8.777401,13.7773018h12.0088005V26.4242992z"/> <path fill="#FFFFFF" d="M80.4121017,61.9023018v-5.6689034c1.0966949-4.9989967,6.0341949-9.5712967,11.7647018-14.5692978 c2.8651962-2.5,5.9735947-5.6084023,5.9735947-9.7535c0-3.7187004-2.4384995-6.8276005-7.1317978-6.8276005 c-3.7792969,0-6.4003983,2.7432003-7.4375,3.9013996l-4.5108032-5.9736996 c4.1455002-3.5965996,7.9863052-5.3036995,13.7774048-5.3036995c7.5585938,0,14.6903915,4.3892002,14.6903915,13.1674995 c0,7.3759995-4.6933975,10.8501015-9.8749924,15.5443993c-2.1942978,2.0117989-6.5224991,5.7910995-7.0713043,8.2901001h17.7393036 v7.1933022H80.4121017z"/> </g> <g> </g> </svg>