<svg xmlns="http://www.w3.org/2000/svg" xmlns:xlink="http://www.w3.org/1999/xlink" version="1.2" baseProfile="tiny" id="Calque_1" x="0px" y="0px" viewBox="0 0 120 77"  xml:space="preserve"> <g> <rect fill-rule="evenodd" fill="#FF82B4" width="120" height="77"/> <rect fill-rule="evenodd" fill="#0A0082" width="120" height="68.75"/> </g> <path fill-rule="evenodd" fill="#FFFFFF" d="M34.3408012,38.7080002V8.5165997h-6.1543007v20.4019012h-0.0848999 c-0.0889015-0.3726006-0.3711014-0.9747009-0.8448009-1.8072014c-0.4745998-0.8319988-1.1201-1.8407993-1.9365005-3.0258999 l-10.697299-15.5688H8.5127001v30.1914005h6.1962996V19.0814991h0.0859003 c0.1239996,0.3604012,0.3993998,0.9541016,0.8233004,1.7803001c0.4237995,0.8257008,1.0194988,1.7720013,1.7861004,2.8383999 l10.8681984,15.0078011H34.3408012z"/> <g> <path fill="#FFFFFF" d="M62.5976982,62.9384995c-11.7656975,0-15.9716988-8.1689987-15.9716988-19.5673981 c0-14.9351006,7.0107002-25.6641006,20.7871017-25.6641006c2.4384995,0,4.6327972,0.3046989,6.4618988,0.7314987 l-1.3407974,7.3154011c-1.1582031-0.4878006-3.4141006-1.0366001-5.9131012-1.0366001 c-6.035202,0-10.4238014,4.8158989-11.0342026,13.4721985c1.4629021-1.2803001,4.267601-2.9263,8.9003983-2.9263 c7.1318054,0,12.8623047,4.6938019,12.8623047,12.7406998C77.3496017,56.5996017,71.6191025,62.9384995,62.5976982,62.9384995z M61.7440987,42.0293007c-2.7430992,0-4.9375,1.0370979-5.7910004,2.3778992 c-0.4872971,0.7314987-0.4872971,2.4384995-0.4872971,3.7178001c0,4.0849991,2.3769989,8.0469017,6.7655983,8.0469017 c4.267601,0,6.461998-3.4746017,6.461998-7.1934013C68.6933975,44.955101,66.0117035,42.0293007,61.7440987,42.0293007z"/> <path fill="#FFFFFF" d="M80.4121017,61.9023018v-5.6689034c1.0966949-4.9989967,6.0341949-9.5712967,11.7647018-14.5692978 c2.8651962-2.5,5.9735947-5.6084023,5.9735947-9.7535c0-3.7187004-2.4384995-6.8276005-7.1317978-6.8276005 c-3.7792969,0-6.4003983,2.7432003-7.4375,3.9013996l-4.5108032-5.9736996 c4.1455002-3.5965996,7.9863052-5.3036995,13.7774048-5.3036995c7.5585938,0,14.6903915,4.3892002,14.6903915,13.1674995 c0,7.3759995-4.6933975,10.8501015-9.8749924,15.5443993c-2.1942978,2.0117989-6.5224991,5.7910995-7.0713043,8.2901001h17.7393036 v7.1933022H80.4121017z"/> </g> <g> </g> </svg>