<svg xmlns="http://www.w3.org/2000/svg" xmlns:xlink="http://www.w3.org/1999/xlink" version="1.2" baseProfile="tiny" id="Calque_1" x="0px" y="0px" viewBox="0 0 120 77"  xml:space="preserve"> <g> <rect fill-rule="evenodd" fill="#A0006E" width="120" height="77"/> <rect fill-rule="evenodd" fill="#0A0082" width="120" height="68.75"/> </g> <path fill-rule="evenodd" fill="#FFFFFF" d="M34.3408012,38.7080002V8.5165997h-6.1543007v20.4019012h-0.0848999 c-0.0889015-0.3726006-0.3711014-0.9747009-0.8448009-1.8072014c-0.4745998-0.8319988-1.1201-1.8407993-1.9365005-3.0258999 l-10.697299-15.5688H8.5127001v30.1914005h6.1962996V19.0814991h0.0859003 c0.1239996,0.3604012,0.3993998,0.9541016,0.8233004,1.7803001c0.4237995,0.8257008,1.0194988,1.7720013,1.7861004,2.8383999 l10.8681984,15.0078011H34.3408012z"/> <g> <path fill="#FFFFFF" d="M60.3428001,61.9023018h-9.8144989c0-5.6689034,1.5234985-9.3261032,5.3027992-16.3369026 l10.4852982-19.5067997H45.4071999V18.8652h30.1142998v7.0102997 C66.0723038,42.2733994,60.3428001,55.1357002,60.3428001,61.9023018z"/> <path fill="#FFFFFF" d="M91.6288986,61.9023018V28.0702991c-2.6211014,2.0723-6.7666016,4.0840015-9.6317978,5.3643017 l-2.9258041-6.5834999c4.510704-1.8897018,9.9365005-4.7549,14.2031021-7.9859009h7.4981003v43.0371017H91.6288986z"/> </g> <g> </g> </svg>