<svg xmlns="http://www.w3.org/2000/svg" xmlns:xlink="http://www.w3.org/1999/xlink" version="1.2" baseProfile="tiny" id="Calque_1" x="0px" y="0px" viewBox="0 0 120 77"  xml:space="preserve"> <g> <rect fill-rule="evenodd" fill="#FF1400" width="120" height="77"/> <g> <g> <path fill="#FFFFFF" d="M96.4589996,60.5723c0,0.3964005-0.0313034,0.6972008-0.0898972,0.9217987 c-0.0595016,0.2207031-0.2207031,0.4707031-0.4863052,0.7452011c-0.1464996,0.1650009-0.3378983,0.2929001-0.5604935,0.4012985 c-0.2305069,0.1016006-0.4893036,0.1485023-0.7842026,0.1485023c-0.5918045,0-1.0108032-0.1836014-1.2588043-0.5586014 c-0.2528992-0.3731003-0.375-0.8593979-0.375-1.4659004v-7.4179001h-3.0888977v8.055603 c0,0.5723,0.0713043,1.1044998,0.2099991,1.5937996c0.1387024,0.4902,0.3516006,0.9179993,0.6406021,1.2850952 c0.285202,0.3643036,0.657196,0.6485062,1.1093979,0.8544998c0.4599991,0.2032013,1.0028992,0.3057022,1.6348038,0.3057022 c0.7518997,0,1.3827972-0.160202,1.8964005-0.4940948c0.5186005-0.3282013,0.9747009-0.7696075,1.3710938-1.3262024 l0.0039063,1.4501953h2.8632965V53.3466988h-3.0858994V60.5723 M86.4882965,57.6641006 c-0.2714996-0.3106003-0.5859985-0.5527992-0.9511948-0.7373009C85.1776962,56.7402,84.7891006,56.6190987,84.3798981,56.5625 v-0.0429993c0.3047028-0.0615005,0.6063995-0.172802,0.9014053-0.3437004 c0.2929001-0.1641006,0.5565948-0.3828011,0.7899933-0.6455002C86.3047028,55.2655983,86.5,54.9599991,86.642601,54.6083984 c0.1483994-0.3466988,0.2225952-0.7235985,0.2225952-1.1200981c0-0.8339996-0.1776962-1.5088005-0.5262985-2.0312996 c-0.3544998-0.5156021-0.801796-0.9150009-1.3466949-1.1933022c-0.5401001-0.2753983-1.1464996-0.4628983-1.8153992-0.5615997 C82.5106964,49.607399,81.8603973,49.5625,81.2285004,49.5625h-5.7304993v15.5087967h5.4961014 c0.7324982,0,1.4785995-0.0663986,2.2363968-0.1991959c0.7557983-0.1308975,1.4452972-0.3769989,2.0605011-0.7333984 c0.6182022-0.3614006,1.1211014-0.8516006,1.5116959-1.4756012c0.3868027-0.6240005,0.5821075-1.4229012,0.5821075-2.4062996 c0-0.5449028-0.0811005-1.0351028-0.240303-1.4716034C86.9833984,58.3418007,86.7587967,57.9706993,86.4882965,57.6641006z M78.7567978,52.1171989h1.8759995c0.2774048,0,0.7207031,0.0088005,1.0713043,0.0214996 c0.3525009,0.0156021,0.6826019,0.0761032,0.9872971,0.1855011c0.3096008,0.1171989,0.5703049,0.2939987,0.7822037,0.5429993 c0.2138977,0.2549019,0.319397,0.6054993,0.319397,1.0625c0,0.4453011-0.1035004,0.7871017-0.3076019,1.0303001 c-0.2080994,0.2451019-0.4580994,0.4199028-0.7597961,0.5340996c-0.2998047,0.1104012-0.6231003,0.1709023-0.9628983,0.1875 c-0.3447037,0.0157013-0.6660004,0.0214996-0.9561005,0.0214996h-2.0498047V52.1171989z M83.8740005,61.3857002 c-0.1688995,0.2998009-0.3886032,0.5293007-0.6747971,0.7001991c-0.2744064,0.1679993-0.5957031,0.2793007-0.9629059,0.330101 c-0.3671951,0.0508003-0.7480011,0.0780983-1.1464996,0.0780983h-2.3330002V58.169899h2.1592026 c0.2802963,0,0.6035004,0.0126991,0.982399,0.0429993c0.3711014,0.0312004,0.7207031,0.1074028,1.052803,0.2334023 c0.3280945,0.1221008,0.6092987,0.3173981,0.8358994,0.5888977c0.2266006,0.2723999,0.3427963,0.6543007,0.3427963,1.1318016 C84.1298981,60.6836014,84.0400009,61.0858994,83.8740005,61.3857002z M110.107399,60.2841988 c-0.1386032-0.3622971-0.3378983-0.6856003-0.5976028-0.9687996c-0.2538986-0.2733994-0.5586014-0.5116997-0.9160004-0.6982002 c-0.3497009-0.1913986-0.7314987-0.3652-1.1445999-0.5263977l-1.0311966-0.3759995 c-0.1464996-0.0429001-0.3037033-0.1044006-0.4609985-0.1757011c-0.1611023-0.0704002-0.3134003-0.1581993-0.4531021-0.2588005 c-0.1396027-0.1044998-0.2509995-0.2187996-0.3408051-0.3506012c-0.0878983-0.1288986-0.1317978-0.2860985-0.1317978-0.4589996 c0-0.2616997,0.113205-0.5224991,0.339798-0.7733994c0.2305069-0.2569008,0.6582031-0.3828011,1.2891006-0.3828011 c0.380806,0,0.7861023,0.0634003,1.2216034,0.1855011c0.4327011,0.1221008,0.8173981,0.294899,1.1573029,0.5166016 L109.9843979,53.75c-0.3067017-0.1679993-0.7266006-0.3339996-1.2558975-0.5098 c-0.5254059-0.1757011-1.1680069-0.2616997-1.9160004-0.2616997c-0.6894989,0-1.3184052,0.0976982-1.8809052,0.3027 c-0.5682983,0.2070999-1.0605011,0.4883003-1.4657974,0.8476982c-0.4111023,0.3594017-0.7313995,0.7773018-0.9502029,1.2616997 c-0.2216949,0.4844017-0.3300934,1.0069008-0.3300934,1.5576019c0,0.8662987,0.2304993,1.5479012,0.6953964,2.0362015 c0.4608994,0.4902,1.0742035,0.8768997,1.8387985,1.1757965l0.9717026,0.3691025 c0.1581955,0.0625,0.3378983,0.1288986,0.5381012,0.2011986c0.1981964,0.0683022,0.3856964,0.1621017,0.5634995,0.2695007 c0.1737976,0.1113014,0.3260956,0.2440987,0.4530945,0.3964996c0.1240005,0.1543007,0.1865005,0.3418007,0.1865005,0.5565987 c0,0.2364006-0.0585938,0.4317017-0.1649933,0.5811005c-0.110405,0.1543007-0.2549057,0.2763023-0.4307022,0.3711014 c-0.1767044,0.0966988-0.3711014,0.1640015-0.5848999,0.1982002c-0.2139053,0.0391006-0.4218979,0.0586014-0.6289978,0.0586014 c-0.4658051,0-0.9492035-0.0840034-1.4443054-0.2461014c-0.4901962-0.1571999-0.9266968-0.3671989-1.3115005-0.6328011 l-0.9472961,2.2616997c0.3378983,0.2031021,0.8144989,0.4024048,1.4218979,0.6035004 c0.6093979,0.1952972,1.2891006,0.2929993,2.0371017,0.2929993c0.7656021,0,1.4570007-0.0936966,2.0762024-0.2831955 c0.6151962-0.1914063,1.1307983-0.4600067,1.5507965-0.8008041c0.4160004-0.344696,0.7412033-0.7538986,0.9686966-1.2294998 c0.2246017-0.4755974,0.3408051-0.9979973,0.3408051-1.5692978 C110.3153992,61.0761986,110.2460938,60.6523018,110.107399,60.2841988z M21.2313995,62.5770988 c-0.3085003-0.4580002-0.6180992-0.9188995-0.9349995-1.3797989c-0.3159008-0.4628983-0.6030006-0.9003983-0.8696003-1.3134995 c-0.2656994-0.4071999-0.5049-0.7764015-0.7129002-1.1026001c-0.2167988-0.3310013-0.3731003-0.592701-0.4741993-0.7831993 c0.3379002-0.0576019,0.3881989-0.1738014,0.7831993-0.3476028c0.3990002-0.1777,0.7623005-0.4257965,1.1016006-0.7519989 c0.3398991-0.3222008,0.6226006-0.722599,0.8500996-1.1953011c0.2275009-0.4784966,0.3423004-1.0389977,0.3423004-1.6796989 c0-0.7206993-0.1147995-1.3260994-0.3423004-1.8280983c-0.2255993-0.4941025-0.5258999-0.9121017-0.8925991-1.2383003 c-0.3667011-0.3270988-0.7866001-0.5937004-1.2671013-0.7793007c-0.4741001-0.1893997-0.9564991-0.3320007-1.4540997-0.4179001 c-0.487299-0.0859985-0.9750996-0.1436005-1.4496994-0.1679993C15.4326,49.5761986,15.0059004,49.5625,14.6225996,49.5625 H9.6845703v15.5087967h3.2558298v-6.1942978h1.4068003c0.1732998,0,0.3799,0.0488014,0.6146994,0.1406021 c0.2329006,0.0956993,0.4736004,0.3554001,0.7271004,0.7831993l3.0971003,5.2704964h4.1640987 c-0.2339001-0.3358994-0.5038986-0.7167969-0.8027-1.1513977C21.8442001,63.4863014,21.5380993,63.0419998,21.2313995,62.5770988 z M17.7987995,55.2753983c-0.1758003,0.2803001-0.4018002,0.4941025-0.6737995,0.6504021 c-0.2681007,0.152298-0.5776005,0.2578011-0.9204006,0.3173981c-0.3437996,0.0605011-0.6786995,0.0908012-1.0019999,0.0908012 h-2.2621994v-4.1211014h2.0655003c0.3358994,0,0.6835995,0.0215034,1.0428991,0.0664024 c0.3589001,0.0429993,0.6905003,0.1348,0.9922009,0.2812004c0.2964001,0.1367989,0.5453987,0.3359985,0.7318993,0.5996971 c0.1933994,0.2656021,0.2886009,0.6171036,0.2886009,1.0566025 C18.0615005,54.6474991,17.9722004,54.9940987,17.7987995,55.2753983z M68.5537033,59.9971008 c-0.1289063,0.5321999-0.2451019,1.0438995-0.3437042,1.5429001c-0.0908966,0.4990997-0.1552963,0.8330002-0.1846008,1.0107994 h-0.0410004c-0.0312958-0.1777992-0.0937958-0.5116997-0.1884995-1.0107994 c-0.0966949-0.4990005-0.2080002-1.0107002-0.3437958-1.5429001l-1.6297989-6.6504021h-3.3907051l4.0098,12.4081993 c-0.089798,0.3387985-0.2362976,0.6152039-0.4286957,0.8213043c-0.1992035,0.2157974-0.4248047,0.3876953-0.672905,0.5204773 c-0.25,0.1308594-0.5205002,0.2226639-0.8075943,0.2763672c-0.2842026,0.0478516-0.5517044,0.0703125-0.8017044,0.0703125 l0.2861023,2.3769531c0.7919998-0.0585938,1.8544998-0.1972656,2.4346008-0.4130859 c0.5790939-0.2255859,1.0780945-0.5107498,1.4882965-0.8720703c0.4082031-0.3574295,0.75-0.7714844,1.0205002-1.2402344 c0.2723999-0.4687195,0.4951019-0.9883194,0.6748047-1.5566254l3.9432983-12.3915977H70.1875L68.5537033,59.9971008z M33.4110985,54.8232002c-0.4574966-0.5830002-1.0355988-1.0458984-1.732399-1.3866997 c-0.7011986-0.3446999-1.5361004-0.5145988-2.5067997-0.5145988c-0.9556007,0-1.7896004,0.169899-2.4995003,0.5145988 c-0.7153988,0.3408012-1.3076992,0.8017998-1.7773991,1.3740005c-0.4741001,0.5732994-0.8262005,1.2343979-1.0596008,1.9902992 c-0.2357998,0.7538986-0.3505001,1.5508003-0.3505001,2.3828011c0,0.8417969,0.1089001,1.6386986,0.3285999,2.3974991 c0.2207012,0.7625999,0.5580997,1.4384003,1.0136013,2.0185013c0.4566002,0.5772018,1.0346985,1.0410004,1.7314987,1.3837967 c0.6997013,0.342804,1.5381012,0.5186005,2.5073013,0.5186005c0.9521999,0,1.788599-0.1757965,2.5019989-0.5186005 c0.7143002-0.3427963,1.3047009-0.8057022,1.7749004-1.3759995c0.4735985-0.5741997,0.8218002-1.2343979,1.0615005-1.9921989 c0.2352982-0.7547989,0.3520012-1.5488014,0.3520012-2.3828011c0-0.8378983-0.1118011-1.6347008-0.3320007-2.3964996 C34.2046013,56.0723,33.8647003,55.4014015,33.4110985,54.8232002z M31.4277,60.5536995 c-0.0727005,0.4561005-0.2035999,0.8711014-0.3857002,1.2432022c-0.1875,0.3768997-0.4419003,0.6796989-0.7632008,0.9237976 c-0.3231983,0.2421989-0.7299995,0.3642998-1.2128983,0.3642998c-0.4858017,0-0.8862-0.1269989-1.1948013-0.3838005 c-0.3100986-0.2577972-0.5502987-0.5781975-0.7299995-0.9570999c-0.1781998-0.3836975-0.2933998-0.8036995-0.351099-1.267498 c-0.0610008-0.4599991-0.0908012-0.8995018-0.0908012-1.3106003s0.0366001-0.8456993,0.1093998-1.3046989 c0.075201-0.4502029,0.2060013-0.8652,0.3906002-1.2422028c0.1792011-0.3759003,0.4379997-0.6795998,0.7607994-0.9217987 c0.321701-0.2461014,0.7270012-0.3671989,1.2119007-0.3671989c0.4883003,0,0.8847008,0.1288986,1.1942997,0.3866997 c0.3101006,0.2598,0.5531998,0.5761986,0.7300014,0.9608994c0.1752987,0.3769989,0.2933998,0.7979012,0.3519993,1.2626991 c0.0601006,0.4629021,0.0888996,0.9014015,0.0888996,1.3134995C31.5370998,59.6601982,31.5014992,60.0956993,31.4277,60.5536995z M60.5723,59.3153992c-0.2538986-0.2733994-0.5586014-0.5116997-0.9121017-0.6982002 c-0.3526001-0.1913986-0.7382965-0.3652-1.149498-0.5263977l-1.030201-0.3759995 c-0.1455002-0.0429001-0.3008003-0.1044006-0.4628983-0.1757011c-0.1581993-0.0704002-0.3115005-0.1581993-0.4491997-0.2588005 c-0.1407013-0.1044998-0.2539024-0.2187996-0.3418007-0.3506012c-0.089901-0.1288986-0.1309013-0.2860985-0.1309013-0.4589996 c0-0.2616997,0.1113014-0.5224991,0.3379021-0.7733994c0.2304993-0.2569008,0.6562004-0.3828011,1.2890968-0.3828011 c0.3808022,0,0.788002,0.0634003,1.2246017,0.1855011c0.4315987,0.1221008,0.8143997,0.294899,1.1543007,0.5166016 L61.0479012,53.75c-0.3057022-0.1679993-0.7294998-0.3339996-1.2559013-0.5098 c-0.5303001-0.1757011-1.1669998-0.2616997-1.9160004-0.2616997c-0.6923981,0-1.3173981,0.0976982-1.8838005,0.3027 c-0.5673981,0.2070999-1.0546989,0.4883003-1.4648972,0.8476982c-0.4101028,0.3594017-0.7304001,0.7773018-0.9492035,1.2616997 c-0.2186966,0.4844017-0.3270988,1.0069008-0.3270988,1.5576019c0,0.8662987,0.2285004,1.5479012,0.6914024,2.0362015 c0.4638977,0.4902,1.0751991,0.8768997,1.8388977,1.1757965l0.9706993,0.3691025 c0.1621017,0.0625,0.3456993,0.1288986,0.5390015,0.2011986C57.4911995,60.7988014,57.6786995,60.892601,57.8544998,61 c0.1786995,0.1113014,0.3310013,0.2440987,0.4520988,0.3964996c0.125,0.1543007,0.1875,0.3418007,0.1875,0.5565987 c0,0.2364006-0.0516968,0.4317017-0.1639977,0.5811005c-0.1094017,0.1543007-0.2539024,0.2763023-0.4297028,0.3711014 c-0.1777,0.0966988-0.3730965,0.1640015-0.5839996,0.1982002c-0.2108994,0.0391006-0.4237976,0.0586014-0.6278992,0.0586014 c-0.4696999,0-0.9540977-0.0840034-1.4453011-0.2461014c-0.4911995-0.1571999-0.9286995-0.3671989-1.3125-0.6328011 L52.982399,64.544899c0.3379021,0.2031021,0.8125,0.4024048,1.4219017,0.6035004 c0.6093979,0.1952972,1.2891006,0.2929993,2.0381012,0.2929993c0.7636986,0,1.4559975-0.0936966,2.0712967-0.2831955 c0.6172028-0.1914063,1.1386032-0.4600067,1.5527-0.8008041c0.4190025-0.344696,0.7422028-0.7538986,0.9707031-1.2294998 c0.2274971-0.4755974,0.3407974-0.9979973,0.3407974-1.5692978c0-0.4824028-0.0682983-0.9062996-0.2070007-1.2744026 C61.0312996,59.9219017,60.8320007,59.5985985,60.5723,59.3153992z M50.5517998,59.3153992 c-0.2569008-0.2733994-0.5615997-0.5116997-0.9131012-0.6982002c-0.3564987-0.1913986-0.7363968-0.3652-1.1464996-0.5263977 l-1.0370979-0.3759995c-0.1455002-0.0429001-0.2940025-0.1044006-0.4619026-0.1757011 c-0.1591988-0.0704002-0.309597-0.1581993-0.4482994-0.2588005c-0.1405983-0.1044998-0.2557983-0.2187996-0.3378983-0.3506012 C46.1161995,56.8008003,46.0723,56.6436005,46.0723,56.4706993c0-0.2616997,0.1152-0.5224991,0.3418007-0.7733994 c0.2264977-0.2569008,0.6562004-0.3828011,1.2870979-0.3828011c0.3828011,0,0.7910004,0.0634003,1.2217026,0.1855011 c0.4334984,0.1221008,0.8192978,0.294899,1.1571999,0.5166016L51.0253983,53.75 c-0.3114967-0.1679993-0.7245979-0.3339996-1.2538986-0.5098c-0.5312996-0.1757011-1.1689987-0.2616997-1.919899-0.2616997 c-0.6905022,0-1.3184013,0.0976982-1.8848,0.3027c-0.5644989,0.2070999-1.0527,0.4883003-1.4618988,0.8476982 c-0.4111023,0.3594017-0.7276001,0.7773018-0.9502029,1.2616997c-0.2187996,0.4844017-0.3290977,1.0069008-0.3290977,1.5576019 c0,0.8662987,0.2313995,1.5479012,0.6942978,2.0362015c0.4629021,0.4902,1.0772018,0.8768997,1.8389015,1.1757965 l0.9716988,0.3691025c0.1621017,0.0625,0.3408012,0.1288986,0.5410004,0.2011986 c0.1973,0.0683022,0.3828011,0.1621017,0.5625,0.2695007c0.1758003,0.1113014,0.3261986,0.2440987,0.4520988,0.3964996 c0.1260033,0.1543007,0.1827011,0.3418007,0.1827011,0.5565987c0,0.2364006-0.0499001,0.4317017-0.1641006,0.5811005 c-0.107399,0.1543007-0.2509995,0.2763023-0.4277,0.3711014c-0.1758003,0.0966988-0.3691978,0.1640015-0.5820999,0.1982002 c-0.214798,0.0391006-0.4237976,0.0586014-0.6317978,0.0586014c-0.4678001,0-0.9502029-0.0840034-1.4424019-0.2461014 c-0.4921989-0.1571999-0.9315987-0.3671989-1.3105011-0.6328011l-0.9482994,2.2616997 c0.3379021,0.2031021,0.8096008,0.4024048,1.4209023,0.6035004c0.6093979,0.1952972,1.2891006,0.2929993,2.0391006,0.2929993 c0.759697,0,1.4550972-0.0936966,2.0702972-0.2831955c0.6172028-0.1914063,1.1338005-0.4600067,1.5527-0.8008041 c0.4179993-0.344696,0.7442017-0.7538986,0.9706993-1.2294998c0.2237015-0.4755974,0.339901-0.9979973,0.339901-1.5692978 c0-0.4824028-0.0723-0.9062996-0.2080002-1.2744026C51.0038986,59.9219017,50.8086014,59.5985985,50.5517998,59.3153992z M38.8125,48.1758003c-1.0469017,0-1.8964996,0.7998009-1.8964996,1.7890015 c0,0.9843979,0.8495979,1.7831993,1.8964996,1.7831993c1.0458984,0,1.892601-0.7988014,1.892601-1.7831993 C40.705101,48.9756012,39.8583984,48.1758003,38.8125,48.1758003z M37.2392998,53.3466988v11.7245979h3.0868988V53.3466988 H37.2392998z"/> <g> <path fill="#FFFFFF" d="M72.1894989,7.4081998c-4.7128983,0-9.0098,1.7676005-12.2793007,4.6699004 c-3.2656975-2.9052-7.5683975-4.6699004-12.2812996-4.6699004c-10.2206993,0-18.5082989,8.2812996-18.5082989,18.5039005 c0,10.2197018,8.2875996,18.5039005,18.5082989,18.5039005c4.7129021,0,9.0156021-1.7656021,12.2812996-4.6679993 c3.2695007,2.9003983,7.5664024,4.6679993,12.2793007,4.6679993c10.2197037,0,18.5057983-8.2841988,18.5057983-18.5039005 C90.6952972,15.6894999,82.4092026,7.4081998,72.1894989,7.4081998z M47.6288986,42.2235985 c-9.0116997,0-16.3143978-7.3016968-16.3143978-16.3114986s7.3026981-16.3125,16.3143978-16.3125 c9.0098,0,16.3106003,7.3027,16.3106003,16.3125S56.6386986,42.2235985,47.6288986,42.2235985z M77.7656021,38.0155983 c0,0-1.1562042-3.4930992-4.5136032-3.4940987c-3.3574982,0.0009995-4.5195999,3.4940987-4.5195999,3.4940987h-4.125 c0,0,3.3614044-4.0194969,5.2832031-8.785099c2.2753983-5.6376991,2.3516006-10.7549,2.3516006-13.5829992 c0-0.3702002-0.0088043-0.6494999-0.1543045-0.8242998c-0.2206955-0.2656002-0.2118988-0.7645998-0.2118988-0.7645998 v-1.1504002L72.5313034,12.25c0.2362976-0.2461004,0.384697-0.5811005,0.384697-0.9473h0.0019989v-1.0643997 c0,0,0.0467987-0.1309004,0.2342987-0.1328001h0.1915054c0.1884003,0.0018997,0.2372971,0.1328001,0.2372971,0.1328001V11.3027 h0.0009003c0,0.3661995,0.1464996,0.7011995,0.3827972,0.9473l0.6563034,0.6582003v1.1504002 c0,0,0.0077972,0.4989996-0.2138977,0.7645998c-0.1445007,0.1747999-0.1533051,0.4540997-0.1533051,0.8242998 c0,2.8280993,0.0772018,7.9453001,2.3506012,13.5829992c1.9227982,4.7656021,5.2822037,8.785099,5.2822037,8.785099H77.7656021z M54.8945007,20.0946999c-1.0312004,0.7607994-2.655201,1.9815006-4.3222008,3.2578011l-11.125-1.5595016 c-0.2089996-0.0292988-0.5234985,0.0468006-0.6894989,0.1806011l-1.2402,0.9277992l7.8905983,4.4433002 c-1.5145988,1.1807003-2.9248009,2.2901001-4.0155983,3.1611996c-0.205101,0.1669998-0.5508003,0.2674999-0.7929993,0.2461014 l-4.4814034-0.5762005c-0.3281975-0.0449009-0.6088982,0.0830002-0.8022995,0.2304001l-0.8125,0.6044998l4.1636009,2.9101982 c0.8027,0.5576019,6.6474991-2.5243988,8.9560013-4.0692978c1.9668007-1.3194008,8.5704002-6.2950001,9.9902992-7.5186005 c1.4258003-1.2157993,2.5586014-2.7236004,2.1259995-3.2978001 C59.3964996,18.5849991,56.4746017,18.9335995,54.8945007,20.0946999z M73.7714996,28.1025009h-1.0332031 c-0.1913986,0-0.3183975,0.0790997-0.3759995,0.3427982c-0.0048981,0.0244007-0.532196,2.4619007-0.9511948,3.9160023h3.6904984 c-0.4199982-1.4541016-0.9463043-3.8916016-0.9522018-3.9160023 C74.0917969,28.1816006,73.964798,28.1025009,73.7714996,28.1025009z"/> </g> </g> </g> </g> <g> </g> </svg>