<svg xmlns="http://www.w3.org/2000/svg" version="1.2" baseProfile="tiny" width="92" height="92" viewBox="0 0 92 92">  <path d="M90.3125 45.90625c0 24.484375-19.847656 44.332031-44.332031 44.332031-24.488281 0-44.335938-19.847656-44.335938-44.332031S21.492188 1.570312 45.980469 1.570312c24.484375 0 44.332031 19.851563 44.332031 44.335938Zm0 0" style="stroke:none;fill-rule:nonzero;fill:#fff;fill-opacity:1"/>  <path d="M45.976562 91.773438C20.6875 91.773438.109375 71.199219.109375 45.90625.109375 20.617188 20.6875.0390625 45.976562.0390625c25.292969 0 45.867188 20.5781255 45.867188 45.8671875 0 25.292969-20.574219 45.867188-45.867188 45.867188Zm0-88.667969c-23.597656 0-42.796874 19.199219-42.796874 42.800781s19.199218 42.800781 42.796874 42.800781c23.601563 0 42.800782-19.199219 42.800782-42.800781S69.578125 3.105469 45.976562 3.105469Zm0 0" style="stroke:none;fill-rule:nonzero;fill:#70afdb;fill-opacity:1"/>  <path d="M41.320312 35.167969c1.644532 0 2.445313.589843 2.519532 2.441406.085937 1.847656.257812 17.207031.257812 17.207031-.652344 1.972656-3.121094 3.347656-3.746094 1.371094 0 0-3.28125-6.152344-4.78125-8.824219-1.515624-2.675781-2.359374-3.5-4.878906-4.621093-2.515625-1.125-8.550781-4.269532-8.550781-4.269532-2.058594-.558594-.648437-2.917968 1.402344-3.546875 0 0 16.132812.242188 17.777343.242188Zm0 0" style="stroke:none;fill-rule:nonzero;fill:#c0bfb3;fill-opacity:1"/>  <path d="M61.515625 13.730469c3.183594-.988281 4.964844.738281 3.941406 3.824219L59 51.105469c-1.023438 3.089843-2.644531 3.078125-3.621094-.019531l-5.046875-16.15625c-.980469-3.101563-4.402343-6.351563-7.628906-7.238282l-15.808594-4.3125c-3.230469-.875-3.253906-2.398437-.054687-3.386718Zm0 0" style="stroke:none;fill-rule:nonzero;fill:#ffcd0d;fill-opacity:1"/>  <path d="M73.988281 71.652344V59.953125s1.9375-.335937 1.9375 1.496094v10.203125Zm-44.066406-6.910156c-.476563 0-.988281.4375-.988281.765624v6.144532h-2.050782v-5.46875c0-1.917969.84375-3.125 2.875-3.125h2.90625c0 .421875-.054687 1.683594-1.085937 1.683594Zm3.941406 6.910156V59.953125s1.933594-.335937 1.933594 1.496094v10.203125Zm12.34375 3.257812h-4.1875s-.050781-1.679687 1.210938-1.679687h2.609375c.730468 0 .875-.222657.875-.625v-.949219h-6.632813c-2.03125 0-2.871093-1.207031-2.871093-3.125v-5.464844s1.9375-.351562 1.9375 2.058594v4.136719c0 .53125.183593.714843.714843.714843h6.34375c.398438 0 .507813-.054687.507813-.730468v-6.179688h1.9375v9.320313c0 1.628906-.875 2.523437-2.445313 2.523437Zm-22.785156-5.621094c0 .496094-.144531.695313-.65625.695313h-6.542969c-.476562 0-.625-.199219-.625-.695313v-3.839843c0-.492188.148438-.695313.625-.695313h6.542969c.511719 0 .65625.203125.65625.695313Zm1.9375-.21875v-3.402343c0-1.789063-.546875-2.59375-2.484375-2.59375h-6.726562c-1.9375 0-2.484376.804687-2.484376 2.59375v3.402343c0 1.792969.546876 2.597657 2.484376 2.597657H22.875c1.9375 0 2.484375-.804688 2.484375-2.597657Zm32.441406 1.921876s-.433593.730468-.984375.730468h-.910156c-.667969 0-1.09375-.734375-1.09375-.734375l-4.570312-7.910156h.886718c.644532 0 1.234375.105469 1.953125 1.296875.71875 1.1875 3.222657 5.582031 3.222657 5.582031l3.964843-6.878906h2.097657ZM70.1875 69.1875c0 .789062-.125.84375-.71875.84375h-5.707031c-.648438 0-.902344-.109375-.902344-.734375v-.882813c0-.625.253906-.738281.902344-.738281H70.1875Zm1.914062 2.535156v-5.386718c0-2.335938-.703124-3.257813-2.851562-3.257813h-3.746094s-.402344 1.695313 1.878906 1.695313h2.085938c.59375 0 .71875.164062.71875.550781v.679687h-6.785156c-1.914063 0-2.457032 1.195313-2.457032 2.613282v.496093c0 1.800781.542969 2.609375 2.457032 2.609375Zm0 0" style="stroke:none;fill-rule:nonzero;fill:#4f7f9c;fill-opacity:1"/></svg>