<svg xmlns="http://www.w3.org/2000/svg" xmlns:xlink="http://www.w3.org/1999/xlink" version="1.2" baseProfile="tiny" id="Premier_plan" x="0px" y="0px" viewBox="0 0 311.8104858 311.8104858" overflow="visible" xml:space="preserve"><rect x="-0.0009766" y="0.0000063" fill="#FFFFFF" width="311.8105469" height="311.8114624"/><path fill="#000A82" d="M-0.0009766,0.0000063v311.8114624h311.8105469V0.0000063H-0.0009766z M303.3095703,298.8973999 l-37.6644897-16.1764526l2.2973022,0.1100464l0.0018921-0.0039062l12.3789062-8.6973267 c0,0,9.281311-24.0897827,11.6524048-54.7049561c-9.4141235-32.1983032-19.5878906-49.3399048-21.781311-53.8135376 c0,0-9.1984863-8.9636841-14.5601807-12.1846313c-19.7186279-0.3519287-91.9475098-0.0866699-141.7664185,0.2188721 c-0.3828125,0.0380859-3.5141602,0.4394531-4.8408203,3.484375c-0.1446533,0.3278809-10.7219238,24.4248657-15.6116333,46.1793823 l-1.026001,5.0003662c-0.9351807,5.0766602-1.4758301,9.9051514-1.397522,14.1259155 c1.4990234,6.0742188,4.6015625,15.3115234,6.9707031,17.3349609l-0.1833496,0.2146606l9.2240601,3.9190674 c11.746521,5.2705078,32.3195801,13.9083252,50.1704102,21.315979l89.6535645,38.0912476h-84.1102905L33.414978,248.7333984 H8.5009766l-0.0019531-36.7286377h0.0019531h23.421936l58.8126831,24.987854 c-2.3672485-5.3364868-4.0378418-11.8956299-4.4699707-13.6752319l-0.0605469-0.25l-0.0063477-0.2568359 c-0.12146-4.9274292,0.5343018-10.5686646,1.663147-16.4453735l-56.9604492-24.4638672H8.5009766v-2.5v-2.5h23.4277344 l0.4727173,0.203064l56.5161133,24.2731323c4.9940796-21.7639771,15.1390381-44.875,15.7142944-46.1758423 c2.5805664-5.925293,8.7421875-6.3374023,9.0029297-6.3520508l0.1196289-0.003418 c5.7612305-0.0352783,29.2213135-0.1749268,55.8101196-0.2766113v-8.9417114 c0.7987671,0.1689453,2.8065796,0.8691406,4.0272827-0.3164062c0.9375-0.9072876-5.1875-5.774353-5.1875-5.774353 l0.0078125,0.0448608c-0.8496094-3.0567017-1.3652344-15.8808517-15.1932983-23.252861l-2.2988892-3.6680298V92.6278763 c0,0-2.921936-6.6161499-4.0664062-7.6532593h-0.9393921c-1.1484985,1.0371094-4.0645142,7.6532593-4.0645142,7.6532593v14.0332031 l-2.2988281,3.6680298c-13.7675781,7.3377686-14.3399048,20.0800095-15.1856079,23.2098923 c-0.0057983,0.0039062-0.0838623,0.0664062-0.1932983,0.156311v-32.0820847 c1.2734375,0.2665405,4.4590454,1.3798828,6.4004517-0.5039062c1.4842529-1.4414062-8.2388306-9.1699219-8.2388306-9.1699219 l0.0098267,0.0703125c-1.3516235-4.8535156-2.1700439-25.2207031-24.1348267-36.9296875l-3.6522827-5.8261108V26.9677181 c0,0-4.6387329-10.5097046-6.4570923-12.156249h-1.4922485c-1.8241577,1.6465445-6.4569702,12.156249-6.4569702,12.156249 v22.2861958l-3.6483765,5.8261108c-21.8658447,11.6542969-22.7779541,31.8886719-24.119751,36.8623047 c-0.0838623,0.0673828-9.7108765,7.7314453-8.2342529,9.1669922c1.9354858,1.8779907,5.1092529,0.7774048,6.3885498,0.5058594 v32.0936813c-0.1307983-0.1044922-0.2147827-0.1717529-0.2147827-0.1717529l0.0078125,0.0448608 c-0.8496094-3.0567017-1.3651733-15.8808517-15.1953125-23.252861l-2.2987671-3.6680298V92.6278763 c0,0-2.921936-6.6161499-4.0664062-7.6532593h-0.9395142c-1.1483765,1.0371094-4.0645142,7.6532593-4.0645142,7.6532593v14.0332031 l-2.2987671,3.6680298c-7.5527344,4.0263062-11.1307983,9.6766968-12.9648438,14.4754639H8.4990234V8.5009222h294.8105469 V298.8973999z M109.9408951,163.0791016h36.8521042v51.714798H94.7807999 C94.7807999,214.7938995,102.9408951,174.6112976,109.9408951,163.0791016 M250.9618988,163.0791016 c13.7636871,26.7577972,19.5898895,51.714798,19.5898895,51.714798h-55.1806946v-51.714798H250.9618988 M261.0282898,163.0791016 c0,0,6.2948914,4.718689,9.8262024,7.2928925c6.5664062,12.6474915,14.0878906,27.7089996,17.8612976,44.4219055h-8.2850952 l-0.0762024-0.1797028C275.592804,194.1747894,265.7685852,173.0301971,261.0282898,163.0791016 M265.9403992,231.1971893 l-13.4863129,3.7666016H114.1693954l-13.5-3.7666016h57.6879959v-68.1180878h18.2832031v68.1180878h9.4257965v-68.1180878h18.273407 v68.1180878H265.9403992z"/></svg>